{
.appVersion = "945";
classes = (
{
automatic = 1;
code = "A Aacute Acircumflex Adieresis Agrave Aring Atilde AE B C Ccedilla D Eth E Eacute Ecircumflex Edieresis Egrave F G H I Iacute Icircumflex Idieresis Igrave J K L Lslash M N Ntilde O Oacute Ocircumflex Odieresis Ograve Oslash Otilde OE P Thorn Q R S Scaron T U Uacute Ucircumflex Udieresis Ugrave V W X Y Yacute Ydieresis Z Zcaron Delta Omega";
name = Uppercase;
}
);
copyright = "Copyright 2016 The Unna Project Authors (omnibus.type@gmail.com)";
customParameters = (
{
name = fsType;
value = (
);
},
{
name = license;
value = "This Font Software is licensed under the SIL Open Font License, Version 1.1. This license is available with a FAQ at: http://scripts.sil.org/OFL";
},
{
name = licenseURL;
value = "http://scripts.sil.org/OFL";
},
{
name = "Disable Last Change";
value = 1;
},
{
name = "Use Line Breaks";
value = 1;
},
{
name = vendorID;
value = OMNI;
},
{
name = "Use Typo Metrics";
value = 1;
}
);
date = "2015-01-29 04:12:28 +0000";
designer = "Jorge de Buen Unna";
designerURL = "http://www.omnibus-type.com";
familyName = Unna;
featurePrefixes = (
{
automatic = 1;
code = "languagesystem DFLT dflt;
languagesystem latn dflt;
languagesystem grek dflt;
languagesystem latn CAT;
languagesystem latn TRK;
";
name = Languagesystems;
}
);
features = (
{
automatic = 1;
code = "feature sups;
feature frac;
feature ordn;
feature case;
feature salt;
feature ss01;
feature locl;";
name = aalt;
},
{
automatic = 1;
code = "script latn;
language CRT;
sub i by idotaccent;
language TAT;
sub i by idotaccent;
language KAZ;
sub i by idotaccent;
language CAT;
sub  l' periodcentered' l by ldot;
sub  L' periodcentered' L by Ldot;
language AZE;
sub i by idotaccent;
language TRK;
sub i by idotaccent;";
name = locl;
},
{
automatic = 1;
code = "sub one by onesuperior;
sub two by twosuperior;
sub three by threesuperior;";
name = sups;
},
{
automatic = 1;
code = "sub one slash four by onequarter;
sub one slash two by onehalf;

glyphs = (
{
color = 4;
glyphname = A;
layers = (
{
anchors = (
{
name = ogonek;
position = "{561, 14}";
},
{
name = top;
position = "{301, 598}";
}
);
layerId = UUID0;
paths = (
{
closed = 1;
nodes = (
"373 236 LINE",
"147 236 LINE",
"137 208 LINE",
"383 208 LINE"
);
},
{
closed = 1;
nodes = (
"308 607 LINE",
"282 607 LINE",
"73 104 LINE SMOOTH",
"63 79 OFFCURVE",
"53 60 OFFCURVE",
"43 46 CURVE SMOOTH",
"34 33 OFFCURVE",
"23 27 OFFCURVE",
"10 27 CURVE SMOOTH",
"6 27 LINE",
"-20 29 LINE",
"-20 0 LINE",
"153 0 LINE",
"153 29 LINE",
"105 26 LINE",
"72 23 OFFCURVE",
"82 61 OFFCURVE",
"97 96 CURVE SMOOTH",
"263 498 LINE"
);
},
{
closed = 1;
nodes = (
"255 498 LINE",
"425 90 LINE SMOOTH",
"438 59 OFFCURVE",
"445 24 OFFCURVE",
"405 27 CURVE",
"356 29 LINE",
"356 0 LINE",
"621 0 LINE",
"621 29 LINE",
"588 27 LINE",
"583 27 LINE SMOOTH",
"568 27 OFFCURVE",
"557 33 OFFCURVE",
"548 45 CURVE SMOOTH",
"539 58 OFFCURVE",
"529 77 OFFCURVE",
"519 102 CURVE SMOOTH",
"308 607 LINE"
);
}
);
width = 601;
},
{
anchors = (
{
name = ogonek;
position = "{571, 14}";
},
{
name = top;
position = "{311, 598}";
}
);
layerId = "F8700386-2E77-47FF-AAB4-DBF3F3ACCAC4";
paths = (
{
closed = 1;
nodes = (
"363 216 LINE",
"137 216 LINE",
"127 178 LINE",
"373 178 LINE"
);
},
{
closed = 1;
nodes = (
"338 607 LINE",
"282 607 LINE",
"77 114 LINE SMOOTH",
"67 89 OFFCURVE",
"57 70 OFFCURVE",
"47 56 CURVE SMOOTH",
"38 43 OFFCURVE",
"27 37 OFFCURVE",
"14 37 CURVE SMOOTH",
"10 37 LINE",
"-20 39 LINE",
"-20 0 LINE",
"163 0 LINE",
"163 39 LINE",
"119 36 LINE",
"86 33 OFFCURVE",
"96 71 OFFCURVE",
"111 106 CURVE SMOOTH",
"273 498 LINE"
);
},
{
closed = 1;
nodes = (
"243 453 LINE",
"390 100 LINE SMOOTH",
"403 69 OFFCURVE",
"410 34 OFFCURVE",
"370 37 CURVE",
"325 39 LINE",
"325 0 LINE",
"637 0 LINE",
"637 39 LINE",
"614 37 LINE",
"609 37 LINE SMOOTH",
"594 37 OFFCURVE",
"583 43 OFFCURVE",
"574 55 CURVE SMOOTH",
"565 68 OFFCURVE",
"555 87 OFFCURVE",
"545 112 CURVE SMOOTH",
"338 607 LINE"
);
}
);
width = 617;
}
);
leftKerningGroup = A;
rightKerningGroup = A;
unicode = 0041;
},
{
color = 4;
glyphname = AE;
layers = (
{
anchors = (
{
name = top;
position = "{456, 598}";
}
);
layerId = UUID0;
paths = (
{
closed = 1;
nodes = (
"776 598 OFFCURVE",
"764 597 OFFCURVE",
"749 597 CURVE SMOOTH",
"284 597 LINE",
"284 565 LINE",
"335 567 LINE SMOOTH",
"346 567 OFFCURVE",
"357 555 OFFCURVE",
"350 543 CURVE SMOOTH",
"71 86 LINE SMOOTH",
"44 43 OFFCURVE",
"30 24 OFFCURVE",
"11 27 CURVE",
"-20 30 LINE",
"-20 0 LINE",
"155 0 LINE",
"155 30 LINE",
"104 27 LINE",
"71 24 OFFCURVE",
"87 61 OFFCURVE",
"98 80 CURVE SMOOTH",
"174 208 LINE",
"420 208 LINE",
"449 52 LINE",
"452 40 OFFCURVE",
"444 26 OFFCURVE",
"427 27 CURVE SMOOTH",
"370 30 LINE",
"370 0 LINE",
"715 0 LINE SMOOTH",
"730 0 OFFCURVE",
"767 0 OFFCURVE",
"803 -3 CURVE",
"803 171 LINE",
"776 171 LINE",
"776 75 OFFCURVE",
"729 27 OFFCURVE",
"635 27 CURVE SMOOTH",
"569 27 LINE SMOOTH",
"558 27 OFFCURVE",
"551 35 OFFCURVE",
"548 46 CURVE",
"500 297 LINE",
"579 297 LINE SMOOTH",
"622 297 OFFCURVE",
"655 255 OFFCURVE",
"655 195 CURVE",
"681 195 LINE",
"681 426 LINE",
"655 426 LINE",
"655 365 OFFCURVE",
"622 324 OFFCURVE",
"579 324 CURVE SMOOTH",
"496 324 LINE",
"451 569 LINE",
"615 569 LINE SMOOTH",
"711 569 OFFCURVE",
"757 531 OFFCURVE",
"757 443 CURVE",
"783 443 LINE",
"783 599 LINE"
);
},
{
closed = 1;
nodes = (
"414 236 LINE",
"190 236 LINE",
"362 515 LINE"
);
}
);
width = 847;
},
{
anchors = (
{
name = top;
position = "{458.153, 598}";
}
);
layerId = "F8700386-2E77-47FF-AAB4-DBF3F3ACCAC4";
paths = (
{
closed = 1;
nodes = (
"778 598 OFFCURVE",
"762 597 OFFCURVE",
"743 597 CURVE SMOOTH",
"272 597 LINE",
"272 555 LINE",
"323 557 LINE",
"334 557 OFFCURVE",
"345 545 OFFCURVE",
"338 533 CURVE SMOOTH",
"71 96 LINE SMOOTH",
"45 53 OFFCURVE",
"30 34 OFFCURVE",
"11 37 CURVE",
"-20 40 LINE",
"-20 0 LINE",
"169 0 LINE",
"169 40 LINE",
"118 37 LINE SMOOTH",
"85 34 OFFCURVE",
"102 70 OFFCURVE",
"112 90 CURVE",
"165 178 LINE",
"389 178 LINE",
"411 62 LINE",
"414 50 OFFCURVE",
"406 36 OFFCURVE",
"389 37 CURVE SMOOTH",
"332 40 LINE",
"332 0 LINE",
"709 0 LINE SMOOTH",
"726 0 OFFCURVE",
"767 0 OFFCURVE",
"807 -3 CURVE",
"807 171 LINE",
"770 171 LINE",
"770 84 OFFCURVE",
"723 36 OFFCURVE",
"629 36 CURVE SMOOTH",
"593 36 LINE SMOOTH",
"582 36 OFFCURVE",
"575 44 OFFCURVE",
"572 55 CURVE",
"526 286 LINE",
"575 286 LINE SMOOTH",
"618 286 OFFCURVE",
"651 244 OFFCURVE",
"651 190 CURVE",
"687 190 LINE",
"687 426 LINE",
"649 426 LINE",
"649 365 OFFCURVE",
"616 324 OFFCURVE",
"573 324 CURVE SMOOTH",
"520 324 LINE",
"477 559 LINE",
"609 559 LINE SMOOTH",
"705 559 OFFCURVE",
"751 524 OFFCURVE",
"751 443 CURVE",
"787 443 LINE",
"787 599 LINE"
);
},
{
closed = 1;
nodes = (
"382 216 LINE",
"189 216 LINE",
"336 459 LINE"
);
}
);
width = 851;
}
);
leftKerningGroup = A;
leftMetricsKey = "=A";
rightMetricsKey = "=E";
unicode = 00C6;
},
{
color = 4;
glyphname = B;
layers = (
{
layerId = UUID0;
paths = (
{
closed = 1;
nodes = (
"50 597 LINE",
"50 567 LINE",
"101 569 LINE SMOOTH",
"112 569 OFFCURVE",
"118 558 OFFCURVE",
"118 549 CURVE SMOOTH",
"118 49 LINE SMOOTH",
"118 34 OFFCURVE",
"112 27 OFFCURVE",
"100 27 CURVE SMOOTH",
"50 29 LINE",
"50 0 LINE",
"312 0 LINE SMOOTH",
"459 0 OFFCURVE",
"533 54 OFFCURVE",
"533 162 CURVE SMOOTH",
"533 251 OFFCURVE",
"457 317 OFFCURVE",
"362 317 CURVE",
"445 332 OFFCURVE",
"500 383 OFFCURVE",
"500 454 CURVE SMOOTH",
"500 549 OFFCURVE",
"439 597 OFFCURVE",
"327 597 CURVE SMOOTH"
);
},
{
closed = 1;
nodes = (
"394 299 OFFCURVE",
"436 254 OFFCURVE",
"436 162 CURVE SMOOTH",
"436 78 OFFCURVE",
"379 28 OFFCURVE",
"295 28 CURVE SMOOTH",
"225 28 LINE SMOOTH",
"216 28 OFFCURVE",
"211 32 OFFCURVE",
"211 41 CURVE SMOOTH",
"211 299 LINE",
"314 299 LINE SMOOTH"
);
},
{
closed = 1;
nodes = (
"360 569 OFFCURVE",
"405 525 OFFCURVE",
"405 453 CURVE SMOOTH",
"405 369 OFFCURVE",
"366 327 OFFCURVE",
"287 327 CURVE SMOOTH",
"211 327 LINE",
"211 557 LINE",
"212 565 OFFCURVE",
"216 569 OFFCURVE",
"223 569 CURVE SMOOTH",
"281 569 LINE SMOOTH"
);
}
);
width = 573;
},
{
layerId = "F8700386-2E77-47FF-AAB4-DBF3F3ACCAC4";
paths = (
{
closed = 1;
nodes = (
"35 597 LINE",
"35 557 LINE",
"81 559 LINE",
"92 559 OFFCURVE",
"98 548 OFFCURVE",
"98 539 CURVE SMOOTH",
"98 59 LINE SMOOTH",
"98 45 OFFCURVE",
"93 37 OFFCURVE",
"82 37 CURVE SMOOTH",
"35 39 LINE",
"35 0 LINE",
"342 0 LINE SMOOTH",
"489 0 OFFCURVE",
"563 54 OFFCURVE",
"563 162 CURVE SMOOTH",
"563 251 OFFCURVE",
"487 317 OFFCURVE",
"392 317 CURVE",
"475 332 OFFCURVE",
"530 383 OFFCURVE",
"530 454 CURVE SMOOTH",
"530 549 OFFCURVE",
"469 597 OFFCURVE",
"357 597 CURVE SMOOTH"
);
},
{
closed = 1;
nodes = (
"376 292 OFFCURVE",
"406 257 OFFCURVE",
"406 164 CURVE SMOOTH",
"406 75 OFFCURVE",
"366 38 OFFCURVE",
"307 38 CURVE SMOOTH",
"265 38 LINE SMOOTH",
"256 38 OFFCURVE",
"251 42 OFFCURVE",
"251 51 CURVE SMOOTH",
"251 292 LINE",
"318 292 LINE SMOOTH"
);
},
{
closed = 1;
nodes = (
"346 559 OFFCURVE",
"375 528 OFFCURVE",
"375 448 CURVE SMOOTH",
"375 362 OFFCURVE",
"349 330 OFFCURVE",
"295 330 CURVE SMOOTH",
"251 330 LINE",
"251 547 LINE",
"252 555 OFFCURVE",
"256 559 OFFCURVE",
"263 559 CURVE SMOOTH",
"294 559 LINE SMOOTH"
);
}
);
width = 583;
}
);
leftMetricsKey = "=H";
unicode = 0042;
},
{
color = 4;
glyphname = C;
layers = (
{
anchors = (
{
name = bottom;
position = "{304, 0}";
},
{
name = top;
position = "{304, 598}";
}
);
layerId = UUID0;
paths = (
{
closed = 1;
nodes = (
"45 106 OFFCURVE",
"158 -10 OFFCURVE",
"340 -10 CURVE SMOOTH",
"427 -10 OFFCURVE",
"501 35 OFFCURVE",
"553 35 CURVE SMOOTH",
"559 35 LINE",
"557 47 OFFCURVE",
"556 63 OFFCURVE",
"556 82 CURVE SMOOTH",
"556 95 OFFCURVE",
"557 128 OFFCURVE",
"562 167 CURVE",
"534 167 LINE",
"515 82 OFFCURVE",
"439 17 OFFCURVE",
"345 17 CURVE SMOOTH",
"225 17 OFFCURVE",
"147 131 OFFCURVE",
"147 295 CURVE SMOOTH",
"147 467 OFFCURVE",
"220 582 OFFCURVE",
"340 582 CURVE SMOOTH",
"430 582 OFFCURVE",
"511 515 OFFCURVE",
"529 433 CURVE",
"553 433 LINE",
"551 435 OFFCURVE",
"549 459 OFFCURVE",
"549 489 CURVE SMOOTH",
"549 513 OFFCURVE",
"550 541 OFFCURVE",
"553 564 CURVE",
"478 564 OFFCURVE",
"448 607 OFFCURVE",
"345 607 CURVE SMOOTH",
"157 607 OFFCURVE",
"45 492 OFFCURVE",
"45 295 CURVE SMOOTH"
);
}
);
width = 607;
},
{
anchors = (
{
name = bottom;
position = "{334, 0}";
},
{
name = top;
position = "{334, 598}";
}
);
layerId = "F8700386-2E77-47FF-AAB4-DBF3F3ACCAC4";
paths = (
{
closed = 1;
nodes = (
"25 106 OFFCURVE",
"143 -10 OFFCURVE",
"335 -10 CURVE SMOOTH",
"426 -10 OFFCURVE",
"495 35 OFFCURVE",
"558 35 CURVE SMOOTH",
"564 35 LINE",
"562 47 OFFCURVE",
"561 63 OFFCURVE",
"561 82 CURVE SMOOTH",
"561 95 OFFCURVE",
"562 125 OFFCURVE",
"567 167 CURVE",
"529 167 LINE",
"512 88 OFFCURVE",
"446 27 OFFCURVE",
"364 27 CURVE SMOOTH",
"260 27 OFFCURVE",
"192 118 OFFCURVE",
"192 295 CURVE SMOOTH",
"192 480 OFFCURVE",
"255 572 OFFCURVE",
"360 572 CURVE SMOOTH",
"438 572 OFFCURVE",
"508 509 OFFCURVE",
"524 433 CURVE",
"558 433 LINE",
"556 435 OFFCURVE",
"554 459 OFFCURVE",
"554 489 CURVE SMOOTH",
"554 513 OFFCURVE",
"555 541 OFFCURVE",
"558 564 CURVE",
"481 564 OFFCURVE",
"453 607 OFFCURVE",
"340 607 CURVE SMOOTH",
"142 607 OFFCURVE",
"25 492 OFFCURVE",
"25 295 CURVE SMOOTH"
);
}
);
width = 592;
}
);
leftKerningGroup = O;
leftMetricsKey = "=O";
rightMetricsKey = "=O";
unicode = 0043;
},
{
color = 4;
glyphname = D;
layers = (
{
anchors = (
{
name = center;
position = "{312, 299}";
},
{
name = top;
position = "{312, 598}";
}
);
layerId = UUID0;
paths = (
{
closed = 1;
nodes = (
"287 0 LINE SMOOTH",
"492 0 OFFCURVE",
"588 104 OFFCURVE",
"588 299 CURVE SMOOTH",
"588 516 OFFCURVE",
"484 597 OFFCURVE",
"275 597 CURVE SMOOTH",
"50 597 LINE",
"50 567 LINE",
"89 569 LINE SMOOTH",
"102 569 OFFCURVE",
"108 559 OFFCURVE",
"108 548 CURVE SMOOTH",
"108 49 LINE SMOOTH",
"108 37 OFFCURVE",
"104 27 OFFCURVE",
"93 27 CURVE SMOOTH",
"50 29 LINE",
"50 0 LINE"
);
},
{
closed = 1;
nodes = (
"201 556 LINE SMOOTH",
"201 565 OFFCURVE",
"205 569 OFFCURVE",
"213 569 CURVE SMOOTH",
"258 569 LINE SMOOTH",
"423 569 OFFCURVE",
"486 494 OFFCURVE",
"486 298 CURVE SMOOTH",
"486 101 OFFCURVE",
"423 28 OFFCURVE",
"258 28 CURVE SMOOTH",
"213 28 LINE SMOOTH",
"205 28 OFFCURVE",
"201 32 OFFCURVE",
"201 41 CURVE SMOOTH"
);
}
);
width = 623;
},
{
anchors = (
{
name = center;
position = "{300, 299}";
},
{
name = top;
position = "{300, 598}";
}
);
layerId = "F8700386-2E77-47FF-AAB4-DBF3F3ACCAC4";
paths = (
{
closed = 1;
nodes = (
"297 0 LINE SMOOTH",
"514 0 OFFCURVE",
"613 104 OFFCURVE",
"613 299 CURVE SMOOTH",
"613 516 OFFCURVE",
"506 597 OFFCURVE",
"285 597 CURVE SMOOTH",
"35 597 LINE",
"35 557 LINE",
"69 559 LINE SMOOTH",
"82 560 OFFCURVE",
"88 549 OFFCURVE",
"88 538 CURVE SMOOTH",
"88 59 LINE SMOOTH",
"88 47 OFFCURVE",
"84 36 OFFCURVE",
"73 37 CURVE SMOOTH",
"35 39 LINE",
"35 0 LINE"
);
},
{
closed = 1;
nodes = (
"241 546 LINE SMOOTH",
"241 555 OFFCURVE",
"245 559 OFFCURVE",
"253 559 CURVE SMOOTH",
"268 559 LINE SMOOTH",
"398 559 OFFCURVE",
"446 514 OFFCURVE",
"446 298 CURVE SMOOTH",
"446 81 OFFCURVE",
"398 38 OFFCURVE",
"268 38 CURVE SMOOTH",
"253 38 LINE SMOOTH",
"245 38 OFFCURVE",
"241 42 OFFCURVE",
"241 51 CURVE SMOOTH"
);
}
);
width = 638;
}
);
leftMetricsKey = "=D";
rightKerningGroup = O;
rightMetricsKey = "=O";
unicode = 0044;
},
{
color = 4;
glyphname = Eth;
layers = (
{
components = (
{
name = D;
}
);
layerId = UUID0;
paths = (
{
closed = 1;
nodes = (
"391 293 LINE",
"391 329 LINE",
"42 329 LINE",
"42 293 LINE"
);
}
);
width = 631;
},
{
components = (
{
name = D;
}
);
layerId = "F8700386-2E77-47FF-AAB4-DBF3F3ACCAC4";
paths = (
{
closed = 1;
nodes = (
"371 283 LINE",
"371 329 LINE",
"32 329 LINE",
"32 283 LINE"
);
}
);
width = 638;
}
);
rightKerningGroup = O;
unicode = 00D0;
},
{
color = 4;
glyphname = E;
layers = (
{
anchors = (
{
name = bottom;
position = "{282, 0}";
},
{
name = ogonek;
position = "{467, 14}";
},
{
name = top;
position = "{282, 598}";
}
);
layerId = UUID0;
paths = (
{
closed = 1;
nodes = (
"431 0 LINE SMOOTH",
"474 0 OFFCURVE",
"504 -1 OFFCURVE",
"519 -3 CURVE",
"519 179 LINE",
"492 179 LINE",
"492 82 OFFCURVE",
"444 28 OFFCURVE",
"353 28 CURVE SMOOTH",
"213 28 LINE SMOOTH",
"205 28 OFFCURVE",
"201 32 OFFCURVE",
"201 41 CURVE SMOOTH",
"201 297 LINE",
"295 297 LINE SMOOTH",
"336 297 OFFCURVE",
"371 255 OFFCURVE",
"371 195 CURVE",
"398 195 LINE",
"398 426 LINE",
"371 426 LINE",
"371 362 OFFCURVE",
"339 325 OFFCURVE",
"295 325 CURVE SMOOTH",
"201 325 LINE",
"201 555 LINE SMOOTH",
"201 564 OFFCURVE",
"205 569 OFFCURVE",
"213 569 CURVE SMOOTH",
"320 569 LINE SMOOTH",
"419 569 OFFCURVE",
"462 532 OFFCURVE",
"462 443 CURVE",
"489 443 LINE",
"489 598 LINE",
"486 597 OFFCURVE",
"480 597 OFFCURVE",
"472 597 CURVE SMOOTH",
"451 597 LINE",
"50 597 LINE",
"50 567 LINE",
"88 569 LINE SMOOTH",
"100 570 OFFCURVE",
"108 560 OFFCURVE",
"108 548 CURVE SMOOTH",
"108 49 LINE SMOOTH",
"108 34 OFFCURVE",
"102 27 OFFCURVE",
"90 27 CURVE",
"50 30 LINE",
"50 0 LINE"
);
}
);
width = 563;
},
{
anchors = (
{
name = bottom;
position = "{282, 0}";
},
{
name = ogonek;
position = "{467, 14}";
},
{
name = top;
position = "{282, 598}";
}
);
layerId = "F8700386-2E77-47FF-AAB4-DBF3F3ACCAC4";
paths = (
{
closed = 1;
nodes = (
"431 0 LINE SMOOTH",
"474 0 OFFCURVE",
"514 -1 OFFCURVE",
"529 -3 CURVE",
"529 179 LINE",
"492 179 LINE",
"492 88 OFFCURVE",
"444 38 OFFCURVE",
"353 38 CURVE SMOOTH",
"253 38 LINE SMOOTH",
"245 38 OFFCURVE",
"241 42 OFFCURVE",
"241 51 CURVE SMOOTH",
"241 287 LINE",
"305 287 LINE SMOOTH",
"346 287 OFFCURVE",
"381 245 OFFCURVE",
"381 190 CURVE",
"418 190 LINE",
"418 426 LINE",
"381 426 LINE",
"381 362 OFFCURVE",
"349 325 OFFCURVE",
"305 325 CURVE SMOOTH",
"241 325 LINE",
"241 545 LINE SMOOTH",
"241 554 OFFCURVE",
"245 559 OFFCURVE",
"253 559 CURVE SMOOTH",
"320 559 LINE SMOOTH",
"419 559 OFFCURVE",
"462 525 OFFCURVE",
"462 443 CURVE",
"499 443 LINE",
"499 598 LINE",
"496 597 OFFCURVE",
"490 597 OFFCURVE",
"482 597 CURVE SMOOTH",
"451 597 LINE",
"35 597 LINE",
"35 557 LINE",
"68 559 LINE SMOOTH",
"80 560 OFFCURVE",
"88 550 OFFCURVE",
"88 538 CURVE SMOOTH",
"88 59 LINE SMOOTH",
"88 44 OFFCURVE",
"82 37 OFFCURVE",
"70 37 CURVE",
"35 40 LINE",
"35 0 LINE"
);
}
);
width = 573;
}
);
unicode = 0045;
},
{
color = 4;
glyphname = F;
layers = (
{
layerId = UUID0;
paths = (
{
closed = 1;
nodes = (
"272 0 LINE",
"272 30 LINE",
"220 27 LINE",
"209 27 OFFCURVE",
"201 36 OFFCURVE",
"201 48 CURVE SMOOTH",
"201 287 LINE",
"276 287 LINE SMOOTH",
"323 287 OFFCURVE",
"355 248 OFFCURVE",
"355 187 CURVE",
"382 187 LINE",
"382 417 LINE",
"355 417 LINE",
"355 353 OFFCURVE",
"323 315 OFFCURVE",
"276 315 CURVE SMOOTH",
"201 315 LINE",
"201 556 LINE SMOOTH",
"201 565 OFFCURVE",
"205 569 OFFCURVE",
"213 569 CURVE SMOOTH",
"330 569 LINE SMOOTH",
"429 569 OFFCURVE",
"472 531 OFFCURVE",
"472 443 CURVE",
"499 443 LINE",
"499 598 LINE",
"496 597 OFFCURVE",
"491 597 OFFCURVE",
"484 597 CURVE SMOOTH",
"464 597 LINE",
"50 597 LINE",
"50 567 LINE",
"89 569 LINE",
"91 569 LINE SMOOTH",
"102 569 OFFCURVE",
"108 562 OFFCURVE",
"108 548 CURVE SMOOTH",
"108 49 LINE SMOOTH",
"108 34 OFFCURVE",
"102 27 OFFCURVE",
"90 27 CURVE",
"50 30 LINE",
"50 0 LINE"
);
}
);
width = 529;
},
{
layerId = "F8700386-2E77-47FF-AAB4-DBF3F3ACCAC4";
paths = (
{
closed = 1;
nodes = (
"312 0 LINE",
"312 40 LINE",
"260 37 LINE",
"249 37 OFFCURVE",
"241 46 OFFCURVE",
"241 58 CURVE SMOOTH",
"241 277 LINE",
"306 277 LINE SMOOTH",
"353 277 OFFCURVE",
"385 238 OFFCURVE",
"385 177 CURVE",
"422 177 LINE",
"422 417 LINE",
"385 417 LINE",
"385 353 OFFCURVE",
"353 315 OFFCURVE",
"306 315 CURVE SMOOTH",
"241 315 LINE",
"241 546 LINE SMOOTH",
"241 555 OFFCURVE",
"245 559 OFFCURVE",
"253 559 CURVE SMOOTH",
"330 559 LINE SMOOTH",
"429 559 OFFCURVE",
"474 524 OFFCURVE",
"472 443 CURVE",
"509 443 LINE",
"509 598 LINE",
"506 597 OFFCURVE",
"501 597 OFFCURVE",
"494 597 CURVE SMOOTH",
"464 597 LINE",
"35 597 LINE",
"35 557 LINE",
"69 559 LINE",
"71 559 LINE SMOOTH",
"82 559 OFFCURVE",
"88 552 OFFCURVE",
"88 538 CURVE SMOOTH",
"88 59 LINE SMOOTH",
"88 44 OFFCURVE",
"82 37 OFFCURVE",
"70 37 CURVE",
"35 40 LINE",
"35 0 LINE"
);
}
);
width = 529;
}
);
unicode = 0046;
},
{
color = 4;
glyphname = G;
layers = (
{
anchors = (
{
name = bottom;
position = "{323, 0}";
},
{
name = top;
position = "{323, 598}";
}
);
layerId = UUID0;
paths = (
{
closed = 1;
nodes = (
"45 91 OFFCURVE",
"156 -10 OFFCURVE",
"340 -10 CURVE SMOOTH",
"445 -10 OFFCURVE",
"509 36 OFFCURVE",
"553 36 CURVE SMOOTH",
"556 36 OFFCURVE",
"562 36 OFFCURVE",
"566 35 CURVE",
"566 224 LINE SMOOTH",
"566 235 OFFCURVE",
"573 245 OFFCURVE",
"585 245 CURVE SMOOTH",
"626 243 LINE",
"626 272 LINE",
"395 272 LINE",
"395 243 LINE",
"454 245 LINE SMOOTH",
"467 245 OFFCURVE",
"473 238 OFFCURVE",
"473 223 CURVE SMOOTH",
"473 63 LINE",
"436 27 OFFCURVE",
"404 17 OFFCURVE",
"345 17 CURVE SMOOTH",
"221 17 OFFCURVE",
"147 100 OFFCURVE",
"147 295 CURVE SMOOTH",
"147 490 OFFCURVE",
"229 582 OFFCURVE",
"340 582 CURVE SMOOTH",
"455 582 OFFCURVE",
"514 530 OFFCURVE",
"514 448 CURVE SMOOTH",
"514 443 OFFCURVE",
"514 438 OFFCURVE",
"513 433 CURVE",
"553 433 LINE",
"552 454 OFFCURVE",
"549 472 OFFCURVE",
"549 495 CURVE",
"549 526 OFFCURVE",
"550 549 OFFCURVE",
"553 564 CURVE",
"509 564 OFFCURVE",
"457 607 OFFCURVE",
"345 607 CURVE SMOOTH",
"154 607 OFFCURVE",
"45 503 OFFCURVE",
"45 295 CURVE SMOOTH"
);
}
);
width = 646;
},
{
anchors = (
{
name = bottom;
position = "{333, 0}";
},
{
name = top;
position = "{333, 598}";
}
);
layerId = "F8700386-2E77-47FF-AAB4-DBF3F3ACCAC4";
paths = (
{
closed = 1;
nodes = (
"25 91 OFFCURVE",
"146 -10 OFFCURVE",
"333 -10 CURVE SMOOTH",
"461 -10 OFFCURVE",
"511 37 OFFCURVE",
"564 37 CURVE SMOOTH",
"572 37 OFFCURVE",
"579 36 OFFCURVE",
"584 35 CURVE",
"584 214 LINE SMOOTH",
"584 225 OFFCURVE",
"592 236 OFFCURVE",
"603 235 CURVE SMOOTH",
"633 233 LINE",
"633 272 LINE",
"353 272 LINE",
"353 233 LINE",
"412 235 LINE SMOOTH",
"425 235 OFFCURVE",
"431 228 OFFCURVE",
"431 213 CURVE SMOOTH",
"431 69 LINE",
"405 37 OFFCURVE",
"376 27 OFFCURVE",
"343 27 CURVE SMOOTH",
"246 27 OFFCURVE",
"192 107 OFFCURVE",
"192 285 CURVE SMOOTH",
"192 473 OFFCURVE",
"250 572 OFFCURVE",
"358 572 CURVE SMOOTH",
"458 572 OFFCURVE",
"511 524 OFFCURVE",
"515 443 CURVE SMOOTH",
"515 435 OFFCURVE",
"515 431 OFFCURVE",
"514 423 CURVE",
"568 423 LINE",
"565 456 OFFCURVE",
"564 485 OFFCURVE",
"564 507 CURVE SMOOTH",
"564 535 OFFCURVE",
"566 552 OFFCURVE",
"568 564 CURVE",
"522 564 OFFCURVE",
"448 607 OFFCURVE",
"342 607 CURVE SMOOTH",
"142 607 OFFCURVE",
"25 501 OFFCURVE",
"25 298 CURVE SMOOTH"
);
}
);
width = 651;
}
);
leftKerningGroup = O;
leftMetricsKey = "=O";
unicode = 0047;
},
{
color = 4;
glyphname = H;
layers = (
{
anchors = (
{
name = center;
position = "{348, 299}";
},
{
name = top;
position = "{348, 598}";
}
);
layerId = UUID0;
paths = (
{
closed = 1;
nodes = (
"270 0 LINE",
"270 29 LINE",
"221 27 LINE SMOOTH",
"208 27 OFFCURVE",
"201 34 OFFCURVE",
"201 49 CURVE SMOOTH",
"201 294 LINE",
"495 294 LINE",
"495 49 LINE SMOOTH",
"495 34 OFFCURVE",
"489 27 OFFCURVE",
"476 27 CURVE SMOOTH",
"427 29 LINE",
"427 0 LINE",
"646 0 LINE",
"646 29 LINE",
"607 27 LINE SMOOTH",
"594 27 OFFCURVE",
"588 34 OFFCURVE",
"588 49 CURVE SMOOTH",
"588 548 LINE SMOOTH",
"588 560 OFFCURVE",
"594 570 OFFCURVE",
"607 569 CURVE SMOOTH",
"646 567 LINE",
"646 597 LINE",
"427 597 LINE",
"427 567 LINE",
"476 569 LINE SMOOTH",
"491 570 OFFCURVE",
"495 559 OFFCURVE",
"495 548 CURVE SMOOTH",
"495 322 LINE",
"201 322 LINE",
"201 548 LINE SMOOTH",
"201 560 OFFCURVE",
"208 570 OFFCURVE",
"221 569 CURVE SMOOTH",
"270 567 LINE",
"270 597 LINE",
"50 597 LINE",
"50 567 LINE",
"89 569 LINE SMOOTH",
"104 570 OFFCURVE",
"108 559 OFFCURVE",
"108 548 CURVE SMOOTH",
"108 49 LINE SMOOTH",
"108 34 OFFCURVE",
"102 27 OFFCURVE",
"89 27 CURVE SMOOTH",
"50 29 LINE",
"50 0 LINE"
);
}
);
width = 696;
},
{
anchors = (
{
name = center;
position = "{348, 299}";
},
{
name = top;
position = "{348, 598}";
}
);
layerId = "F8700386-2E77-47FF-AAB4-DBF3F3ACCAC4";
paths = (
{
closed = 1;
nodes = (
"310 0 LINE",
"310 39 LINE",
"261 37 LINE SMOOTH",
"248 37 OFFCURVE",
"241 44 OFFCURVE",
"241 59 CURVE SMOOTH",
"241 284 LINE",
"455 284 LINE",
"455 59 LINE SMOOTH",
"455 44 OFFCURVE",
"449 37 OFFCURVE",
"436 37 CURVE SMOOTH",
"387 39 LINE",
"387 0 LINE",
"661 0 LINE",
"661 39 LINE",
"627 37 LINE SMOOTH",
"614 36 OFFCURVE",
"608 44 OFFCURVE",
"608 59 CURVE SMOOTH",
"608 538 LINE SMOOTH",
"608 550 OFFCURVE",
"614 560 OFFCURVE",
"627 559 CURVE SMOOTH",
"661 557 LINE",
"661 597 LINE",
"387 597 LINE",
"387 557 LINE",
"436 559 LINE SMOOTH",
"451 560 OFFCURVE",
"455 549 OFFCURVE",
"455 538 CURVE SMOOTH",
"455 322 LINE",
"241 322 LINE",
"241 538 LINE SMOOTH",
"241 550 OFFCURVE",
"248 560 OFFCURVE",
"261 559 CURVE SMOOTH",
"310 557 LINE",
"310 597 LINE",
"35 597 LINE",
"35 557 LINE",
"69 559 LINE SMOOTH",
"84 560 OFFCURVE",
"88 549 OFFCURVE",
"88 538 CURVE SMOOTH",
"88 59 LINE SMOOTH",
"88 44 OFFCURVE",
"82 36 OFFCURVE",
"69 37 CURVE SMOOTH",
"35 39 LINE",
"35 0 LINE"
);
}
);
width = 696;
}
);
unicode = 0048;
},
{
color = 4;
glyphname = I;
layers = (
{
anchors = (
{
name = ogonek;
position = "{219, 14}";
},
{
name = top;
position = "{155, 598}";
}
);
layerId = UUID0;
paths = (
{
closed = 1;
nodes = (
"260 0 LINE",
"260 29 LINE",
"221 27 LINE SMOOTH",
"208 27 OFFCURVE",
"201 34 OFFCURVE",
"201 49 CURVE SMOOTH",
"201 548 LINE SMOOTH",
"201 560 OFFCURVE",
"209 570 OFFCURVE",
"221 569 CURVE SMOOTH",
"260 567 LINE",
"260 597 LINE",
"50 597 LINE",
"50 567 LINE",
"89 569 LINE SMOOTH",
"102 570 OFFCURVE",
"108 559 OFFCURVE",
"108 548 CURVE SMOOTH",
"108 49 LINE SMOOTH",
"108 34 OFFCURVE",
"102 27 OFFCURVE",
"89 27 CURVE SMOOTH",
"50 29 LINE",
"50 0 LINE"
);
}
);
width = 310;
},
{
anchors = (
{
name = ogonek;
position = "{259, 10}";
},
{
name = top;
position = "{165, 598}";
}
);
layerId = "F8700386-2E77-47FF-AAB4-DBF3F3ACCAC4";
paths = (
{
closed = 1;
nodes = (
"295 0 LINE",
"295 39 LINE",
"261 37 LINE SMOOTH",
"248 36 OFFCURVE",
"241 44 OFFCURVE",
"241 59 CURVE SMOOTH",
"241 538 LINE SMOOTH",
"241 550 OFFCURVE",
"249 560 OFFCURVE",
"261 559 CURVE SMOOTH",
"295 557 LINE",
"295 597 LINE",
"35 597 LINE",
"35 557 LINE",
"69 559 LINE SMOOTH",
"82 560 OFFCURVE",
"88 549 OFFCURVE",
"88 538 CURVE SMOOTH",
"88 59 LINE SMOOTH",
"88 44 OFFCURVE",
"82 36 OFFCURVE",
"69 37 CURVE SMOOTH",
"35 39 LINE",
"35 0 LINE"
);
}
);
width = 330;
}
);
leftMetricsKey = "=H";
rightMetricsKey = "=H";
unicode = 0049;
},
{
color = 4;
glyphname = J;
layers = (
{
anchors = (
{
name = top;
position = "{286, 598}";
}
);
layerId = UUID0;
paths = (
{
closed = 1;
nodes = (
"31 6 OFFCURVE",
"48 5 OFFCURVE",
"59 5 CURVE SMOOTH",
"87 5 OFFCURVE",
"125 -10 OFFCURVE",
"181 -10 CURVE SMOOTH",
"290 -10 OFFCURVE",
"348 51 OFFCURVE",
"348 179 CURVE SMOOTH",
"348 549 LINE SMOOTH",
"348 560 OFFCURVE",
"355 570 OFFCURVE",
"368 569 CURVE SMOOTH",
"406 567 LINE",
"406 597 LINE",
"167 597 LINE",
"167 567 LINE",
"236 569 LINE",
"247 570 OFFCURVE",
"255 560 OFFCURVE",
"255 548 CURVE SMOOTH",
"255 179 LINE SMOOTH",
"255 59 OFFCURVE",
"229 16 OFFCURVE",
"165 16 CURVE SMOOTH",
"82 16 OFFCURVE",
"60 113 OFFCURVE",
"60 172 CURVE",
"24 172 LINE",
"24 -1 LINE"
);
}
);
width = 451;
},
{
anchors = (
{
name = top;
position = "{286, 598}";
}
);
layerId = "F8700386-2E77-47FF-AAB4-DBF3F3ACCAC4";
paths = (
{
closed = 1;
nodes = (
"31 6 OFFCURVE",
"48 5 OFFCURVE",
"59 5 CURVE SMOOTH",
"86 5 OFFCURVE",
"122 -10 OFFCURVE",
"174 -10 CURVE SMOOTH",
"308 -10 OFFCURVE",
"378 51 OFFCURVE",
"378 179 CURVE SMOOTH",
"378 539 LINE SMOOTH",
"378 550 OFFCURVE",
"385 560 OFFCURVE",
"398 559 CURVE SMOOTH",
"431 557 LINE",
"431 597 LINE",
"137 597 LINE",
"137 557 LINE",
"206 559 LINE",
"217 560 OFFCURVE",
"225 550 OFFCURVE",
"225 538 CURVE SMOOTH",
"225 179 LINE SMOOTH",
"225 66 OFFCURVE",
"203 26 OFFCURVE",
"149 26 CURVE SMOOTH",
"87 26 OFFCURVE",
"70 117 OFFCURVE",
"70 172 CURVE",
"24 172 LINE",
"24 -1 LINE"
);
}
);
width = 461;
}
);
unicode = 004A;
},
{
color = 4;
glyphname = K;
layers = (
{
anchors = (
{
name = bottom;
position = "{309, 0}";
},
{
name = top;
position = "{309, 598}";
}
);
layerId = UUID0;
paths = (
{
closed = 1;
nodes = (
"201 547 LINE",
"201 562 OFFCURVE",
"208 569 OFFCURVE",
"221 569 CURVE SMOOTH",
"270 567 LINE",
"270 597 LINE",
"50 597 LINE",
"50 567 LINE",
"89 569 LINE SMOOTH",
"102 570 OFFCURVE",
"108 560 OFFCURVE",
"108 548 CURVE SMOOTH",
"108 49 LINE SMOOTH",
"108 34 OFFCURVE",
"102 27 OFFCURVE",
"89 27 CURVE SMOOTH",
"50 29 LINE",
"50 0 LINE",
"270 0 LINE",
"270 29 LINE",
"221 27 LINE SMOOTH",
"208 27 OFFCURVE",
"201 34 OFFCURVE",
"201 49 CURVE"
);
},
{
closed = 1;
nodes = (
"250 309 LINE",
"440 52 LINE",
"452 33 OFFCURVE",
"442 26 OFFCURVE",
"425 27 CURVE SMOOTH",
"374 30 LINE",
"374 0 LINE",
"611 0 LINE",
"611 30 LINE",
"605 29 OFFCURVE",
"588 27 OFFCURVE",
"577 27 CURVE SMOOTH",
"568 27 OFFCURVE",
"560 32 OFFCURVE",
"553 41 CURVE SMOOTH",
"306 376 LINE"
);
},
{
closed = 1;
nodes = (
"467 540 LINE SMOOTH",
"490 565 OFFCURVE",
"505 570 OFFCURVE",
"525 569 CURVE SMOOTH",
"559 567 LINE",
"559 597 LINE",
"381 597 LINE",
"381 567 LINE",
"423 569 LINE SMOOTH",
"430 569 OFFCURVE",
"433 566 OFFCURVE",
"433 560 CURVE SMOOTH",
"433 557 OFFCURVE",
"432 552 OFFCURVE",
"416 533 CURVE SMOOTH",
"194 270 LINE",
"194 226 LINE"
);
}
);
width = 617;
},
{
anchors = (
{
name = bottom;
position = "{328, 0}";
},
{
name = top;
position = "{328, 598}";
}
);
layerId = "F8700386-2E77-47FF-AAB4-DBF3F3ACCAC4";
paths = (
{
closed = 1;
nodes = (
"241 537 LINE",
"241 552 OFFCURVE",
"248 559 OFFCURVE",
"261 559 CURVE SMOOTH",
"310 557 LINE",
"310 597 LINE",
"35 597 LINE",
"35 557 LINE",
"69 559 LINE SMOOTH",
"82 560 OFFCURVE",
"88 550 OFFCURVE",
"88 538 CURVE SMOOTH",
"88 59 LINE SMOOTH",
"88 44 OFFCURVE",
"82 36 OFFCURVE",
"69 37 CURVE SMOOTH",
"35 39 LINE",
"35 0 LINE",
"305 0 LINE",
"305 39 LINE",
"261 37 LINE SMOOTH",
"248 36 OFFCURVE",
"241 44 OFFCURVE",
"241 59 CURVE"
);
},
{
closed = 1;
nodes = (
"256 275 LINE",
"394 61 LINE",
"406 42 OFFCURVE",
"396 35 OFFCURVE",
"379 36 CURVE SMOOTH",
"339 39 LINE",
"339 0 LINE",
"640 0 LINE",
"640 39 LINE",
"630 37 OFFCURVE",
"621 36 OFFCURVE",
"611 36 CURVE SMOOTH",
"602 36 OFFCURVE",
"593 41 OFFCURVE",
"587 50 CURVE SMOOTH",
"360 396 LINE"
);
},
{
closed = 1;
nodes = (
"509 530 LINE SMOOTH",
"531 556 OFFCURVE",
"547 560 OFFCURVE",
"567 559 CURVE SMOOTH",
"601 557 LINE",
"601 597 LINE",
"421 597 LINE",
"421 557 LINE",
"455 559 LINE SMOOTH",
"462 559 OFFCURVE",
"465 556 OFFCURVE",
"465 550 CURVE SMOOTH",
"465 547 OFFCURVE",
"464 542 OFFCURVE",
"448 523 CURVE SMOOTH",
"234 270 LINE",
"234 213 LINE"
);
}
);
width = 646;
}
);
unicode = 004B;
},
{
color = 4;
glyphname = L;
layers = (
{
anchors = (
{
name = bottom;
position = "{257, 0}";
},
{
name = top;
position = "{177, 598}";
},
{
name = topright;
position = "{425, 598}";
}
);
layerId = UUID0;
paths = (
{
closed = 1;
nodes = (
"368 0 LINE SMOOTH",
"439 0 OFFCURVE",
"480 -1 OFFCURVE",
"492 -3 CURVE",
"492 171 LINE",
"466 171 LINE",
"466 78 OFFCURVE",
"418 28 OFFCURVE",
"326 28 CURVE SMOOTH",
"213 28 LINE SMOOTH",
"205 28 OFFCURVE",
"201 32 OFFCURVE",
"201 41 CURVE SMOOTH",
"201 548 LINE SMOOTH",
"201 560 OFFCURVE",
"209 570 OFFCURVE",
"221 569 CURVE SMOOTH",
"270 567 LINE",
"270 597 LINE",
"50 597 LINE",
"50 567 LINE",
"89 569 LINE SMOOTH",
"100 570 OFFCURVE",
"108 559 OFFCURVE",
"108 548 CURVE SMOOTH",
"108 49 LINE SMOOTH",
"108 37 OFFCURVE",
"104 27 OFFCURVE",
"93 27 CURVE",
"50 30 LINE",
"50 0 LINE"
);
}
);
width = 514;
},
{
anchors = (
{
name = bottom;
position = "{257, 0}";
},
{
name = top;
position = "{177, 598}";
},
{
name = topright;
position = "{425, 598}";
}
);
layerId = "F8700386-2E77-47FF-AAB4-DBF3F3ACCAC4";
paths = (
{
closed = 1;
nodes = (
"368 0 LINE SMOOTH",
"439 0 OFFCURVE",
"480 -1 OFFCURVE",
"492 -3 CURVE",
"492 171 LINE",
"456 171 LINE",
"456 85 OFFCURVE",
"411 38 OFFCURVE",
"326 38 CURVE SMOOTH",
"253 38 LINE SMOOTH",
"245 38 OFFCURVE",
"241 42 OFFCURVE",
"241 51 CURVE SMOOTH",
"241 538 LINE SMOOTH",
"241 550 OFFCURVE",
"249 560 OFFCURVE",
"261 559 CURVE SMOOTH",
"310 557 LINE",
"310 597 LINE",
"35 597 LINE",
"35 557 LINE",
"69 559 LINE SMOOTH",
"80 560 OFFCURVE",
"88 549 OFFCURVE",
"88 538 CURVE SMOOTH",
"88 59 LINE SMOOTH",
"88 47 OFFCURVE",
"84 37 OFFCURVE",
"73 37 CURVE",
"35 40 LINE",
"35 0 LINE"
);
}
);
width = 514;
}
);
leftMetricsKey = "=H";
rightKerningGroup = L;
unicode = 004C;
},
{
color = 4;
glyphname = Lcaron;
layers = (
{
background = {
paths = (
{
closed = 1;
nodes = (
"404 387 LINE",
"447 407 OFFCURVE",
"488 451 OFFCURVE",
"488 504 CURVE SMOOTH",
"488 536 OFFCURVE",
"466 566 OFFCURVE",
"428 566 CURVE SMOOTH",
"396 566 OFFCURVE",
"380 544 OFFCURVE",
"380 523 CURVE SMOOTH",
"380 506 OFFCURVE",
"392 489 OFFCURVE",
"410 489 CURVE SMOOTH",
"424 489 OFFCURVE",
"438 483 OFFCURVE",
"438 460 CURVE SMOOTH",
"438 442 OFFCURVE",
"415 415 OFFCURVE",
"388 400 CURVE"
);
}
);
};
components = (
{
name = L;
},
{
name = caron.alt;
transform = "{1, 0, 0, 1, 280, 0}";
}
);
layerId = UUID0;
width = 514;
},
{
components = (
{
name = L;
},
{
name = caron.alt;
transform = "{1, 0, 0, 1, 280, 0}";
}
);
layerId = "F8700386-2E77-47FF-AAB4-DBF3F3ACCAC4";
width = 514;
}
);
unicode = 013D;
},
{
color = 4;
glyphname = Lslash;
layers = (
{
components = (
{
name = L;
}
);
guideLines = (
{
angle = 90;
position = "{50, 136}";
},
{
angle = 90;
position = "{299, 136}";
}
);
layerId = UUID0;
paths = (
{
closed = 1;
nodes = (
"50 175 LINE",
"158 265 LINE",
"158 310 LINE",
"50 220 LINE"
);
},
{
closed = 1;
nodes = (
"299 423 LINE",
"158 305 LINE",
"158 260 LINE",
"299 376 LINE"
);
}
);
width = 514;
},
{
components = (
{
name = L;
}
);
layerId = "F8700386-2E77-47FF-AAB4-DBF3F3ACCAC4";
paths = (
{
closed = 1;
nodes = (
"50 165 LINE",
"158 255 LINE",
"158 310 LINE",
"50 220 LINE"
);
},
{
closed = 1;
nodes = (
"349 464 LINE",
"208 346 LINE",
"208 291 LINE",
"349 407 LINE"
);
}
);
width = 514;
}
);
unicode = 0141;
},
{
color = 4;
glyphname = M;
layers = (
{
layerId = UUID0;
paths = (
{
closed = 1;
nodes = (
"104 558 LINE",
"104 49 LINE SMOOTH",
"104 34 OFFCURVE",
"97 27 OFFCURVE",
"84 27 CURVE SMOOTH",
"45 29 LINE",
"45 0 LINE",
"206 0 LINE",
"206 29 LINE",
"157 27 LINE SMOOTH",
"144 27 OFFCURVE",
"138 34 OFFCURVE",
"138 49 CURVE SMOOTH",
"138 536 LINE"
);
},
{
closed = 1;
nodes = (
"444 102 LINE",
"206 597 LINE",
"52 597 LINE",
"52 567 LINE",
"94 569 LINE",
"101 570 OFFCURVE",
"104 568 OFFCURVE",
"104 563 CURVE SMOOTH",
"104 538 LINE",
"134 535 LINE",
"395 -10 LINE"
);
},
{
closed = 1;
nodes = (
"657 531 LINE",
"657 49 LINE SMOOTH",
"657 34 OFFCURVE",
"650 27 OFFCURVE",
"637 27 CURVE SMOOTH",
"588 29 LINE",
"588 0 LINE",
"808 0 LINE",
"808 29 LINE",
"769 27 LINE SMOOTH",
"756 27 OFFCURVE",
"749 34 OFFCURVE",
"749 49 CURVE SMOOTH",
"749 549 LINE SMOOTH",
"749 560 OFFCURVE",
"757 570 OFFCURVE",
"769 569 CURVE SMOOTH",
"803 567 LINE",
"803 597 LINE",
"658 597 LINE"
);
},
{
closed = 1;
nodes = (
"658 597 LINE",
"434 102 LINE",
"395 -10 LINE",
"419 -10 LINE",
"662 530 LINE"
);
}
);
width = 858;
},
{
layerId = "F8700386-2E77-47FF-AAB4-DBF3F3ACCAC4";
paths = (
{
closed = 1;
nodes = (
"89 548 LINE",
"89 59 LINE SMOOTH",
"89 44 OFFCURVE",
"82 37 OFFCURVE",
"69 37 CURVE SMOOTH",
"30 39 LINE",
"30 0 LINE",
"201 0 LINE",
"201 39 LINE",
"152 37 LINE SMOOTH",
"139 37 OFFCURVE",
"133 44 OFFCURVE",
"133 59 CURVE SMOOTH",
"133 536 LINE"
);
},
{
closed = 1;
nodes = (
"470 160 LINE",
"261 597 LINE",
"37 597 LINE",
"37 557 LINE",
"79 559 LINE",
"86 560 OFFCURVE",
"89 558 OFFCURVE",
"89 553 CURVE SMOOTH",
"89 528 LINE",
"129 535 LINE",
"390 -10 LINE"
);
},
{
closed = 1;
nodes = (
"652 531 LINE",
"652 59 LINE SMOOTH",
"652 44 OFFCURVE",
"645 37 OFFCURVE",
"632 37 CURVE SMOOTH",
"583 39 LINE",
"583 0 LINE",
"858 0 LINE",
"858 39 LINE",
"824 37 LINE SMOOTH",
"811 36 OFFCURVE",
"804 44 OFFCURVE",
"804 59 CURVE SMOOTH",
"804 539 LINE SMOOTH",
"804 550 OFFCURVE",
"812 560 OFFCURVE",
"824 559 CURVE SMOOTH",
"853 557 LINE",
"853 597 LINE",
"653 597 LINE"
);
},
{
closed = 1;
nodes = (
"653 597 LINE",
"429 102 LINE",
"390 -10 LINE",
"424 -10 LINE",
"667 530 LINE"
);
}
);
width = 893;
}
);
leftMetricsKey = "=N";
rightMetricsKey = "=H";
unicode = 004D;
},
{
color = 4;
glyphname = N;
layers = (
{
anchors = (
{
name = bottom;
position = "{331, 0}";
},
{
name = top;
position = "{331, 598}";
}
);
background = {
paths = (
{
closed = 1;
nodes = (
"104 558 LINE",
"104 49 LINE SMOOTH",
"104 34 OFFCURVE",
"97 27 OFFCURVE",
"84 27 CURVE SMOOTH",
"45 29 LINE",
"45 0 LINE",
"206 0 LINE",
"206 29 LINE",
"157 27 LINE SMOOTH",
"144 27 OFFCURVE",
"138 34 OFFCURVE",
"138 49 CURVE SMOOTH",
"138 535 LINE"
);
},
{
closed = 1;
nodes = (
"132 533 LINE",
"529 -6 LINE",
"559 -6 LINE",
"559 548 LINE SMOOTH",
"559 562 OFFCURVE",
"565 569 OFFCURVE",
"576 569 CURVE SMOOTH",
"578 569 LINE",
"617 567 LINE",
"617 597 LINE",
"456 597 LINE",
"456 567 LINE",
"505 569 LINE",
"508 569 LINE SMOOTH",
"519 569 OFFCURVE",
"525 562 OFFCURVE",
"525 549 CURVE SMOOTH",
"525 154 LINE",
"200 597 LINE",
"45 597 LINE",
"45 567 LINE",
"84 569 LINE SMOOTH",
"97 570 OFFCURVE",
"104 559 OFFCURVE",
"104 548 CURVE"
);
}
);
};
layerId = UUID0;
paths = (
{
closed = 1;
nodes = (
"104 558 LINE",
"104 49 LINE SMOOTH",
"104 34 OFFCURVE",
"97 27 OFFCURVE",
"84 27 CURVE SMOOTH",
"45 29 LINE",
"45 0 LINE",
"206 0 LINE",
"206 29 LINE",
"157 27 LINE SMOOTH",
"144 27 OFFCURVE",
"138 34 OFFCURVE",
"138 49 CURVE SMOOTH",
"138 535 LINE"
);
},
{
closed = 1;
nodes = (
"532 145 LINE",
"200 597 LINE",
"45 597 LINE",
"45 567 LINE",
"84 569 LINE SMOOTH",
"97 570 OFFCURVE",
"104 559 OFFCURVE",
"104 548 CURVE",
"132 533 LINE",
"529 -6 LINE"
);
},
{
closed = 1;
nodes = (
"529 -6 LINE",
"559 -6 LINE",
"559 548 LINE SMOOTH",
"559 562 OFFCURVE",
"565 569 OFFCURVE",
"576 569 CURVE SMOOTH",
"578 569 LINE",
"617 567 LINE",
"617 597 LINE",
"456 597 LINE",
"456 567 LINE",
"505 569 LINE",
"508 569 LINE SMOOTH",
"519 569 OFFCURVE",
"525 562 OFFCURVE",
"525 549 CURVE SMOOTH",
"525 143 LINE"
);
}
);
width = 662;
},
{
anchors = (
{
name = bottom;
position = "{346, 0}";
},
{
name = top;
position = "{346, 598}";
}
);
layerId = "F8700386-2E77-47FF-AAB4-DBF3F3ACCAC4";
paths = (
{
closed = 1;
nodes = (
"89 558 LINE",
"89 49 LINE SMOOTH",
"89 34 OFFCURVE",
"82 27 OFFCURVE",
"69 27 CURVE SMOOTH",
"30 29 LINE",
"30 0 LINE",
"201 0 LINE",
"201 29 LINE",
"152 27 LINE SMOOTH",
"139 27 OFFCURVE",
"133 34 OFFCURVE",
"133 49 CURVE SMOOTH",
"133 535 LINE"
);
},
{
closed = 1;
nodes = (
"563 175 LINE",
"253 597 LINE",
"30 597 LINE",
"30 567 LINE",
"69 569 LINE SMOOTH",
"82 570 OFFCURVE",
"89 559 OFFCURVE",
"89 548 CURVE",
"127 533 LINE",
"524 -6 LINE"
);
},
{
closed = 1;
nodes = (
"524 -6 LINE",
"594 -6 LINE",
"594 548 LINE SMOOTH",
"594 562 OFFCURVE",
"600 569 OFFCURVE",
"611 569 CURVE SMOOTH",
"613 569 LINE",
"652 567 LINE",
"652 597 LINE",
"481 597 LINE",
"481 567 LINE",
"530 569 LINE",
"533 569 LINE SMOOTH",
"544 569 OFFCURVE",
"550 562 OFFCURVE",
"550 549 CURVE SMOOTH",
"550 183 LINE"
);
}
);
width = 682;
}
);
unicode = 004E;
},
{
color = 4;
glyphname = O;
layers = (
{
anchors = (
{
name = top;
position = "{335, 598}";
}
);
background = {
paths = (
{
closed = 1;
nodes = (
"45 199 OFFCURVE",
"72 126 OFFCURVE",
"111 83 CURVE SMOOTH",
"183 3 OFFCURVE",
"262 -10 OFFCURVE",
"335 -10 CURVE SMOOTH",
"406 -10 OFFCURVE",
"487 3 OFFCURVE",
"559 83 CURVE SMOOTH",
"598 126 OFFCURVE",
"625 199 OFFCURVE",
"625 299 CURVE SMOOTH",
"625 399 OFFCURVE",
"598 472 OFFCURVE",
"559 515 CURVE SMOOTH",
"487 595 OFFCURVE",
"406 607 OFFCURVE",
"335 607 CURVE SMOOTH",
"262 607 OFFCURVE",
"183 595 OFFCURVE",
"111 515 CURVE SMOOTH",
"72 472 OFFCURVE",
"45 399 OFFCURVE",
"45 299 CURVE SMOOTH"
);
},
{
closed = 1;
nodes = (
"147 501 OFFCURVE",
"207 580 OFFCURVE",
"335 580 CURVE SMOOTH",
"463 580 OFFCURVE",
"523 501 OFFCURVE",
"523 299 CURVE SMOOTH",
"523 96 OFFCURVE",
"463 17 OFFCURVE",
"335 17 CURVE SMOOTH",
"207 17 OFFCURVE",
"147 96 OFFCURVE",
"147 299 CURVE SMOOTH"
);
}
);
};
layerId = UUID0;
paths = (
{
closed = 1;
nodes = (
"45 103 OFFCURVE",
"152 -10 OFFCURVE",
"335 -10 CURVE SMOOTH",
"518 -10 OFFCURVE",
"625 103 OFFCURVE",
"625 299 CURVE SMOOTH",
"625 493 OFFCURVE",
"522 607 OFFCURVE",
"335 607 CURVE SMOOTH",
"154 607 OFFCURVE",
"45 499 OFFCURVE",
"45 299 CURVE SMOOTH"
);
},
{
closed = 1;
nodes = (
"147 501 OFFCURVE",
"207 580 OFFCURVE",
"335 580 CURVE SMOOTH",
"463 580 OFFCURVE",
"523 501 OFFCURVE",
"523 299 CURVE SMOOTH",
"523 96 OFFCURVE",
"463 17 OFFCURVE",
"335 17 CURVE SMOOTH",
"207 17 OFFCURVE",
"147 96 OFFCURVE",
"147 299 CURVE SMOOTH"
);
}
);
width = 670;
},
{
anchors = (
{
name = top;
position = "{340, 598}";
}
);
layerId = "F8700386-2E77-47FF-AAB4-DBF3F3ACCAC4";
paths = (
{
closed = 1;
nodes = (
"25 103 OFFCURVE",
"140 -10 OFFCURVE",
"340 -10 CURVE SMOOTH",
"540 -10 OFFCURVE",
"655 103 OFFCURVE",
"655 299 CURVE SMOOTH",
"655 493 OFFCURVE",
"544 607 OFFCURVE",
"340 607 CURVE SMOOTH",
"142 607 OFFCURVE",
"25 499 OFFCURVE",
"25 299 CURVE SMOOTH"
);
},
{
closed = 1;
nodes = (
"192 513 OFFCURVE",
"240 570 OFFCURVE",
"340 570 CURVE SMOOTH",
"440 570 OFFCURVE",
"488 513 OFFCURVE",
"488 299 CURVE SMOOTH",
"488 84 OFFCURVE",
"440 27 OFFCURVE",
"340 27 CURVE SMOOTH",
"240 27 OFFCURVE",
"192 84 OFFCURVE",
"192 299 CURVE SMOOTH"
);
}
);
width = 680;
}
);
leftKerningGroup = O;
rightKerningGroup = O;
unicode = 004F;
},
{
color = 4;
glyphname = Oslash;
layers = (
{
anchors = (
{
name = top;
position = "{332, 598}";
}
);
background = {
paths = (
{
closed = 1;
nodes = (
"89 -75 LINE",
"126 -92 LINE",
"572 665 LINE",
"535 685 LINE"
);
}
);
};
components = (
{
name = O;
}
);
layerId = UUID0;
paths = (
{
closed = 1;
nodes = (
"572 665 LINE",
"535 685 LINE",
"89 -75 LINE",
"126 -92 LINE"
);
}
);
width = 664;
},
{
anchors = (
{
name = top;
position = "{332, 598}";
}
);
components = (
{
name = O;
}
);
layerId = "F8700386-2E77-47FF-AAB4-DBF3F3ACCAC4";
paths = (
{
closed = 1;
nodes = (
"577 661 LINE",
"530 690 LINE",
"84 -70 LINE",
"131 -96 LINE"
);
}
);
width = 680;
}
);
unicode = 00D8;
},
{
color = 4;
glyphname = OE;
layers = (
{
anchors = (
{
name = top;
position = "{433, 598}";
}
);
layerId = UUID0;
paths = (
{
closed = 1;
nodes = (
"45 97 OFFCURVE",
"150 -10 OFFCURVE",
"339 -10 CURVE SMOOTH",
"342 -10 OFFCURVE",
"407 0 OFFCURVE",
"479 0 CURVE SMOOTH",
"729 0 LINE SMOOTH",
"772 0 OFFCURVE",
"801 -1 OFFCURVE",
"817 -3 CURVE",
"817 179 LINE",
"790 179 LINE",
"790 82 OFFCURVE",
"742 27 OFFCURVE",
"650 27 CURVE SMOOTH",
"535 27 LINE SMOOTH",
"526 27 OFFCURVE",
"522 31 OFFCURVE",
"522 40 CURVE SMOOTH",
"522 297 LINE",
"598 297 LINE SMOOTH",
"639 297 OFFCURVE",
"675 255 OFFCURVE",
"675 195 CURVE",
"702 195 LINE",
"702 426 LINE",
"675 426 LINE",
"675 362 OFFCURVE",
"641 324 OFFCURVE",
"598 324 CURVE SMOOTH",
"522 324 LINE",
"522 555 LINE SMOOTH",
"522 564 OFFCURVE",
"526 569 OFFCURVE",
"535 569 CURVE SMOOTH",
"629 569 LINE SMOOTH",
"728 569 OFFCURVE",
"771 534 OFFCURVE",
"771 443 CURVE",
"798 443 LINE",
"798 597 LINE",
"471 597 LINE SMOOTH",
"424 597 OFFCURVE",
"395 607 OFFCURVE",
"342 607 CURVE SMOOTH",
"137 607 OFFCURVE",
"45 493 OFFCURVE",
"45 292 CURVE SMOOTH"
);
},
{
closed = 1;
nodes = (
"142 496 OFFCURVE",
"199 581 OFFCURVE",
"335 581 CURVE SMOOTH",
"390 581 OFFCURVE",
"434 557 OFFCURVE",
"434 526 CURVE SMOOTH",
"434 90 LINE SMOOTH",
"434 56 OFFCURVE",
"415 18 OFFCURVE",
"335 18 CURVE SMOOTH",
"198 18 OFFCURVE",
"142 99 OFFCURVE",
"142 296 CURVE SMOOTH"
);
}
);
width = 861;
},
{
anchors = (
{
name = top;
position = "{433, 598}";
}
);
layerId = "F8700386-2E77-47FF-AAB4-DBF3F3ACCAC4";
paths = (
{
closed = 1;
nodes = (
"25 107 OFFCURVE",
"138 -10 OFFCURVE",
"339 -10 CURVE SMOOTH",
"342 -10 OFFCURVE",
"407 0 OFFCURVE",
"479 0 CURVE SMOOTH",
"778 0 LINE SMOOTH",
"826 0 OFFCURVE",
"858 -1 OFFCURVE",
"876 -3 CURVE",
"876 179 LINE",
"839 179 LINE",
"839 89 OFFCURVE",
"792 38 OFFCURVE",
"699 38 CURVE SMOOTH",
"601 38 LINE SMOOTH",
"592 38 OFFCURVE",
"588 42 OFFCURVE",
"588 51 CURVE SMOOTH",
"588 287 LINE",
"651 287 LINE SMOOTH",
"692 287 OFFCURVE",
"728 245 OFFCURVE",
"728 190 CURVE",
"765 190 LINE",
"765 426 LINE",
"728 426 LINE",
"728 363 OFFCURVE",
"697 325 OFFCURVE",
"651 325 CURVE SMOOTH",
"588 325 LINE",
"588 545 LINE SMOOTH",
"588 554 OFFCURVE",
"592 559 OFFCURVE",
"601 559 CURVE SMOOTH",
"667 559 LINE SMOOTH",
"766 559 OFFCURVE",
"809 527 OFFCURVE",
"809 443 CURVE",
"846 443 LINE",
"846 597 LINE",
"471 597 LINE SMOOTH",
"424 597 OFFCURVE",
"395 607 OFFCURVE",
"342 607 CURVE SMOOTH",
"123 607 OFFCURVE",
"25 483 OFFCURVE",
"25 292 CURVE SMOOTH"
);
},
{
closed = 1;
nodes = (
"192 499 OFFCURVE",
"234 571 OFFCURVE",
"335 571 CURVE SMOOTH",
"390 571 OFFCURVE",
"434 551 OFFCURVE",
"434 526 CURVE SMOOTH",
"434 90 LINE SMOOTH",
"434 61 OFFCURVE",
"415 28 OFFCURVE",
"335 28 CURVE SMOOTH",
"233 28 OFFCURVE",
"192 96 OFFCURVE",
"192 296 CURVE SMOOTH"
);
}
);
width = 920;
}
);
leftKerningGroup = O;
leftMetricsKey = "=O";
rightMetricsKey = "=E";
unicode = 0152;
},
{
color = 4;
glyphname = P;
layers = (
{
layerId = UUID0;
paths = (
{
closed = 1;
nodes = (
"270 0 LINE",
"270 29 LINE",
"221 27 LINE SMOOTH",
"208 27 OFFCURVE",
"201 34 OFFCURVE",
"201 49 CURVE SMOOTH",
"201 263 LINE",
"306 263 LINE SMOOTH",
"419 263 OFFCURVE",
"488 332 OFFCURVE",
"488 436 CURVE SMOOTH",
"488 544 OFFCURVE",
"425 597 OFFCURVE",
"285 597 CURVE SMOOTH",
"50 597 LINE",
"50 567 LINE",
"85 569 LINE SMOOTH",
"104 570 OFFCURVE",
"108 562 OFFCURVE",
"108 547 CURVE SMOOTH",
"108 49 LINE SMOOTH",
"108 34 OFFCURVE",
"102 27 OFFCURVE",
"89 27 CURVE SMOOTH",
"50 29 LINE",
"50 0 LINE"
);
},
{
closed = 1;
nodes = (
"201 557 LINE SMOOTH",
"201 564 OFFCURVE",
"208 569 OFFCURVE",
"213 569 CURVE SMOOTH",
"269 569 LINE SMOOTH",
"345 569 OFFCURVE",
"392 515 OFFCURVE",
"392 436 CURVE SMOOTH",
"392 352 OFFCURVE",
"346 291 OFFCURVE",
"285 291 CURVE SMOOTH",
"201 291 LINE"
);
}
);
width = 523;
},
{
layerId = "F8700386-2E77-47FF-AAB4-DBF3F3ACCAC4";
paths = (
{
closed = 1;
nodes = (
"310 0 LINE",
"310 39 LINE",
"261 37 LINE",
"248 37 OFFCURVE",
"241 44 OFFCURVE",
"241 59 CURVE SMOOTH",
"241 243 LINE",
"336 243 LINE SMOOTH",
"458 243 OFFCURVE",
"535 316 OFFCURVE",
"535 426 CURVE SMOOTH",
"535 541 OFFCURVE",
"463 597 OFFCURVE",
"307 597 CURVE SMOOTH",
"35 597 LINE",
"35 557 LINE",
"65 559 LINE SMOOTH",
"84 560 OFFCURVE",
"88 552 OFFCURVE",
"88 537 CURVE SMOOTH",
"88 59 LINE SMOOTH",
"88 44 OFFCURVE",
"82 36 OFFCURVE",
"69 37 CURVE SMOOTH",
"35 39 LINE",
"35 0 LINE"
);
},
{
closed = 1;
nodes = (
"241 547 LINE SMOOTH",
"241 554 OFFCURVE",
"248 559 OFFCURVE",
"253 559 CURVE SMOOTH",
"288 559 LINE SMOOTH",
"340 559 OFFCURVE",
"374 505 OFFCURVE",
"374 426 CURVE SMOOTH",
"374 342 OFFCURVE",
"336 281 OFFCURVE",
"286 281 CURVE SMOOTH",
"241 281 LINE"
);
}
);
width = 555;
}
);
unicode = 0050;
},
{
color = 4;
glyphname = Thorn;
layers = (
{
layerId = UUID0;
paths = (
{
closed = 1;
nodes = (
"270 0 LINE",
"270 29 LINE",
"221 27 LINE SMOOTH",
"206 26 OFFCURVE",
"201 36 OFFCURVE",
"201 49 CURVE SMOOTH",
"201 162 LINE",
"304 162 LINE SMOOTH",
"421 162 OFFCURVE",
"489 230 OFFCURVE",
"489 334 CURVE SMOOTH",
"489 446 OFFCURVE",
"424 496 OFFCURVE",
"283 496 CURVE SMOOTH",
"201 496 LINE",
"201 548 LINE SMOOTH",
"201 559 OFFCURVE",
"209 569 OFFCURVE",
"221 569 CURVE SMOOTH",
"270 567 LINE",
"270 597 LINE",
"50 597 LINE",
"50 567 LINE",
"89 569 LINE SMOOTH",
"102 569 OFFCURVE",
"108 559 OFFCURVE",
"108 548 CURVE SMOOTH",
"108 49 LINE SMOOTH",
"108 36 OFFCURVE",
"102 26 OFFCURVE",
"89 27 CURVE SMOOTH",
"50 29 LINE",
"50 0 LINE"
);
},
{
closed = 1;
nodes = (
"201 471 LINE",
"267 471 LINE SMOOTH",
"346 471 OFFCURVE",
"393 415 OFFCURVE",
"393 334 CURVE SMOOTH",
"393 252 OFFCURVE",
"342 188 OFFCURVE",
"283 188 CURVE SMOOTH",
"214 188 LINE SMOOTH",
"207 188 OFFCURVE",
"201 194 OFFCURVE",
"201 201 CURVE SMOOTH"
);
}
);
width = 524;
},
{
layerId = "F8700386-2E77-47FF-AAB4-DBF3F3ACCAC4";
paths = (
{
closed = 1;
nodes = (
"310 0 LINE",
"310 29 LINE",
"261 27 LINE SMOOTH",
"246 26 OFFCURVE",
"241 36 OFFCURVE",
"241 49 CURVE SMOOTH",
"241 162 LINE",
"334 162 LINE SMOOTH",
"457 162 OFFCURVE",
"529 220 OFFCURVE",
"529 334 CURVE SMOOTH",
"529 456 OFFCURVE",
"461 496 OFFCURVE",
"313 496 CURVE SMOOTH",
"241 496 LINE",
"241 548 LINE SMOOTH",
"241 559 OFFCURVE",
"249 569 OFFCURVE",
"261 569 CURVE SMOOTH",
"310 567 LINE",
"310 597 LINE",
"35 597 LINE",
"35 567 LINE",
"69 569 LINE SMOOTH",
"82 570 OFFCURVE",
"88 559 OFFCURVE",
"88 548 CURVE SMOOTH",
"88 49 LINE SMOOTH",
"88 36 OFFCURVE",
"82 26 OFFCURVE",
"69 27 CURVE SMOOTH",
"35 29 LINE",
"35 0 LINE"
);
},
{
closed = 1;
nodes = (
"241 471 LINE",
"277 471 LINE SMOOTH",
"338 471 OFFCURVE",
"373 425 OFFCURVE",
"373 334 CURVE SMOOTH",
"373 242 OFFCURVE",
"337 188 OFFCURVE",
"293 188 CURVE SMOOTH",
"254 188 LINE SMOOTH",
"247 188 OFFCURVE",
"241 194 OFFCURVE",
"241 201 CURVE SMOOTH"
);
}
);
width = 549;
}
);
leftMetricsKey = "=H";
rightMetricsKey = "=P";
unicode = 00DE;
},
{
color = 4;
glyphname = Q;
layers = (
{
components = (
{
name = O;
}
);
layerId = UUID0;
paths = (
{
closed = 1;
nodes = (
"284 3 LINE",
"277 -113 OFFCURVE",
"388 -196 OFFCURVE",
"541 -196 CURVE",
"554 -166 LINE",
"448 -166 OFFCURVE",
"379 -92 OFFCURVE",
"385 5 CURVE"
);
}
);
width = 670;
},
{
components = (
{
name = O;
}
);
layerId = "F8700386-2E77-47FF-AAB4-DBF3F3ACCAC4";
paths = (
{
closed = 1;
nodes = (
"254 3 LINE",
"247 -113 OFFCURVE",
"360 -196 OFFCURVE",
"541 -196 CURVE",
"550 -158 LINE",
"462 -158 OFFCURVE",
"409 -88 OFFCURVE",
"415 5 CURVE"
);
}
);
width = 668;
}
);
leftKerningGroup = O;
rightKerningGroup = O;
unicode = 0051;
},
{
color = 4;
glyphname = R;
layers = (
{
anchors = (
{
name = bottom;
position = "{291, 0}";
},
{
name = top;
position = "{291, 598}";
}
);
layerId = UUID0;
paths = (
{
closed = 1;
nodes = (
"270 0 LINE",
"270 29 LINE",
"221 27 LINE SMOOTH",
"208 27 OFFCURVE",
"201 34 OFFCURVE",
"201 49 CURVE SMOOTH",
"201 286 LINE",
"243 286 LINE SMOOTH",
"326 286 OFFCURVE",
"410 245 OFFCURVE",
"410 137 CURVE SMOOTH",
"410 104 LINE SMOOTH",
"410 92 OFFCURVE",
"411 79 OFFCURVE",
"412 66 CURVE SMOOTH",
"413 39 OFFCURVE",
"418 16 OFFCURVE",
"426 0 CURVE",
"562 0 LINE",
"562 30 LINE",
"554 25 OFFCURVE",
"537 25 OFFCURVE",
"529 28 CURVE",
"509 31 OFFCURVE",
"500 89 OFFCURVE",
"500 122 CURVE SMOOTH",
"500 235 OFFCURVE",
"423 297 OFFCURVE",
"364 297 CURVE",
"436 316 OFFCURVE",
"486 369 OFFCURVE",
"486 438 CURVE SMOOTH",
"486 550 OFFCURVE",
"423 597 OFFCURVE",
"275 597 CURVE SMOOTH",
"50 597 LINE",
"50 567 LINE",
"86 569 LINE SMOOTH",
"102 570 OFFCURVE",
"108 559 OFFCURVE",
"108 548 CURVE SMOOTH",
"108 49 LINE SMOOTH",
"108 34 OFFCURVE",
"102 27 OFFCURVE",
"89 27 CURVE SMOOTH",
"50 29 LINE",
"50 0 LINE"
);
},
{
closed = 1;
nodes = (
"201 559 LINE SMOOTH",
"201 566 OFFCURVE",
"205 569 OFFCURVE",
"213 569 CURVE SMOOTH",
"275 569 LINE SMOOTH",
"355 569 OFFCURVE",
"392 530 OFFCURVE",
"392 438 CURVE SMOOTH",
"392 358 OFFCURVE",
"354 313 OFFCURVE",
"294 313 CURVE SMOOTH",
"201 313 LINE"
);
}
);
width = 581;
},
{
anchors = (
{
name = bottom;
position = "{291, 0}";
},
{
name = top;
position = "{291, 598}";
}
);
layerId = "F8700386-2E77-47FF-AAB4-DBF3F3ACCAC4";
paths = (
{
closed = 1;
nodes = (
"310 0 LINE",
"310 39 LINE",
"261 37 LINE SMOOTH",
"248 37 OFFCURVE",
"241 44 OFFCURVE",
"241 59 CURVE SMOOTH",
"241 266 LINE",
"263 266 LINE SMOOTH",
"321 266 OFFCURVE",
"380 231 OFFCURVE",
"380 137 CURVE SMOOTH",
"380 104 LINE SMOOTH",
"380 92 OFFCURVE",
"381 79 OFFCURVE",
"382 66 CURVE SMOOTH",
"383 39 OFFCURVE",
"388 16 OFFCURVE",
"396 0 CURVE",
"587 0 LINE",
"587 30 LINE",
"579 25 OFFCURVE",
"567 25 OFFCURVE",
"559 28 CURVE SMOOTH",
"542 34 OFFCURVE",
"530 89 OFFCURVE",
"530 122 CURVE SMOOTH",
"530 229 OFFCURVE",
"435 287 OFFCURVE",
"364 287 CURVE",
"458 307 OFFCURVE",
"516 364 OFFCURVE",
"516 450 CURVE SMOOTH",
"516 550 OFFCURVE",
"447 597 OFFCURVE",
"306 597 CURVE SMOOTH",
"35 597 LINE",
"35 557 LINE",
"66 559 LINE SMOOTH",
"82 560 OFFCURVE",
"88 549 OFFCURVE",
"88 538 CURVE SMOOTH",
"88 59 LINE SMOOTH",
"88 44 OFFCURVE",
"82 36 OFFCURVE",
"69 37 CURVE SMOOTH",
"35 39 LINE",
"35 0 LINE"
);
},
{
closed = 1;
nodes = (
"241 549 LINE SMOOTH",
"241 556 OFFCURVE",
"245 559 OFFCURVE",
"253 559 CURVE SMOOTH",
"275 559 LINE SMOOTH",
"336 559 OFFCURVE",
"367 523 OFFCURVE",
"367 433 CURVE SMOOTH",
"367 352 OFFCURVE",
"337 303 OFFCURVE",
"294 303 CURVE SMOOTH",
"241 303 LINE"
);
}
);
width = 602;
}
);
leftMetricsKey = "=H";
unicode = 0052;
},
{
color = 4;
glyphname = S;
layers = (
{
anchors = (
{
name = bottom;
position = "{247, 0}";
},
{
name = top;
position = "{247, 598}";
}
);
background = {
paths = (
{
closed = 1;
nodes = (
"563 295 LINE",
"537 307 LINE",
"523 270 LINE SMOOTH",
"518 258 OFFCURVE",
"509 254 OFFCURVE",
"495 260 CURVE SMOOTH",
"36 455 LINE SMOOTH",
"25 460 OFFCURVE",
"19 471 OFFCURVE",
"24 482 CURVE SMOOTH",
"42 517 LINE",
"14 529 LINE",
"-68 335 LINE",
"-41 324 LINE",
"-27 360 LINE SMOOTH",
"-23 373 OFFCURVE",
"-11 374 OFFCURVE",
"0 370 CURVE SMOOTH",
"459 174 LINE SMOOTH",
"473 169 OFFCURVE",
"477 160 OFFCURVE",
"472 148 CURVE SMOOTH",
"455 113 LINE",
"481 102 LINE"
);
}
);
};
layerId = UUID0;
paths = (
{
closed = 1;
nodes = (
"53 187 OFFCURVE",
"56 145 OFFCURVE",
"56 96 CURVE SMOOTH",
"56 57 OFFCURVE",
"55 29 OFFCURVE",
"52 13 CURVE",
"53 14 OFFCURVE",
"78 18 OFFCURVE",
"86 18 CURVE SMOOTH",
"105 18 OFFCURVE",
"126 14 OFFCURVE",
"165 3 CURVE SMOOTH",
"202 -8 OFFCURVE",
"231 -10 OFFCURVE",
"268 -10 CURVE SMOOTH",
"370 -10 OFFCURVE",
"457 62 OFFCURVE",
"457 168 CURVE SMOOTH",
"457 247 OFFCURVE",
"417 292 OFFCURVE",
"316 333 CURVE SMOOTH",
"224 370 LINE SMOOTH",
"171 391 OFFCURVE",
"138 427 OFFCURVE",
"138 472 CURVE SMOOTH",
"138 541 OFFCURVE",
"186 580 OFFCURVE",
"254 580 CURVE SMOOTH",
"338 580 OFFCURVE",
"403 522 OFFCURVE",
"403 434 CURVE",
"429 434 LINE",
"424 449 OFFCURVE",
"423 461 OFFCURVE",
"423 501 CURVE SMOOTH",
"423 535 OFFCURVE",
"424 560 OFFCURVE",
"426 576 CURVE",
"418 573 OFFCURVE",
"408 572 OFFCURVE",
"397 572 CURVE SMOOTH",
"390 572 OFFCURVE",
"381 574 OFFCURVE",
"370 578 CURVE SMOOTH",
"321 595 OFFCURVE",
"293 607 OFFCURVE",
"241 607 CURVE SMOOTH",
"118 607 OFFCURVE",
"56 529 OFFCURVE",
"56 441 CURVE SMOOTH",
"56 374 OFFCURVE",
"94 324 OFFCURVE",
"166 295 CURVE SMOOTH",
"268 254 LINE SMOOTH",
"327 231 OFFCURVE",
"367 191 OFFCURVE",
"367 138 CURVE SMOOTH",
"366 66 OFFCURVE",
"324 18 OFFCURVE",
"257 18 CURVE SMOOTH",
"148 18 OFFCURVE",
"88 82 OFFCURVE",
"73 203 CURVE",
"48 203 LINE"
);
}
);
width = 494;
},
{
anchors = (
{
name = bottom;
position = "{252, 0}";
},
{
name = top;
position = "{252, 598}";
}
);
layerId = "F8700386-2E77-47FF-AAB4-DBF3F3ACCAC4";
paths = (
{
closed = 1;
nodes = (
"43 200 OFFCURVE",
"46 137 OFFCURVE",
"46 88 CURVE SMOOTH",
"46 60 OFFCURVE",
"45 29 OFFCURVE",
"42 13 CURVE",
"44 14 OFFCURVE",
"66 18 OFFCURVE",
"82 18 CURVE SMOOTH",
"97 18 OFFCURVE",
"117 14 OFFCURVE",
"160 3 CURVE SMOOTH",
"199 -7 OFFCURVE",
"222 -10 OFFCURVE",
"252 -10 CURVE SMOOTH",
"410 -10 OFFCURVE",
"479 81 OFFCURVE",
"479 187 CURVE SMOOTH",
"479 275 OFFCURVE",
"433 319 OFFCURVE",
"333 364 CURVE SMOOTH",
"251 399 LINE SMOOTH",
"187 425 OFFCURVE",
"165 452 OFFCURVE",
"165 486 CURVE SMOOTH",
"165 536 OFFCURVE",
"211 570 OFFCURVE",
"273 570 CURVE SMOOTH",
"351 570 OFFCURVE",
"418 516 OFFCURVE",
"418 434 CURVE",
"454 434 LINE",
"449 449 OFFCURVE",
"448 462 OFFCURVE",
"448 499 CURVE SMOOTH",
"448 536 OFFCURVE",
"449 560 OFFCURVE",
"451 576 CURVE",
"443 573 OFFCURVE",
"432 572 OFFCURVE",
"423 572 CURVE SMOOTH",
"412 572 OFFCURVE",
"404 574 OFFCURVE",
"393 578 CURVE",
"340 595 OFFCURVE",
"311 607 OFFCURVE",
"256 607 CURVE SMOOTH",
"113 607 OFFCURVE",
"45 522 OFFCURVE",
"45 427 CURVE SMOOTH",
"45 354 OFFCURVE",
"84 301 OFFCURVE",
"160 269 CURVE SMOOTH",
"257 229 LINE SMOOTH",
"324 203 OFFCURVE",
"351 170 OFFCURVE",
"351 124 CURVE SMOOTH",
"351 69 OFFCURVE",
"311 28 OFFCURVE",
"241 28 CURVE SMOOTH",
"159 28 OFFCURVE",
"87 84 OFFCURVE",
"73 203 CURVE",
"38 199 LINE"
);
}
);
width = 499;
}
);
unicode = 0053;
},
{
color = 4;
glyphname = T;
layers = (
{
anchors = (
{
name = bottom;
position = "{265, 0}";
},
{
name = center;
position = "{265, 299}";
},
{
name = top;
position = "{265, 598}";
}
);
layerId = UUID0;
paths = (
{
closed = 1;
nodes = (
"41 444 LINE",
"41 529 OFFCURVE",
"76 570 OFFCURVE",
"165 570 CURVE SMOOTH",
"206 570 LINE SMOOTH",
"214 570 OFFCURVE",
"218 566 OFFCURVE",
"218 558 CURVE SMOOTH",
"218 52 LINE SMOOTH",
"218 39 OFFCURVE",
"211 27 OFFCURVE",
"199 27 CURVE SMOOTH",
"145 29 LINE",
"145 0 LINE",
"384 0 LINE",
"384 29 LINE",
"331 27 LINE SMOOTH",
"318 27 OFFCURVE",
"311 34 OFFCURVE",
"311 49 CURVE SMOOTH",
"311 559 LINE",
"312 566 OFFCURVE",
"316 570 OFFCURVE",
"323 570 CURVE SMOOTH",
"365 570 LINE SMOOTH",
"454 570 OFFCURVE",
"488 529 OFFCURVE",
"488 444 CURVE",
"514 444 LINE",
"514 600 LINE",
"510 599 OFFCURVE",
"497 598 OFFCURVE",
"474 598 CURVE SMOOTH",
"397 598 LINE",
"133 598 LINE",
"55 598 LINE SMOOTH",
"36 598 OFFCURVE",
"22 599 OFFCURVE",
"15 600 CURVE",
"15 444 LINE"
);
}
);
width = 529;
},
{
anchors = (
{
name = bottom;
position = "{275, 0}";
},
{
name = center;
position = "{275, 299}";
},
{
name = top;
position = "{275, 598}";
}
);
layerId = "F8700386-2E77-47FF-AAB4-DBF3F3ACCAC4";
paths = (
{
closed = 1;
nodes = (
"51 444 LINE",
"51 522 OFFCURVE",
"86 560 OFFCURVE",
"175 560 CURVE SMOOTH",
"186 560 LINE SMOOTH",
"194 560 OFFCURVE",
"198 556 OFFCURVE",
"198 548 CURVE SMOOTH",
"198 62 LINE SMOOTH",
"198 49 OFFCURVE",
"191 37 OFFCURVE",
"179 37 CURVE SMOOTH",
"125 39 LINE",
"125 0 LINE",
"424 0 LINE",
"424 39 LINE",
"371 37 LINE SMOOTH",
"358 37 OFFCURVE",
"351 44 OFFCURVE",
"351 59 CURVE SMOOTH",
"351 549 LINE",
"352 556 OFFCURVE",
"356 560 OFFCURVE",
"363 560 CURVE SMOOTH",
"375 560 LINE SMOOTH",
"464 560 OFFCURVE",
"498 522 OFFCURVE",
"498 444 CURVE",
"534 444 LINE",
"534 600 LINE",
"529 599 OFFCURVE",
"513 598 OFFCURVE",
"484 598 CURVE SMOOTH",
"407 598 LINE",
"143 598 LINE",
"65 598 LINE SMOOTH",
"41 598 OFFCURVE",
"24 599 OFFCURVE",
"15 600 CURVE",
"15 444 LINE"
);
}
);
width = 549;
}
);
leftKerningGroup = T;
rightKerningGroup = T;
unicode = 0054;
},
{
color = 4;
glyphname = U;
layers = (
{
anchors = (
{
name = ogonek;
position = "{455, 14}";
},
{
name = top;
position = "{336, 598}";
}
);
layerId = UUID0;
paths = (
{
closed = 1;
nodes = (
"73 569 LINE SMOOTH",
"84 570 OFFCURVE",
"92 559 OFFCURVE",
"92 548 CURVE SMOOTH",
"92 199 LINE SMOOTH",
"92 62 OFFCURVE",
"183 -10 OFFCURVE",
"344 -10 CURVE SMOOTH",
"473 -10 OFFCURVE",
"567 74 OFFCURVE",
"567 189 CURVE SMOOTH",
"567 549 LINE SMOOTH",
"567 561 OFFCURVE",
"575 570 OFFCURVE",
"587 569 CURVE SMOOTH",
"626 567 LINE",
"626 597 LINE",
"465 597 LINE",
"465 567 LINE",
"514 569 LINE SMOOTH",
"525 570 OFFCURVE",
"532 561 OFFCURVE",
"532 548 CURVE SMOOTH",
"532 198 LINE SMOOTH",
"532 97 OFFCURVE",
"460 21 OFFCURVE",
"362 21 CURVE SMOOTH",
"250 21 OFFCURVE",
"185 87 OFFCURVE",
"185 199 CURVE SMOOTH",
"185 549 LINE SMOOTH",
"185 561 OFFCURVE",
"193 570 OFFCURVE",
"205 569 CURVE SMOOTH",
"254 567 LINE",
"254 597 LINE",
"35 597 LINE",
"35 567 LINE"
);
}
);
width = 651;
},
{
anchors = (
{
name = ogonek;
position = "{483, 14}";
},
{
name = top;
position = "{346, 598}";
}
);
background = {
paths = (
{
closed = 1;
nodes = (
"601 -10 OFFCURVE",
"577 183 OFFCURVE",
"577 263 CURVE",
"532 263 LINE",
"532 179 OFFCURVE",
"549 34 OFFCURVE",
"389 34 CURVE",
"363 -10 LINE"
);
}
);
};
layerId = "F8700386-2E77-47FF-AAB4-DBF3F3ACCAC4";
paths = (
{
closed = 1;
nodes = (
"73 559 LINE",
"84 560 OFFCURVE",
"92 549 OFFCURVE",
"92 538 CURVE SMOOTH",
"92 199 LINE SMOOTH",
"92 52 OFFCURVE",
"187 -10 OFFCURVE",
"363 -10 CURVE SMOOTH",
"520 -10 OFFCURVE",
"577 73 OFFCURVE",
"577 208 CURVE SMOOTH",
"577 539 LINE SMOOTH",
"577 551 OFFCURVE",
"585 560 OFFCURVE",
"597 559 CURVE SMOOTH",
"636 557 LINE",
"636 597 LINE",
"465 597 LINE",
"465 557 LINE",
"514 559 LINE",
"525 560 OFFCURVE",
"532 551 OFFCURVE",
"532 538 CURVE SMOOTH",
"532 204 LINE SMOOTH",
"532 105 OFFCURVE",
"501 34 OFFCURVE",
"391 34 CURVE SMOOTH",
"299 34 OFFCURVE",
"245 82 OFFCURVE",
"245 199 CURVE SMOOTH",
"245 539 LINE SMOOTH",
"245 551 OFFCURVE",
"253 560 OFFCURVE",
"265 559 CURVE",
"314 557 LINE",
"314 597 LINE",
"35 597 LINE",
"35 557 LINE"
);
}
);
width = 661;
}
);
leftKerningGroup = U;
rightKerningGroup = U;
unicode = 0055;
},
{
color = 4;
glyphname = V;
layers = (
{
layerId = UUID0;
paths = (
{
closed = 1;
nodes = (
"23 569 LINE SMOOTH",
"32 569 OFFCURVE",
"39 561 OFFCURVE",
"46 546 CURVE SMOOTH",
"283 -4 LINE",
"309 -4 LINE",
"547 546 LINE SMOOTH",
"554 562 OFFCURVE",
"557 570 OFFCURVE",
"568 569 CURVE SMOOTH",
"604 567 LINE",
"604 597 LINE",
"447 597 LINE",
"447 567 LINE",
"498 569 LINE SMOOTH",
"513 569 OFFCURVE",
"513 557 OFFCURVE",
"503 534 CURVE SMOOTH",
"321 111 LINE",
"337 111 LINE",
"148 545 LINE SMOOTH",
"144 556 OFFCURVE",
"148 569 OFFCURVE",
"157 569 CURVE SMOOTH",
"210 567 LINE",
"210 597 LINE",
"-5 597 LINE",
"-5 567 LINE"
);
}
);
width = 584;
},
{
layerId = "F8700386-2E77-47FF-AAB4-DBF3F3ACCAC4";
paths = (
{
closed = 1;
nodes = (
"27 559 LINE SMOOTH",
"36 559 OFFCURVE",
"43 551 OFFCURVE",
"50 536 CURVE SMOOTH",
"283 -4 LINE",
"344 -4 LINE",
"578 536 LINE SMOOTH",
"585 552 OFFCURVE",
"588 560 OFFCURVE",
"599 559 CURVE SMOOTH",
"635 557 LINE",
"635 597 LINE",
"472 597 LINE",
"472 557 LINE",
"519 559 LINE SMOOTH",
"534 560 OFFCURVE",
"535 549 OFFCURVE",
"524 524 CURVE SMOOTH",
"352 127 LINE",
"388 127 LINE",
"210 535 LINE SMOOTH",
"206 546 OFFCURVE",
"210 559 OFFCURVE",
"219 559 CURVE SMOOTH",
"268 557 LINE",
"268 597 LINE",
"-1 597 LINE",
"-1 557 LINE"
);
}
);
width = 615;
}
);
leftKerningGroup = V;
rightKerningGroup = V;
unicode = 0056;
},
{
color = 4;
glyphname = W;
layers = (
{
anchors = (
{
name = top;
position = "{462, 598}";
}
);
layerId = UUID0;
paths = (
{
closed = 1;
nodes = (
"434 538 LINE",
"652 -10 LINE",
"668 -10 LINE",
"849 548 LINE SMOOTH",
"852 557 OFFCURVE",
"861 570 OFFCURVE",
"874 569 CURVE SMOOTH",
"904 567 LINE",
"904 597 LINE",
"751 597 LINE",
"751 567 LINE",
"803 569 LINE SMOOTH",
"814 570 OFFCURVE",
"818 560 OFFCURVE",
"814 549 CURVE SMOOTH",
"679 126 LINE",
"691 126 LINE",
"521 547 LINE SMOOTH",
"518 555 OFFCURVE",
"520 569 OFFCURVE",
"531 569 CURVE SMOOTH",
"573 567 LINE",
"573 597 LINE",
"365 597 LINE",
"365 567 LINE",
"406 569 LINE SMOOTH",
"418 570 OFFCURVE",
"423 566 OFFCURVE",
"431 547 CURVE"
);
},
{
closed = 1;
nodes = (
"429 564 LINE",
"292 139 LINE",
"303 139 LINE",
"148 547 LINE SMOOTH",
"146 553 OFFCURVE",
"145 557 OFFCURVE",
"145 558 CURVE SMOOTH",
"145 567 OFFCURVE",
"149 569 OFFCURVE",
"158 569 CURVE SMOOTH",
"211 567 LINE",
"211 597 LINE",
"-5 597 LINE",
"-5 567 LINE",
"25 569 LINE SMOOTH",
"34 569 OFFCURVE",
"41 562 OFFCURVE",
"46 547 CURVE SMOOTH",
"257 -10 LINE",
"276 -10 LINE",
"460 553 LINE"
);
}
);
width = 884;
},
{
anchors = (
{
name = top;
position = "{489, 598}";
}
);
layerId = "F8700386-2E77-47FF-AAB4-DBF3F3ACCAC4";
paths = (
{
closed = 1;
nodes = (
"457 481 LINE",
"642 -10 LINE",
"698 -10 LINE",
"885 538 LINE SMOOTH",
"888 547 OFFCURVE",
"897 560 OFFCURVE",
"910 559 CURVE SMOOTH",
"940 557 LINE",
"940 597 LINE",
"778 597 LINE",
"777 557 LINE",
"829 559 LINE SMOOTH",
"840 560 OFFCURVE",
"844 550 OFFCURVE",
"840 539 CURVE SMOOTH",
"704 143 LINE",
"719 143 LINE",
"579 537 LINE SMOOTH",
"576 545 OFFCURVE",
"578 559 OFFCURVE",
"589 559 CURVE SMOOTH",
"631 557 LINE",
"631 597 LINE",
"371 597 LINE",
"371 557 LINE",
"412 559 LINE SMOOTH",
"427 560 OFFCURVE",
"432 544 OFFCURVE",
"439 526 CURVE SMOOTH"
);
},
{
closed = 1;
nodes = (
"458 560 LINE",
"323 174 LINE",
"335 174 LINE",
"206 537 LINE SMOOTH",
"204 543 OFFCURVE",
"203 547 OFFCURVE",
"203 548 CURVE SMOOTH",
"203 557 OFFCURVE",
"207 559 OFFCURVE",
"216 559 CURVE SMOOTH",
"266 557 LINE",
"266 597 LINE",
"-2 597 LINE",
"-2 557 LINE",
"28 559 LINE SMOOTH",
"37 559 OFFCURVE",
"44 552 OFFCURVE",
"49 537 CURVE SMOOTH",
"247 -10 LINE",
"306 -10 LINE",
"500 553 LINE"
);
}
);
width = 920;
}
);
leftKerningGroup = V;
rightKerningGroup = V;
unicode = 0057;
},
{
color = 4;
glyphname = X;
layers = (
{
layerId = UUID0;
paths = (
{
closed = 1;
nodes = (
"326 351 LINE",
"211 548 LINE",
"204 557 OFFCURVE",
"208 570 OFFCURVE",
"225 569 CURVE SMOOTH",
"267 567 LINE",
"267 597 LINE",
"39 597 LINE",
"39 567 LINE",
"71 569 LINE SMOOTH",
"82 569 OFFCURVE",
"95 565 OFFCURVE",
"103 550 CURVE",
"260 287 LINE"
);
},
{
closed = 1;
nodes = (
"334 319 LINE",
"478 549 LINE",
"487 562 OFFCURVE",
"497 569 OFFCURVE",
"509 569 CURVE SMOOTH",
"540 567 LINE",
"540 597 LINE",
"388 597 LINE",
"388 567 LINE",
"431 569 LINE SMOOTH",
"446 570 OFFCURVE",
"446 560 OFFCURVE",
"439 549 CURVE SMOOTH",
"314 352 LINE",
"260 305 LINE",
"100 50 LINE SMOOTH",
"91 35 OFFCURVE",
"80 28 OFFCURVE",
"66 28 CURVE SMOOTH",
"30 30 LINE",
"30 0 LINE",
"189 0 LINE",
"189 30 LINE",
"144 27 LINE SMOOTH",
"136 26 OFFCURVE",
"131 35 OFFCURVE",
"138 47 CURVE SMOOTH",
"279 272 LINE"
);
},
{
closed = 1;
nodes = (
"267 272 LINE",
"399 50 LINE",
"407 39 OFFCURVE",
"407 26 OFFCURVE",
"392 27 CURVE SMOOTH",
"343 30 LINE",
"343 0 LINE",
"578 0 LINE",
"578 30 LINE",
"539 27 LINE SMOOTH",
"524 26 OFFCURVE",
"514 35 OFFCURVE",
"509 44 CURVE SMOOTH",
"334 337 LINE"
);
}
);
width = 566;
},
{
layerId = "F8700386-2E77-47FF-AAB4-DBF3F3ACCAC4";
paths = (
{
closed = 1;
nodes = (
"363 351 LINE",
"257 538 LINE SMOOTH",
"251 548 OFFCURVE",
"254 560 OFFCURVE",
"271 559 CURVE SMOOTH",
"313 557 LINE",
"313 597 LINE",
"30 597 LINE",
"30 557 LINE",
"52 559 LINE SMOOTH",
"63 560 OFFCURVE",
"75 555 OFFCURVE",
"84 540 CURVE SMOOTH",
"235 287 LINE"
);
},
{
closed = 1;
nodes = (
"364 319 LINE",
"502 539 LINE SMOOTH",
"510 552 OFFCURVE",
"521 559 OFFCURVE",
"533 559 CURVE SMOOTH",
"569 557 LINE",
"569 597 LINE",
"402 597 LINE",
"402 557 LINE",
"445 559 LINE SMOOTH",
"460 560 OFFCURVE",
"460 550 OFFCURVE",
"453 539 CURVE SMOOTH",
"334 352 LINE",
"240 305 LINE",
"86 60 LINE SMOOTH",
"77 45 OFFCURVE",
"66 38 OFFCURVE",
"52 38 CURVE SMOOTH",
"16 40 LINE",
"16 0 LINE",
"185 0 LINE",
"185 40 LINE",
"140 37 LINE SMOOTH",
"132 36 OFFCURVE",
"127 45 OFFCURVE",
"134 57 CURVE SMOOTH",
"269 272 LINE"
);
},
{
closed = 1;
nodes = (
"237 272 LINE",
"364 59 LINE SMOOTH",
"371 47 OFFCURVE",
"372 35 OFFCURVE",
"357 36 CURVE SMOOTH",
"308 39 LINE",
"308 0 LINE",
"598 0 LINE",
"598 39 LINE",
"569 36 LINE SMOOTH",
"554 34 OFFCURVE",
"544 44 OFFCURVE",
"539 53 CURVE SMOOTH",
"369 337 LINE"
);
}
);
width = 591;
}
);
unicode = 0058;
},
{
color = 4;
glyphname = Y;
layers = (
{
anchors = (
{
name = top;
position = "{264, 598}";
}
);
layerId = UUID0;
paths = (
{
closed = 1;
nodes = (
"298 309 LINE",
"156 545 LINE SMOOTH",
"149 556 OFFCURVE",
"148 570 OFFCURVE",
"163 569 CURVE SMOOTH",
"216 567 LINE",
"216 597 LINE",
"-5 597 LINE",
"-5 567 LINE",
"23 569 OFFCURVE",
"23 569 OFFCURVE",
"23 569 CURVE",
"32 569 OFFCURVE",
"40 563 OFFCURVE",
"47 550 CURVE SMOOTH",
"220 263 LINE",
"220 49 LINE SMOOTH",
"220 34 OFFCURVE",
"214 27 OFFCURVE",
"201 27 CURVE SMOOTH",
"152 29 LINE",
"152 0 LINE",
"381 0 LINE",
"381 29 LINE",
"333 27 LINE SMOOTH",
"318 27 OFFCURVE",
"313 36 OFFCURVE",
"313 48 CURVE SMOOTH",
"313 309 LINE"
);
},
{
closed = 1;
nodes = (
"309 280 LINE",
"459 548 LINE SMOOTH",
"467 562 OFFCURVE",
"476 569 OFFCURVE",
"487 569 CURVE SMOOTH",
"487 569 OFFCURVE",
"487 569 OFFCURVE",
"517 567 CURVE",
"517 597 LINE",
"365 597 LINE",
"365 567 LINE",
"417 569 LINE SMOOTH",
"429 569 OFFCURVE",
"428 557 OFFCURVE",
"424 549 CURVE SMOOTH",
"289 309 LINE"
);
}
);
width = 507;
},
{
anchors = (
{
name = top;
position = "{319, 598}";
}
);
layerId = "F8700386-2E77-47FF-AAB4-DBF3F3ACCAC4";
paths = (
{
closed = 1;
nodes = (
"363 309 LINE",
"227 535 LINE SMOOTH",
"220 546 OFFCURVE",
"219 560 OFFCURVE",
"234 559 CURVE SMOOTH",
"287 557 LINE",
"287 597 LINE",
"1 597 LINE",
"1 557 LINE",
"29 559 OFFCURVE",
"29 559 OFFCURVE",
"29 559 CURVE",
"38 559 OFFCURVE",
"45 553 OFFCURVE",
"53 540 CURVE SMOOTH",
"225 254 LINE",
"225 59 LINE SMOOTH",
"225 44 OFFCURVE",
"219 37 OFFCURVE",
"206 37 CURVE SMOOTH",
"157 39 LINE",
"157 0 LINE",
"446 0 LINE",
"446 39 LINE",
"398 37 LINE SMOOTH",
"383 37 OFFCURVE",
"378 46 OFFCURVE",
"378 58 CURVE SMOOTH",
"378 309 LINE"
);
},
{
closed = 1;
nodes = (
"376 266 LINE",
"528 538 LINE SMOOTH",
"536 552 OFFCURVE",
"545 559 OFFCURVE",
"556 559 CURVE SMOOTH",
"556 559 OFFCURVE",
"556 559 OFFCURVE",
"586 557 CURVE",
"586 597 LINE",
"424 597 LINE",
"424 557 LINE",
"476 559 LINE SMOOTH",
"488 559 OFFCURVE",
"487 547 OFFCURVE",
"483 539 CURVE SMOOTH",
"354 309 LINE"
);
}
);
width = 576;
}
);
leftKerningGroup = Y;
rightKerningGroup = Y;
unicode = 0059;
},
{
color = 4;
glyphname = Z;
layers = (
{
anchors = (
{
name = top;
position = "{256, 598}";
}
);
layerId = UUID0;
paths = (
{
closed = 1;
nodes = (
"371 0 LINE SMOOTH",
"438 0 OFFCURVE",
"475 -1 OFFCURVE",
"484 -4 CURVE",
"492 167 LINE",
"465 167 LINE",
"465 79 OFFCURVE",
"406 27 OFFCURVE",
"315 27 CURVE SMOOTH",
"117 27 LINE",
"133 14 LINE",
"464 573 LINE",
"464 597 LINE",
"144 597 LINE",
"103 597 OFFCURVE",
"71 600 OFFCURVE",
"35 600 CURVE",
"35 443 LINE",
"62 443 LINE",
"62 530 OFFCURVE",
"108 569 OFFCURVE",
"203 569 CURVE SMOOTH",
"373 569 LINE",
"363 583 LINE",
"34 27 LINE",
"34 0 LINE"
);
}
);
width = 512;
},
{
anchors = (
{
name = top;
position = "{302, 598}";
}
);
layerId = "F8700386-2E77-47FF-AAB4-DBF3F3ACCAC4";
paths = (
{
closed = 1;
nodes = (
"417 0 LINE SMOOTH",
"484 0 OFFCURVE",
"521 -1 OFFCURVE",
"530 -4 CURVE",
"538 167 LINE",
"501 167 LINE",
"501 85 OFFCURVE",
"442 37 OFFCURVE",
"351 37 CURVE SMOOTH",
"171 37 LINE",
"204 7 LINE",
"535 573 LINE",
"535 597 LINE",
"170 597 LINE",
"126 597 OFFCURVE",
"80 600 OFFCURVE",
"61 600 CURVE",
"61 443 LINE",
"98 443 LINE",
"98 523 OFFCURVE",
"144 559 OFFCURVE",
"239 559 CURVE SMOOTH",
"400 559 LINE",
"367 590 LINE",
"30 27 LINE",
"30 0 LINE"
);
}
);
width = 558;
}
);
unicode = 005A;
},
{
color = 4;
glyphname = a;
layers = (
{
anchors = (
{
name = ogonek;
position = "{405, 10}";
},
{
name = top;
position = "{225, 420}";
}
);
background = {
paths = (
{
closed = 1;
nodes = (
"406 343 OFFCURVE",
"327 430 OFFCURVE",
"210 430 CURVE SMOOTH",
"127 430 OFFCURVE",
"55 386 OFFCURVE",
"55 328 CURVE SMOOTH",
"55 304 OFFCURVE",
"67 278 OFFCURVE",
"103 278 CURVE SMOOTH",
"124 278 OFFCURVE",
"138 287 OFFCURVE",
"138 308 CURVE SMOOTH",
"138 324 OFFCURVE",
"129 333 OFFCURVE",
"129 351 CURVE SMOOTH",
"129 387 OFFCURVE",
"168 403 OFFCURVE",
"207 403 CURVE SMOOTH",
"271 403 OFFCURVE",
"313 361 OFFCURVE",
"313 217 CURVE SMOOTH",
"313 82 OFFCURVE",
"276 17 OFFCURVE",
"200 17 CURVE SMOOTH",
"137 17 OFFCURVE",
"76 53 OFFCURVE",
"59 124 CURVE",
"35 106 LINE",
"58 36 OFFCURVE",
"116 -10 OFFCURVE",
"205 -10 CURVE SMOOTH",
"331 -10 OFFCURVE",
"406 72 OFFCURVE",
"406 206 CURVE SMOOTH"
);
}
);
};
layerId = UUID0;
paths = (
{
closed = 1;
nodes = (
"113 430 OFFCURVE",
"51 391 OFFCURVE",
"51 336 CURVE SMOOTH",
"51 309 OFFCURVE",
"66 289 OFFCURVE",
"95 289 CURVE SMOOTH",
"117 289 OFFCURVE",
"134 300 OFFCURVE",
"134 323 CURVE SMOOTH",
"134 340 OFFCURVE",
"125 345 OFFCURVE",
"125 361 CURVE SMOOTH",
"125 382 OFFCURVE",
"140 403 OFFCURVE",
"201 403 CURVE SMOOTH",
"266 403 OFFCURVE",
"294 379 OFFCURVE",
"294 316 CURVE SMOOTH",
"294 90 LINE",
"295 87 LINE",
"292 37 LINE",
"292 32 OFFCURVE",
"289 5 OFFCURVE",
"288 0 CURVE",
"430 0 LINE",
"430 26 LINE",
"393 24 LINE",
"384 24 OFFCURVE",
"380 30 OFFCURVE",
"380 43 CURVE SMOOTH",
"380 289 LINE SMOOTH",
"380 385 OFFCURVE",
"321 430 OFFCURVE",
"213 430 CURVE SMOOTH"
);
},
{
closed = 1;
nodes = (
"112 260 OFFCURVE",
"27 212 OFFCURVE",
"27 108 CURVE SMOOTH",
"27 32 OFFCURVE",
"72 -5 OFFCURVE",
"155 -5 CURVE SMOOTH",
"221 -5 OFFCURVE",
"269 19 OFFCURVE",
"300 88 CURVE",
"294 187 LINE",
"299 96 OFFCURVE",
"249 31 OFFCURVE",
"185 31 CURVE SMOOTH",
"143 31 OFFCURVE",
"118 59 OFFCURVE",
"118 116 CURVE SMOOTH",
"118 198 OFFCURVE",
"171 233 OFFCURVE",
"305 231 CURVE",
"305 258 LINE"
);
}
);
width = 450;
},
{
anchors = (
{
name = ogonek;
position = "{406, 10}";
},
{
name = top;
position = "{226, 427}";
}
);
background = {
paths = (
{
closed = 1;
nodes = (
"287 187 LINE",
"292 96 OFFCURVE",
"242 31 OFFCURVE",
"178 31 CURVE SMOOTH",
"136 31 OFFCURVE",
"111 59 OFFCURVE",
"111 116 CURVE SMOOTH",
"111 198 OFFCURVE",
"164 233 OFFCURVE",
"298 231 CURVE",
"298 258 LINE",
"105 260 OFFCURVE",
"20 212 OFFCURVE",
"20 108 CURVE SMOOTH",
"20 32 OFFCURVE",
"65 -5 OFFCURVE",
"148 -5 CURVE SMOOTH",
"214 -5 OFFCURVE",
"262 19 OFFCURVE",
"293 88 CURVE"
);
},
{
closed = 1;
nodes = (
"288 87 LINE",
"285 37 LINE",
"285 32 OFFCURVE",
"282 5 OFFCURVE",
"281 0 CURVE",
"423 0 LINE",
"423 26 LINE",
"386 24 LINE",
"377 24 OFFCURVE",
"373 30 OFFCURVE",
"373 43 CURVE SMOOTH",
"373 289 LINE SMOOTH",
"373 385 OFFCURVE",
"314 430 OFFCURVE",
"206 430 CURVE SMOOTH",
"106 430 OFFCURVE",
"44 391 OFFCURVE",
"44 336 CURVE SMOOTH",
"44 309 OFFCURVE",
"59 289 OFFCURVE",
"88 289 CURVE SMOOTH",
"110 289 OFFCURVE",
"127 300 OFFCURVE",
"127 323 CURVE SMOOTH",
"127 340 OFFCURVE",
"118 345 OFFCURVE",
"118 361 CURVE SMOOTH",
"118 382 OFFCURVE",
"133 403 OFFCURVE",
"194 403 CURVE SMOOTH",
"259 403 OFFCURVE",
"287 379 OFFCURVE",
"287 316 CURVE SMOOTH",
"287 90 LINE"
);
}
);
};
layerId = "F8700386-2E77-47FF-AAB4-DBF3F3ACCAC4";
paths = (
{
closed = 1;
nodes = (
"108 437 OFFCURVE",
"35 392 OFFCURVE",
"35 327 CURVE SMOOTH",
"35 291 OFFCURVE",
"63 265 OFFCURVE",
"104 265 CURVE SMOOTH",
"137 265 OFFCURVE",
"165 283 OFFCURVE",
"165 315 CURVE SMOOTH",
"165 331 OFFCURVE",
"156 340 OFFCURVE",
"156 359 CURVE SMOOTH",
"156 376 OFFCURVE",
"168 400 OFFCURVE",
"216 400 CURVE SMOOTH",
"274 400 OFFCURVE",
"274 356 OFFCURVE",
"274 323 CURVE SMOOTH",
"274 90 LINE",
"275 87 LINE",
"273 37 LINE",
"273 31 OFFCURVE",
"270 6 OFFCURVE",
"269 0 CURVE",
"465 0 LINE",
"465 36 LINE",
"433 34 LINE",
"424 34 OFFCURVE",
"420 40 OFFCURVE",
"420 53 CURVE SMOOTH",
"420 306 LINE SMOOTH",
"420 400 OFFCURVE",
"349 437 OFFCURVE",
"227 437 CURVE SMOOTH"
);
},
{
closed = 1;
nodes = (
"93 250 OFFCURVE",
"8 205 OFFCURVE",
"8 108 CURVE SMOOTH",
"8 32 OFFCURVE",
"53 -5 OFFCURVE",
"136 -5 CURVE SMOOTH",
"202 -5 OFFCURVE",
"255 19 OFFCURVE",
"286 83 CURVE",
"275 187 LINE",
"280 114 OFFCURVE",
"246 61 OFFCURVE",
"202 61 CURVE SMOOTH",
"175 61 OFFCURVE",
"159 79 OFFCURVE",
"159 121 CURVE SMOOTH",
"159 180 OFFCURVE",
"195 214 OFFCURVE",
"286 211 CURVE",
"286 248 LINE"
);
}
);
width = 473;
}
);
leftKerningGroup = a;
rightKerningGroup = n;
rightMetricsKey = "=n";
unicode = 0061;
},
{
color = 4;
glyphname = aacute;
layers = (
{
background = {
paths = (
{
closed = 1;
nodes = (
"27 32 OFFCURVE",
"71 -5 OFFCURVE",
"159 -5 CURVE SMOOTH",
"218 -5 OFFCURVE",
"265 19 OFFCURVE",
"294 76 CURVE",
"292 37 LINE SMOOTH",
"291 24 OFFCURVE",
"290 12 OFFCURVE",
"288 0 CURVE",
"430 0 LINE",
"430 26 LINE",
"393 24 LINE SMOOTH",
"384 24 OFFCURVE",
"380 30 OFFCURVE",
"380 43 CURVE SMOOTH",
"380 289 LINE SMOOTH",
"380 388 OFFCURVE",
"321 430 OFFCURVE",
"206 430 CURVE SMOOTH",
"97 430 OFFCURVE",
"49 391 OFFCURVE",
"49 339 CURVE SMOOTH",
"49 308 OFFCURVE",
"64 290 OFFCURVE",
"93 290 CURVE SMOOTH",
"121 290 OFFCURVE",
"141 302 OFFCURVE",
"141 321 CURVE SMOOTH",
"141 340 OFFCURVE",
"131 342 OFFCURVE",
"131 359 CURVE SMOOTH",
"131 384 OFFCURVE",
"147 403 OFFCURVE",
"206 403 CURVE SMOOTH",
"266 403 OFFCURVE",
"294 377 OFFCURVE",
"294 316 CURVE SMOOTH",
"294 258 LINE",
"107 258 OFFCURVE",
"27 210 OFFCURVE",
"27 105 CURVE SMOOTH"
);
},
{
closed = 1;
nodes = (
"118 196 OFFCURVE",
"165 231 OFFCURVE",
"294 231 CURVE",
"294 173 LINE SMOOTH",
"294 89 OFFCURVE",
"246 31 OFFCURVE",
"186 31 CURVE SMOOTH",
"143 31 OFFCURVE",
"118 61 OFFCURVE",
"118 112 CURVE SMOOTH"
);
},
{
closed = 1;
nodes = (
"130 506 OFFCURVE",
"134 503 OFFCURVE",
"143 503 CURVE SMOOTH",
"148 503 OFFCURVE",
"151 504 OFFCURVE",
"153 506 CURVE SMOOTH",
"329 627 LINE SMOOTH",
"333 630 OFFCURVE",
"335 634 OFFCURVE",
"335 639 CURVE SMOOTH",
"335 652 OFFCURVE",
"323 652 OFFCURVE",
"278 663 CURVE",
"267 663 OFFCURVE",
"264 664 OFFCURVE",
"241 637 CURVE",
"135 520 LINE SMOOTH",
"132 517 OFFCURVE",
"130 514 OFFCURVE",
"130 511 CURVE SMOOTH"
);
}
);
};
components = (
{
name = a;
},
{
name = acute;
transform = "{1, 0, 0, 1, 121, 0}";
}
);
layerId = UUID0;
width = 450;
},
{
components = (
{
name = a;
},
{
name = acute;
transform = "{1, 0, 0, 1, 122, 7}";
}
);
layerId = "F8700386-2E77-47FF-AAB4-DBF3F3ACCAC4";
width = 473;
}
);
leftKerningGroup = a;
rightKerningGroup = n;
unicode = 00E1;
},
{
color = 4;
glyphname = aring;
layers = (
{
background = {
paths = (
{
closed = 1;
nodes = (
"27 32 OFFCURVE",
"71 -5 OFFCURVE",
"159 -5 CURVE SMOOTH",
"218 -5 OFFCURVE",
"265 19 OFFCURVE",
"294 76 CURVE",
"292 37 LINE SMOOTH",
"291 24 OFFCURVE",
"290 12 OFFCURVE",
"288 0 CURVE",
"430 0 LINE",
"430 26 LINE",
"393 24 LINE SMOOTH",
"384 24 OFFCURVE",
"380 30 OFFCURVE",
"380 43 CURVE SMOOTH",
"380 289 LINE SMOOTH",
"380 388 OFFCURVE",
"321 430 OFFCURVE",
"206 430 CURVE SMOOTH",
"97 430 OFFCURVE",
"49 391 OFFCURVE",
"49 339 CURVE SMOOTH",
"49 308 OFFCURVE",
"64 290 OFFCURVE",
"93 290 CURVE SMOOTH",
"121 290 OFFCURVE",
"141 302 OFFCURVE",
"141 321 CURVE SMOOTH",
"141 340 OFFCURVE",
"131 342 OFFCURVE",
"131 359 CURVE SMOOTH",
"131 384 OFFCURVE",
"147 403 OFFCURVE",
"206 403 CURVE SMOOTH",
"266 403 OFFCURVE",
"294 377 OFFCURVE",
"294 316 CURVE SMOOTH",
"294 258 LINE",
"107 258 OFFCURVE",
"27 210 OFFCURVE",
"27 105 CURVE SMOOTH"
);
},
{
closed = 1;
nodes = (
"118 196 OFFCURVE",
"165 231 OFFCURVE",
"294 231 CURVE",
"294 173 LINE SMOOTH",
"294 89 OFFCURVE",
"246 31 OFFCURVE",
"186 31 CURVE SMOOTH",
"143 31 OFFCURVE",
"118 61 OFFCURVE",
"118 112 CURVE SMOOTH"
);
},
{
closed = 1;
nodes = (
"129 514 OFFCURVE",
"165 479 OFFCURVE",
"212 479 CURVE SMOOTH",
"259 479 OFFCURVE",
"296 514 OFFCURVE",
"296 561 CURVE SMOOTH",
"296 608 OFFCURVE",
"259 642 OFFCURVE",
"212 642 CURVE SMOOTH",
"167 642 OFFCURVE",
"129 606 OFFCURVE",
"129 561 CURVE SMOOTH"
);
},
{
closed = 1;
nodes = (
"171 584 OFFCURVE",
"189 606 OFFCURVE",
"212 606 CURVE SMOOTH",
"235 606 OFFCURVE",
"254 584 OFFCURVE",
"254 561 CURVE SMOOTH",
"254 538 OFFCURVE",
"235 515 OFFCURVE",
"212 515 CURVE SMOOTH",
"189 515 OFFCURVE",
"171 538 OFFCURVE",
"171 561 CURVE SMOOTH"
);
}
);
};
components = (
{
name = a;
},
{
name = ring;
transform = "{1, 0, 0, 1, 106, 0}";
}
);
layerId = UUID0;
width = 450;
},
{
components = (
{
name = a;
},
{
name = ring;
transform = "{1, 0, 0, 1, 107, 7}";
}
);
layerId = "F8700386-2E77-47FF-AAB4-DBF3F3ACCAC4";
width = 473;
}
);
leftKerningGroup = a;
rightKerningGroup = n;
unicode = 00E5;
},
{
color = 4;
glyphname = atilde;
layers = (
{
background = {
paths = (
{
closed = 1;
nodes = (
"27 32 OFFCURVE",
"71 -5 OFFCURVE",
"159 -5 CURVE SMOOTH",
"218 -5 OFFCURVE",
"265 19 OFFCURVE",
"294 76 CURVE",
"292 37 LINE SMOOTH",
"291 24 OFFCURVE",
"290 12 OFFCURVE",
"288 0 CURVE",
"430 0 LINE",
"430 26 LINE",
"393 24 LINE SMOOTH",
"384 24 OFFCURVE",
"380 30 OFFCURVE",
"380 43 CURVE SMOOTH",
"380 289 LINE SMOOTH",
"380 388 OFFCURVE",
"321 430 OFFCURVE",
"206 430 CURVE SMOOTH",
"97 430 OFFCURVE",
"49 391 OFFCURVE",
"49 339 CURVE SMOOTH",
"49 308 OFFCURVE",
"64 290 OFFCURVE",
"93 290 CURVE SMOOTH",
"121 290 OFFCURVE",
"141 302 OFFCURVE",
"141 321 CURVE SMOOTH",
"141 340 OFFCURVE",
"131 342 OFFCURVE",
"131 359 CURVE SMOOTH",
"131 384 OFFCURVE",
"147 403 OFFCURVE",
"206 403 CURVE SMOOTH",
"266 403 OFFCURVE",
"294 377 OFFCURVE",
"294 316 CURVE SMOOTH",
"294 258 LINE",
"107 258 OFFCURVE",
"27 210 OFFCURVE",
"27 105 CURVE SMOOTH"
);
},
{
closed = 1;
nodes = (
"118 196 OFFCURVE",
"165 231 OFFCURVE",
"294 231 CURVE",
"294 173 LINE SMOOTH",
"294 89 OFFCURVE",
"246 31 OFFCURVE",
"186 31 CURVE SMOOTH",
"143 31 OFFCURVE",
"118 61 OFFCURVE",
"118 112 CURVE SMOOTH"
);
},
{
closed = 1;
nodes = (
"102 525 LINE",
"102 549 OFFCURVE",
"116 567 OFFCURVE",
"135 567 CURVE SMOOTH",
"175 567 OFFCURVE",
"260 524 OFFCURVE",
"304 524 CURVE SMOOTH",
"341 524 OFFCURVE",
"368 566 OFFCURVE",
"368 615 CURVE",
"348 615 LINE",
"348 591 OFFCURVE",
"334 573 OFFCURVE",
"315 573 CURVE SMOOTH",
"276 573 OFFCURVE",
"189 616 OFFCURVE",
"146 616 CURVE SMOOTH",
"109 616 OFFCURVE",
"82 574 OFFCURVE",
"82 525 CURVE"
);
}
);
};
components = (
{
name = a;
},
{
name = tilde;
transform = "{1, 0, 0, 1, 47, 0}";
}
);
layerId = UUID0;
width = 450;
},
{
components = (
{
name = a;
},
{
name = tilde;
transform = "{1, 0, 0, 1, 48, 7}";
}
);
layerId = "F8700386-2E77-47FF-AAB4-DBF3F3ACCAC4";
width = 473;
}
);
leftKerningGroup = a;
rightKerningGroup = n;
unicode = 00E3;
},
{
color = 4;
glyphname = ae;
layers = (
{
anchors = (
{
name = top;
position = "{352, 420}";
}
);
background = {
paths = (
{
closed = 1;
nodes = (
"374 335 LINE",
"358 400 OFFCURVE",
"302 430 OFFCURVE",
"213 430 CURVE SMOOTH",
"113 430 OFFCURVE",
"51 391 OFFCURVE",
"51 336 CURVE SMOOTH",
"51 309 OFFCURVE",
"66 289 OFFCURVE",
"95 289 CURVE SMOOTH",
"117 289 OFFCURVE",
"134 300 OFFCURVE",
"134 323 CURVE SMOOTH",
"134 340 OFFCURVE",
"125 345 OFFCURVE",
"125 361 CURVE SMOOTH",
"125 382 OFFCURVE",
"140 403 OFFCURVE",
"201 403 CURVE SMOOTH",
"266 403 OFFCURVE",
"294 379 OFFCURVE",
"294 316 CURVE SMOOTH",
"294 292 LINE"
);
}
);
};
layerId = UUID0;
paths = (
{
closed = 1;
nodes = (
"436.473 430 OFFCURVE",
"390.681 416.206 OFFCURVE",
"351.865 380.794 CURVE",
"324.698 414.233 OFFCURVE",
"277.521 430 OFFCURVE",
"213 430 CURVE SMOOTH",
"113 430 OFFCURVE",
"51 391 OFFCURVE",
"51 336 CURVE SMOOTH",
"51 309 OFFCURVE",
"66 289 OFFCURVE",
"95 289 CURVE SMOOTH",
"117 289 OFFCURVE",
"134 300 OFFCURVE",
"134 323 CURVE SMOOTH",
"134 340 OFFCURVE",
"125 345 OFFCURVE",
"125 361 CURVE SMOOTH",
"125 382 OFFCURVE",
"140 403 OFFCURVE",
"201 403 CURVE SMOOTH",
"266 403 OFFCURVE",
"294 379 OFFCURVE",
"294 316 CURVE SMOOTH",
"294 242 LINE",
"115 242 OFFCURVE",
"27 208 OFFCURVE",
"27 98 CURVE SMOOTH",
"27 26 OFFCURVE",
"89 -5 OFFCURVE",
"172 -5 CURVE SMOOTH",
"244 -5 OFFCURVE",
"286 26 OFFCURVE",
"318 87 CURVE",
"347 27 OFFCURVE",
"401 -10 OFFCURVE",
"508 -10 CURVE SMOOTH",
"579 -10 OFFCURVE",
"645 28 OFFCURVE",
"674 92 CURVE",
"650 110 LINE",
"626 61 OFFCURVE",
"566 23 OFFCURVE",
"514 23 CURVE SMOOTH",
"426 23 OFFCURVE",
"381 100 OFFCURVE",
"381 217 CURVE",
"675 217 LINE",
"675 354 OFFCURVE",
"617 430 OFFCURVE",
"500 430 CURVE SMOOTH"
);
},
{
closed = 1;
nodes = (
"294 177 LINE SMOOTH",
"294 89 OFFCURVE",
"244 28 OFFCURVE",
"191 28 CURVE SMOOTH",
"150 28 OFFCURVE",
"118 46 OFFCURVE",
"118 93 CURVE SMOOTH",
"118 174 OFFCURVE",
"169 217 OFFCURVE",
"294 217 CURVE"
);
},
{
closed = 1;
nodes = (
"570 403 OFFCURVE",
"590 342 OFFCURVE",
"590 270 CURVE SMOOTH",
"590 258 OFFCURVE",
"588 242 OFFCURVE",
"580 242 CURVE SMOOTH",
"381 242 LINE",
"381 350 OFFCURVE",
"417 403 OFFCURVE",
"501 403 CURVE SMOOTH"
);
}
);
width = 710;
},
{
anchors = (
{
name = top;
position = "{361, 427}";
}
);
layerId = "F8700386-2E77-47FF-AAB4-DBF3F3ACCAC4";
paths = (
{
closed = 1;
nodes = (
"443.543 437 OFFCURVE",
"398.546 428.652 OFFCURVE",
"362.595 410.711 CURVE",
"329.898 428.917 OFFCURVE",
"284.019 437 OFFCURVE",
"227 437 CURVE SMOOTH",
"108 437 OFFCURVE",
"35 392 OFFCURVE",
"35 327 CURVE SMOOTH",
"35 291 OFFCURVE",
"63 265 OFFCURVE",
"104 265 CURVE SMOOTH",
"137 265 OFFCURVE",
"165 283 OFFCURVE",
"165 315 CURVE SMOOTH",
"165 331 OFFCURVE",
"156 340 OFFCURVE",
"156 359 CURVE SMOOTH",
"156 376 OFFCURVE",
"168 400 OFFCURVE",
"216 400 CURVE SMOOTH",
"274 400 OFFCURVE",
"274 356 OFFCURVE",
"274 323 CURVE SMOOTH",
"274 242.068 LINE",
"89.472 242.215 OFFCURVE",
"8 200.029 OFFCURVE",
"8 108 CURVE SMOOTH",
"8 32 OFFCURVE",
"53 -5 OFFCURVE",
"136 -5 CURVE SMOOTH",
"202.926 -5 OFFCURVE",
"259.219 17.085 OFFCURVE",
"295.261 73.831 CURVE",
"331.141 16.804 OFFCURVE",
"398.201 -10 OFFCURVE",
"501 -10 CURVE SMOOTH",
"603 -10 OFFCURVE",
"671 28 OFFCURVE",
"703 93 CURVE",
"675 112 LINE",
"656 74 OFFCURVE",
"612 33 OFFCURVE",
"545 33 CURVE SMOOTH",
"461 34 OFFCURVE",
"419 95 OFFCURVE",
"419 207 CURVE",
"707 207 LINE",
"707 376 OFFCURVE",
"631 437 OFFCURVE",
"498 437 CURVE SMOOTH"
);
},
{
closed = 1;
nodes = (
"274 149.101 LINE",
"267.208 96.362 OFFCURVE",
"237.94 61 OFFCURVE",
"202 61 CURVE SMOOTH",
"175 61 OFFCURVE",
"159 79 OFFCURVE",
"159 121 CURVE SMOOTH",
"159 174.47 OFFCURVE",
"191.821 205.147 OFFCURVE",
"274 205.199 CURVE"
);
},
{
closed = 1;
nodes = (
"540 400 OFFCURVE",
"557 358 OFFCURVE",
"557 275 CURVE SMOOTH",
"557 248 OFFCURVE",
"549 242 OFFCURVE",
"537 242 CURVE SMOOTH",
"420 242 LINE",
"420 328 OFFCURVE",
"440 400 OFFCURVE",
"494 400 CURVE SMOOTH"
);
}
);
width = 722;
}
);
leftKerningGroup = a;
leftMetricsKey = "=a";
rightMetricsKey = "=e";
unicode = 00E6;
},
{
color = 4;
glyphname = b;
layers = (
{
layerId = UUID0;
paths = (
{
closed = 1;
nodes = (
"57 707 LINE SMOOTH",
"66 707 OFFCURVE",
"70 700 OFFCURVE",
"70 687 CURVE SMOOTH",
"70 -5 LINE",
"103 -5 LINE",
"103 34 OFFCURVE",
"112 61 OFFCURVE",
"131 61 CURVE SMOOTH",
"140 61 OFFCURVE",
"146 58 OFFCURVE",
"149 52 CURVE",
"172 21 OFFCURVE",
"197 -10 OFFCURVE",
"271 -10 CURVE SMOOTH",
"400 -10 OFFCURVE",
"461 64 OFFCURVE",
"461 209 CURVE SMOOTH",
"461 354 OFFCURVE",
"405 430 OFFCURVE",
"288 430 CURVE SMOOTH",
"221 430 OFFCURVE",
"180 397 OFFCURVE",
"157 342 CURVE",
"157 730 LINE",
"21 730 LINE",
"21 705 LINE"
);
},
{
closed = 1;
nodes = (
"159 226 LINE SMOOTH",
"159 333 OFFCURVE",
"201 403 OFFCURVE",
"277 403 CURVE SMOOTH",
"352 403 OFFCURVE",
"370 359 OFFCURVE",
"370 209 CURVE SMOOTH",
"370 63 OFFCURVE",
"347 17 OFFCURVE",
"271 17 CURVE SMOOTH",
"186 17 OFFCURVE",
"159 86 OFFCURVE",
"159 184 CURVE SMOOTH"
);
}
);
width = 481;
},
{
layerId = "F8700386-2E77-47FF-AAB4-DBF3F3ACCAC4";
paths = (
{
closed = 1;
nodes = (
"47 697 LINE",
"58 697 OFFCURVE",
"60 685 OFFCURVE",
"60 677 CURVE SMOOTH",
"60 -5 LINE",
"142 -5 LINE",
"142 34 OFFCURVE",
"154 61 OFFCURVE",
"180 61 CURVE SMOOTH",
"189 61 OFFCURVE",
"194 57 OFFCURVE",
"198 52 CURVE SMOOTH",
"222 21 OFFCURVE",
"250 -10 OFFCURVE",
"330 -10 CURVE SMOOTH",
"442 -10 OFFCURVE",
"510 64 OFFCURVE",
"510 212 CURVE SMOOTH",
"510 360 OFFCURVE",
"449 437 OFFCURVE",
"333 437 CURVE SMOOTH",
"272 437 OFFCURVE",
"223 405 OFFCURVE",
"206 360 CURVE",
"206 730 LINE",
"16 730 LINE",
"16 695 LINE"
);
},
{
closed = 1;
nodes = (
"208 230 LINE SMOOTH",
"208 322 OFFCURVE",
"236 385 OFFCURVE",
"289 385 CURVE SMOOTH",
"342 385 OFFCURVE",
"354 314 OFFCURVE",
"354 212 CURVE SMOOTH",
"354 85 OFFCURVE",
"338 42 OFFCURVE",
"288 42 CURVE SMOOTH",
"229 42 OFFCURVE",
"208 104 OFFCURVE",
"208 187 CURVE SMOOTH"
);
}
);
width = 525;
}
);
rightMetricsKey = "=d";
unicode = 0062;
},
{
color = 4;
glyphname = c;
layers = (
{
anchors = (
{
name = bottom;
position = "{213, 0}";
},
{
name = top;
position = "{213, 420}";
}
);
background = {
paths = (
{
closed = 1;
nodes = (
"36 72 OFFCURVE",
"111 -10 OFFCURVE",
"237 -10 CURVE SMOOTH",
"327 -10 OFFCURVE",
"383 32 OFFCURVE",
"406 107 CURVE",
"381 124 LINE",
"364 61 OFFCURVE",
"305 17 OFFCURVE",
"242 17 CURVE SMOOTH",
"166 17 OFFCURVE",
"129 82 OFFCURVE",
"129 217 CURVE SMOOTH",
"129 361 OFFCURVE",
"171 403 OFFCURVE",
"235 403 CURVE SMOOTH",
"274 403 OFFCURVE",
"313 387 OFFCURVE",
"313 351 CURVE SMOOTH",
"313 333 OFFCURVE",
"304 324 OFFCURVE",
"304 308 CURVE SMOOTH",
"304 287 OFFCURVE",
"318 278 OFFCURVE",
"339 278 CURVE SMOOTH",
"375 278 OFFCURVE",
"387 304 OFFCURVE",
"387 328 CURVE SMOOTH",
"387 386 OFFCURVE",
"315 430 OFFCURVE",
"232 430 CURVE SMOOTH",
"115 430 OFFCURVE",
"36 343 OFFCURVE",
"36 206 CURVE SMOOTH"
);
}
);
};
layerId = UUID0;
paths = (
{
closed = 1;
nodes = (
"115 430 OFFCURVE",
"36 343 OFFCURVE",
"36 206 CURVE SMOOTH",
"36 72 OFFCURVE",
"111 -10 OFFCURVE",
"237 -10 CURVE SMOOTH",
"326 -10 OFFCURVE",
"384 36 OFFCURVE",
"407 106 CURVE",
"383 124 LINE",
"366 53 OFFCURVE",
"305 17 OFFCURVE",
"242 17 CURVE SMOOTH",
"166 17 OFFCURVE",
"129 82 OFFCURVE",
"129 217 CURVE SMOOTH",
"129 361 OFFCURVE",
"171 403 OFFCURVE",
"235 403 CURVE SMOOTH",
"274 403 OFFCURVE",
"313 387 OFFCURVE",
"313 351 CURVE SMOOTH",
"313 333 OFFCURVE",
"304 324 OFFCURVE",
"304 308 CURVE SMOOTH",
"304 287 OFFCURVE",
"318 278 OFFCURVE",
"339 278 CURVE SMOOTH",
"375 278 OFFCURVE",
"387 304 OFFCURVE",
"387 328 CURVE SMOOTH",
"387 386 OFFCURVE",
"315 430 OFFCURVE",
"232 430 CURVE SMOOTH"
);
}
);
width = 425;
},
{
anchors = (
{
name = bottom;
position = "{229, 0}";
},
{
name = top;
position = "{229, 427}";
}
);
layerId = "F8700386-2E77-47FF-AAB4-DBF3F3ACCAC4";
paths = (
{
closed = 1;
nodes = (
"118 437 OFFCURVE",
"15 369 OFFCURVE",
"15 210 CURVE SMOOTH",
"15 44 OFFCURVE",
"130 -10 OFFCURVE",
"247 -10 CURVE SMOOTH",
"331 -10 OFFCURVE",
"399 17 OFFCURVE",
"432 109 CURVE",
"399 122 LINE",
"370 49 OFFCURVE",
"323 30 OFFCURVE",
"278 30 CURVE SMOOTH",
"219 30 OFFCURVE",
"168 64 OFFCURVE",
"168 225 CURVE SMOOTH",
"168 360 OFFCURVE",
"204 400 OFFCURVE",
"254 400 CURVE SMOOTH",
"283 400 OFFCURVE",
"309 387 OFFCURVE",
"309 357 CURVE SMOOTH",
"309 340 OFFCURVE",
"300 332 OFFCURVE",
"300 314 CURVE SMOOTH",
"300 281 OFFCURVE",
"328 265 OFFCURVE",
"361 265 CURVE SMOOTH",
"407 265 OFFCURVE",
"430 296 OFFCURVE",
"430 330 CURVE SMOOTH",
"430 390 OFFCURVE",
"357 437 OFFCURVE",
"248 437 CURVE SMOOTH"
);
}
);
width = 444;
}
);
leftKerningGroup = o;
leftMetricsKey = "=o";
unicode = 0063;
},
{
color = 4;
glyphname = d;
layers = (
{
anchors = (
{
name = center;
position = "{248, 213}";
},
{
name = topright;
position = "{495, 598}";
}
);
layerId = UUID0;
paths = (
{
closed = 1;
nodes = (
"35 64 OFFCURVE",
"85 -10 OFFCURVE",
"225 -10 CURVE SMOOTH",
"289 -10 OFFCURVE",
"321 20 OFFCURVE",
"336 67 CURVE",
"336 64 OFFCURVE",
"334 51 OFFCURVE",
"334 38 CURVE SMOOTH",
"334 16 LINE SMOOTH",
"334 9 OFFCURVE",
"333 4 OFFCURVE",
"332 0 CURVE",
"476 0 LINE",
"476 26 LINE",
"439 24 LINE SMOOTH",
"430 24 OFFCURVE",
"426 30 OFFCURVE",
"426 43 CURVE SMOOTH",
"426 730 LINE",
"280 730 LINE",
"280 705 LINE",
"326 707 LINE SMOOTH",
"335 707 OFFCURVE",
"339 698 OFFCURVE",
"339 687 CURVE SMOOTH",
"339 348 LINE",
"326 393 OFFCURVE",
"288 430 OFFCURVE",
"224 430 CURVE SMOOTH",
"99 430 OFFCURVE",
"35 354 OFFCURVE",
"35 209 CURVE SMOOTH"
);
},
{
closed = 1;
nodes = (
"127 325 OFFCURVE",
"148 403 OFFCURVE",
"224 403 CURVE SMOOTH",
"303 403 OFFCURVE",
"337 334 OFFCURVE",
"337 226 CURVE SMOOTH",
"337 184 LINE SMOOTH",
"337 71 OFFCURVE",
"308 17 OFFCURVE",
"225 17 CURVE SMOOTH",
"148 17 OFFCURVE",
"127 67 OFFCURVE",
"127 209 CURVE SMOOTH"
);
}
);
width = 496;
},
{
anchors = (
{
name = center;
position = "{233, 210}";
},
{
name = topright;
position = "{480, 598}";
}
);
layerId = "F8700386-2E77-47FF-AAB4-DBF3F3ACCAC4";
paths = (
{
closed = 1;
nodes = (
"20 65 OFFCURVE",
"67 -10 OFFCURVE",
"198 -10 CURVE SMOOTH",
"263 -10 OFFCURVE",
"305 20 OFFCURVE",
"321 62 CURVE",
"321 59 OFFCURVE",
"319 50 OFFCURVE",
"319 38 CURVE SMOOTH",
"319 16 LINE SMOOTH",
"319 9 OFFCURVE",
"318 4 OFFCURVE",
"317 0 CURVE",
"515 0 LINE",
"515 36 LINE",
"483 34 LINE",
"474 34 OFFCURVE",
"470 40 OFFCURVE",
"470 53 CURVE SMOOTH",
"470 730 LINE",
"265 730 LINE",
"265 695 LINE",
"311 697 LINE",
"320 697 OFFCURVE",
"324 688 OFFCURVE",
"324 677 CURVE SMOOTH",
"324 360 LINE",
"310 400 OFFCURVE",
"262 437 OFFCURVE",
"197 437 CURVE SMOOTH",
"81 437 OFFCURVE",
"20 360 OFFCURVE",
"20 212 CURVE SMOOTH"
);
},
{
closed = 1;
nodes = (
"176 318 OFFCURVE",
"191 385 OFFCURVE",
"241 385 CURVE SMOOTH",
"292 385 OFFCURVE",
"322 327 OFFCURVE",
"322 230 CURVE SMOOTH",
"322 187 LINE SMOOTH",
"322 91 OFFCURVE",
"295 42 OFFCURVE",
"242 42 CURVE SMOOTH",
"191 42 OFFCURVE",
"176 87 OFFCURVE",
"176 212 CURVE SMOOTH"
);
}
);
width = 530;
}
);
leftKerningGroup = o;
unicode = 0064;
},
{
color = 4;
glyphname = eth;
layers = (
{
background = {
paths = (
{
closed = 1;
nodes = (
"35 64 OFFCURVE",
"109 -11 OFFCURVE",
"246 -11 CURVE SMOOTH",
"382 -11 OFFCURVE",
"457 77 OFFCURVE",
"457 213 CURVE SMOOTH",
"457 358 OFFCURVE",
"400 474 OFFCURVE",
"296 546 CURVE",
"378 594 LINE",
"364 620 LINE",
"268 565 LINE",
"225 592 OFFCURVE",
"175 607 OFFCURVE",
"132 607 CURVE",
"112 585 LINE",
"143 585 OFFCURVE",
"177 569 OFFCURVE",
"221 538 CURVE",
"125 483 LINE",
"140 457 LINE",
"245 518 LINE",
"278 494 OFFCURVE",
"309 450 OFFCURVE",
"328 403 CURVE",
"318 418 OFFCURVE",
"274 429 OFFCURVE",
"246 429 CURVE SMOOTH",
"109 429 OFFCURVE",
"35 353 OFFCURVE",
"35 209 CURVE SMOOTH"
);
},
{
closed = 1;
nodes = (
"126 357 OFFCURVE",
"155 404 OFFCURVE",
"246 404 CURVE SMOOTH",
"331 404 OFFCURVE",
"366 349 OFFCURVE",
"366 209 CURVE SMOOTH",
"366 72 OFFCURVE",
"334 14 OFFCURVE",
"246 14 CURVE SMOOTH",
"159 14 OFFCURVE",
"126 62 OFFCURVE",
"126 209 CURVE SMOOTH"
);
}
);
};
layerId = UUID0;
paths = (
{
closed = 1;
nodes = (
"126 357 OFFCURVE",
"155 404 OFFCURVE",
"246 404 CURVE SMOOTH",
"331 404 OFFCURVE",
"366 349 OFFCURVE",
"366 209 CURVE SMOOTH",
"366 72 OFFCURVE",
"334 14 OFFCURVE",
"246 14 CURVE SMOOTH",
"159 14 OFFCURVE",
"126 62 OFFCURVE",
"126 209 CURVE SMOOTH"
);
},
{
closed = 1;
nodes = (
"457 455 OFFCURVE",
"286 600 OFFCURVE",
"132 607 CURVE",
"112 585 LINE",
"181 585 OFFCURVE",
"303 490 OFFCURVE",
"330 397 CURVE",
"334 397 LINE",
"322 416 OFFCURVE",
"280 429 OFFCURVE",
"246 429 CURVE SMOOTH",
"109 429 OFFCURVE",
"35 353 OFFCURVE",
"35 209 CURVE SMOOTH",
"35 64 OFFCURVE",
"109 -11 OFFCURVE",
"246 -11 CURVE SMOOTH",
"382 -11 OFFCURVE",
"457 77 OFFCURVE",
"457 213 CURVE SMOOTH"
);
},
{
closed = 1;
nodes = (
"378 594 LINE",
"364 620 LINE",
"125 483 LINE",
"140 457 LINE"
);
}
);
width = 492;
},
{
layerId = "F8700386-2E77-47FF-AAB4-DBF3F3ACCAC4";
paths = (
{
closed = 1;
nodes = (
"171 357 OFFCURVE",
"200 402 OFFCURVE",
"256 402 CURVE SMOOTH",
"317 402 OFFCURVE",
"341 350 OFFCURVE",
"341 213 CURVE SMOOTH",
"341 82 OFFCURVE",
"320 24 OFFCURVE",
"256 24 CURVE SMOOTH",
"201 24 OFFCURVE",
"171 72 OFFCURVE",
"171 213 CURVE SMOOTH"
);
},
{
closed = 1;
nodes = (
"497 500 OFFCURVE",
"306 600 OFFCURVE",
"132 607 CURVE",
"112 575 LINE",
"178 565 OFFCURVE",
"285 505 OFFCURVE",
"320 397 CURVE",
"334 397 LINE",
"322 420 OFFCURVE",
"280 437 OFFCURVE",
"227 437 CURVE SMOOTH",
"111 437 OFFCURVE",
"15 370 OFFCURVE",
"15 213 CURVE SMOOTH",
"15 67 OFFCURVE",
"101 -11 OFFCURVE",
"256 -11 CURVE SMOOTH",
"420 -11 OFFCURVE",
"497 85 OFFCURVE",
"497 227 CURVE SMOOTH"
);
},
{
closed = 1;
nodes = (
"381 589 LINE",
"364 620 LINE",
"125 483 LINE",
"143 452 LINE"
);
}
);
width = 512;
}
);
leftKerningGroup = o;
leftMetricsKey = "=o";
rightMetricsKey = "=o";
unicode = 00F0;
},
{
color = 4;
glyphname = e;
layers = (
{
anchors = (
{
name = bottom;
position = "{225, 0}";
},
{
name = ogonek;
position = "{336, 14}";
},
{
name = top;
position = "{225, 420}";
}
);
background = {
paths = (
{
closed = 1;
nodes = (
"35 76 OFFCURVE",
"101 -10 OFFCURVE",
"236 -10 CURVE SMOOTH",
"371 -10 OFFCURVE",
"437 76 OFFCURVE",
"437 211 CURVE SMOOTH",
"437 343 OFFCURVE",
"371 430 OFFCURVE",
"236 430 CURVE SMOOTH",
"101 430 OFFCURVE",
"35 343 OFFCURVE",
"35 211 CURVE SMOOTH"
);
},
{
closed = 1;
nodes = (
"126 344 OFFCURVE",
"156 403 OFFCURVE",
"236 403 CURVE SMOOTH",
"316 403 OFFCURVE",
"346 344 OFFCURVE",
"346 209 CURVE SMOOTH",
"346 76 OFFCURVE",
"316 17 OFFCURVE",
"236 17 CURVE SMOOTH",
"156 17 OFFCURVE",
"126 76 OFFCURVE",
"126 209 CURVE SMOOTH"
);
}
);
};
layerId = UUID0;
paths = (
{
closed = 1;
nodes = (
"104 430 OFFCURVE",
"35 354 OFFCURVE",
"35 209 CURVE SMOOTH",
"35 68 OFFCURVE",
"97 -10 OFFCURVE",
"238 -10 CURVE SMOOTH",
"312 -10 OFFCURVE",
"383 28 OFFCURVE",
"410 93 CURVE",
"387 110 LINE",
"368 67 OFFCURVE",
"324 23 OFFCURVE",
"252 23 CURVE SMOOTH",
"168 24 OFFCURVE",
"126 91 OFFCURVE",
"126 212 CURVE",
"414 212 LINE",
"414 241 LINE",
"411 360 OFFCURVE",
"341 430 OFFCURVE",
"236 430 CURVE SMOOTH"
);
},
{
closed = 1;
nodes = (
"304 403 OFFCURVE",
"329 359 OFFCURVE",
"329 270 CURVE SMOOTH",
"329 243 OFFCURVE",
"321 237 OFFCURVE",
"309 237 CURVE SMOOTH",
"127 237 LINE",
"127 327 OFFCURVE",
"156 403 OFFCURVE",
"236 403 CURVE SMOOTH"
);
}
);
width = 449;
},
{
anchors = (
{
name = bottom;
position = "{265, 0}";
},
{
name = ogonek;
position = "{364, 10}";
},
{
name = top;
position = "{249, 427}";
}
);
layerId = "F8700386-2E77-47FF-AAB4-DBF3F3ACCAC4";
paths = (
{
closed = 1;
nodes = (
"96 437 OFFCURVE",
"15 370 OFFCURVE",
"15 212 CURVE SMOOTH",
"15 59 OFFCURVE",
"88 -10 OFFCURVE",
"253 -10 CURVE SMOOTH",
"355 -10 OFFCURVE",
"423 28 OFFCURVE",
"455 93 CURVE",
"427 112 LINE",
"408 74 OFFCURVE",
"364 33 OFFCURVE",
"297 33 CURVE SMOOTH",
"213 34 OFFCURVE",
"171 95 OFFCURVE",
"171 207 CURVE",
"459 207 LINE",
"459 246 LINE SMOOTH",
"459 372 OFFCURVE",
"373 437 OFFCURVE",
"250 437 CURVE SMOOTH"
);
},
{
closed = 1;
nodes = (
"292 400 OFFCURVE",
"309 358 OFFCURVE",
"309 275 CURVE SMOOTH",
"309 248 OFFCURVE",
"301 242 OFFCURVE",
"289 242 CURVE SMOOTH",
"172 242 LINE",
"172 328 OFFCURVE",
"192 400 OFFCURVE",
"246 400 CURVE SMOOTH"
);
}
);
width = 474;
}
);
leftKerningGroup = o;
leftMetricsKey = "=o";
rightMetricsKey = "=o";
unicode = 0065;
},
{
color = 4;
glyphname = f;
layers = (
{
annotations = (
{
angle = 244.184;
position = "{298, 572}";
type = Arrow;
},
{
position = "{231, 501}";
text = "Ajustar la gota";
type = Text;
}
);
background = {
paths = (
{
closed = 1;
nodes = (
"26 382 OFFCURVE",
"101 300 OFFCURVE",
"227 300 CURVE SMOOTH",
"316 300 OFFCURVE",
"374 346 OFFCURVE",
"397 416 CURVE",
"373 434 LINE",
"356 363 OFFCURVE",
"295 327 OFFCURVE",
"232 327 CURVE SMOOTH",
"156 327 OFFCURVE",
"119 392 OFFCURVE",
"119 527 CURVE SMOOTH",
"119 671 OFFCURVE",
"161 713 OFFCURVE",
"225 713 CURVE SMOOTH",
"264 713 OFFCURVE",
"303 697 OFFCURVE",
"303 661 CURVE SMOOTH",
"303 643 OFFCURVE",
"294 634 OFFCURVE",
"294 618 CURVE SMOOTH",
"294 597 OFFCURVE",
"308 588 OFFCURVE",
"329 588 CURVE SMOOTH",
"365 588 OFFCURVE",
"377 614 OFFCURVE",
"377 638 CURVE SMOOTH",
"377 696 OFFCURVE",
"305 740 OFFCURVE",
"222 740 CURVE SMOOTH",
"105 740 OFFCURVE",
"26 653 OFFCURVE",
"26 516 CURVE SMOOTH"
);
}
);
};
layerId = UUID0;
paths = (
{
closed = 1;
nodes = (
"250 0 LINE",
"250 26 LINE",
"184 24 LINE SMOOTH",
"175 24 OFFCURVE",
"171 30 OFFCURVE",
"171 43 CURVE SMOOTH",
"171 395 LINE",
"277 395 LINE",
"277 420 LINE",
"170 420 LINE",
"170 449 LINE SMOOTH",
"170 490 OFFCURVE",
"164 553 OFFCURVE",
"164 589 CURVE SMOOTH",
"164 690 OFFCURVE",
"214 709 OFFCURVE",
"252 709 CURVE SMOOTH",
"287 709 OFFCURVE",
"303 684 OFFCURVE",
"303 657 CURVE SMOOTH",
"303 638 OFFCURVE",
"294 629 OFFCURVE",
"294 613 CURVE SMOOTH",
"294 593 OFFCURVE",
"308 584 OFFCURVE",
"329 584 CURVE SMOOTH",
"363 584 OFFCURVE",
"377 607 OFFCURVE",
"377 633 CURVE SMOOTH",
"377 692 OFFCURVE",
"320 736 OFFCURVE",
"259 736 CURVE SMOOTH",
"110 736 OFFCURVE",
"85 597 OFFCURVE",
"85 486 CURVE SMOOTH",
"85 420 LINE",
"46 420 LINE",
"46 395 LINE",
"85 395 LINE",
"85 43 LINE SMOOTH",
"85 30 OFFCURVE",
"81 24 OFFCURVE",
"72 24 CURVE",
"35 26 LINE",
"35 0 LINE"
);
}
);
width = 296;
},
{
layerId = "F8700386-2E77-47FF-AAB4-DBF3F3ACCAC4";
paths = (
{
closed = 1;
nodes = (
"285 0 LINE",
"285 36 LINE",
"224 34 LINE SMOOTH",
"215 34 OFFCURVE",
"211 40 OFFCURVE",
"211 53 CURVE SMOOTH",
"211 392 LINE",
"280 392 LINE",
"280 427 LINE",
"210 427 LINE",
"210 449 LINE SMOOTH",
"210 494 OFFCURVE",
"204 544 OFFCURVE",
"204 596 CURVE SMOOTH",
"204 678 OFFCURVE",
"219 699 OFFCURVE",
"250 699 CURVE SMOOTH",
"275 699 OFFCURVE",
"283 679 OFFCURVE",
"283 658 CURVE SMOOTH",
"283 639 OFFCURVE",
"274 628 OFFCURVE",
"274 612 CURVE SMOOTH",
"274 583 OFFCURVE",
"301 568 OFFCURVE",
"334 568 CURVE SMOOTH",
"384 568 OFFCURVE",
"404 601 OFFCURVE",
"404 633 CURVE SMOOTH",
"404 691 OFFCURVE",
"338 736 OFFCURVE",
"251 736 CURVE SMOOTH",
"92 736 OFFCURVE",
"65 588 OFFCURVE",
"65 486 CURVE SMOOTH",
"65 427 LINE",
"26 427 LINE",
"26 392 LINE",
"65 392 LINE",
"65 53 LINE SMOOTH",
"65 40 OFFCURVE",
"61 34 OFFCURVE",
"52 34 CURVE",
"15 36 LINE",
"15 0 LINE"
);
}
);
width = 300;
}
);
leftMetricsKey = "=n";
unicode = 0066;
},
{
color = 4;
glyphname = g;
layers = (
{
anchors = (
{
name = top;
position = "{230, 420}";
}
);
layerId = UUID0;
paths = (
{
closed = 1;
nodes = (
"95 138 LINE SMOOTH",
"65 114 OFFCURVE",
"48 99 OFFCURVE",
"48 71 CURVE SMOOTH",
"48 18 OFFCURVE",
"106 0 OFFCURVE",
"189 0 CURVE",
"289 0 LINE SMOOTH",
"357 0 OFFCURVE",
"387 -26 OFFCURVE",
"387 -81 CURVE SMOOTH",
"387 -162 OFFCURVE",
"327 -219 OFFCURVE",
"214 -219 CURVE SMOOTH",
"123 -219 OFFCURVE",
"81 -173 OFFCURVE",
"81 -110 CURVE SMOOTH",
"81 -55 OFFCURVE",
"129 0 OFFCURVE",
"189 0 CURVE",
"134 11 LINE",
"70 -17 OFFCURVE",
"32 -52 OFFCURVE",
"32 -112 CURVE SMOOTH",
"32 -199 OFFCURVE",
"98 -245 OFFCURVE",
"215 -245 CURVE SMOOTH",
"359 -245 OFFCURVE",
"453 -178 OFFCURVE",
"453 -74 CURVE SMOOTH",
"453 29 OFFCURVE",
"399 65 OFFCURVE",
"304 65 CURVE SMOOTH",
"171 65 LINE SMOOTH",
"134 65 OFFCURVE",
"115 77 OFFCURVE",
"115 102 CURVE SMOOTH",
"115 121 OFFCURVE",
"132 136 OFFCURVE",
"157 151 CURVE",
"129 166 LINE"
);
},
{
closed = 1;
nodes = (
"290 403 OFFCURVE",
"309 368 OFFCURVE",
"309 280 CURVE SMOOTH",
"309 191 OFFCURVE",
"291 154 OFFCURVE",
"227 154 CURVE SMOOTH",
"163 154 OFFCURVE",
"146 185 OFFCURVE",
"146 280 CURVE SMOOTH",
"146 373 OFFCURVE",
"166 403 OFFCURVE",
"227 403 CURVE SMOOTH"
);
},
{
closed = 1;
nodes = (
"127 430 OFFCURVE",
"57 369 OFFCURVE",
"57 280 CURVE SMOOTH",
"57 180 OFFCURVE",
"143 131 OFFCURVE",
"227 131 CURVE SMOOTH",
"331 131 OFFCURVE",
"398 192 OFFCURVE",
"398 280 CURVE SMOOTH",
"398 388 OFFCURVE",
"317 430 OFFCURVE",
"227 430 CURVE SMOOTH"
);
},
{
closed = 1;
nodes = (
"393 505 OFFCURVE",
"333 460 OFFCURVE",
"299 413 CURVE",
"320 404 LINE",
"337 431 OFFCURVE",
"379 447 OFFCURVE",
"390 447 CURVE SMOOTH",
"409 447 OFFCURVE",
"403 424 OFFCURVE",
"435 424 CURVE SMOOTH",
"455 424 OFFCURVE",
"467 445 OFFCURVE",
"467 461 CURVE SMOOTH",
"467 479 OFFCURVE",
"458 505 OFFCURVE",
"421 505 CURVE SMOOTH"
);
}
);
width = 460;
},
{
anchors = (
{
name = top;
position = "{256, 427}";
}
);
layerId = "F8700386-2E77-47FF-AAB4-DBF3F3ACCAC4";
paths = (
{
closed = 1;
nodes = (
"97 159 LINE SMOOTH",
"60 125 OFFCURVE",
"50 104 OFFCURVE",
"50 76 CURVE SMOOTH",
"50 14 OFFCURVE",
"125 -15 OFFCURVE",
"189 -15 CURVE SMOOTH",
"289 -15 LINE SMOOTH",
"355 -15 OFFCURVE",
"380 -41 OFFCURVE",
"380 -91 CURVE SMOOTH",
"380 -160 OFFCURVE",
"331 -209 OFFCURVE",
"253 -209 CURVE SMOOTH",
"174 -209 OFFCURVE",
"143 -171 OFFCURVE",
"143 -115 CURVE SMOOTH",
"143 -67 OFFCURVE",
"170 -20 OFFCURVE",
"199 -11 CURVE",
"154 -4 LINE",
"83 -30 OFFCURVE",
"37 -70 OFFCURVE",
"37 -127 CURVE SMOOTH",
"37 -203 OFFCURVE",
"113 -245 OFFCURVE",
"241 -245 CURVE SMOOTH",
"400 -245 OFFCURVE",
"503 -172 OFFCURVE",
"503 -43 CURVE SMOOTH",
"503 69 OFFCURVE",
"426 110 OFFCURVE",
"304 110 CURVE SMOOTH",
"216 110 LINE SMOOTH",
"180 110 OFFCURVE",
"157 118 OFFCURVE",
"157 140 CURVE SMOOTH",
"157 153 OFFCURVE",
"165 167 OFFCURVE",
"176 177 CURVE",
"134 192 LINE"
);
},
{
closed = 1;
nodes = (
"294 400 OFFCURVE",
"309 371 OFFCURVE",
"309 300 CURVE SMOOTH",
"309 229 OFFCURVE",
"294 201 OFFCURVE",
"250 201 CURVE SMOOTH",
"209 201 OFFCURVE",
"195 226 OFFCURVE",
"195 298 CURVE SMOOTH",
"195 375 OFFCURVE",
"211 400 OFFCURVE",
"251 400 CURVE SMOOTH"
);
},
{
closed = 1;
nodes = (
"131 437 OFFCURVE",
"46 390 OFFCURVE",
"46 300 CURVE SMOOTH",
"46 201 OFFCURVE",
"150 168 OFFCURVE",
"254 168 CURVE SMOOTH",
"376 168 OFFCURVE",
"458 213 OFFCURVE",
"458 304 CURVE SMOOTH",
"458 405 OFFCURVE",
"357 437 OFFCURVE",
"255 437 CURVE SMOOTH"
);
},
{
closed = 1;
nodes = (
"399 512 OFFCURVE",
"359 467 OFFCURVE",
"328 422 CURVE",
"360 411 LINE",
"372 432 OFFCURVE",
"396 450 OFFCURVE",
"416 450 CURVE SMOOTH",
"446 450 OFFCURVE",
"438 410 OFFCURVE",
"481 410 CURVE SMOOTH",
"517 410 OFFCURVE",
"527 438 OFFCURVE",
"527 458 CURVE SMOOTH",
"527 480 OFFCURVE",
"514 512 OFFCURVE",
"461 512 CURVE SMOOTH"
);
}
);
width = 528;
}
);
leftKerningGroup = g;
rightKerningGroup = g;
unicode = 0067;
},
{
color = 4;
glyphname = h;
layers = (
{
anchors = (
{
name = center;
position = "{263, 213}";
},
{
name = top;
position = "{123, 650}";
}
);
layerId = UUID0;
paths = (
{
closed = 1;
nodes = (
"248 430 OFFCURVE",
"192 387 OFFCURVE",
"167 320 CURVE",
"171 193 LINE",
"167 316 OFFCURVE",
"219 398 OFFCURVE",
"302 398 CURVE SMOOTH",
"363 398 OFFCURVE",
"369 355 OFFCURVE",
"369 270 CURVE SMOOTH",
"369 43 LINE SMOOTH",
"369 32 OFFCURVE",
"365 26 OFFCURVE",
"356 24 CURVE",
"310 26 LINE",
"310 0 LINE",
"505 0 LINE",
"505 26 LINE",
"468 24 LINE SMOOTH",
"459 24 OFFCURVE",
"455 30 OFFCURVE",
"455 43 CURVE SMOOTH",
"455 288 LINE SMOOTH",
"455 388 OFFCURVE",
"416 430 OFFCURVE",
"321 430 CURVE SMOOTH"
);
},
{
closed = 1;
nodes = (
"35 730 LINE",
"35 705 LINE",
"72 707 LINE SMOOTH",
"81 707 OFFCURVE",
"85 700 OFFCURVE",
"85 686 CURVE SMOOTH",
"85 43 LINE SMOOTH",
"85 32 OFFCURVE",
"81 26 OFFCURVE",
"72 24 CURVE",
"35 26 LINE",
"35 0 LINE",
"230 0 LINE",
"230 26 LINE",
"184 24 LINE SMOOTH",
"175 24 OFFCURVE",
"171 30 OFFCURVE",
"171 43 CURVE SMOOTH",
"171 219 LINE",
"171 320 LINE",
"171 730 LINE"
);
}
);
width = 525;
},
{
anchors = (
{
name = center;
position = "{270, 210}";
},
{
name = top;
position = "{133, 650}";
}
);
layerId = "F8700386-2E77-47FF-AAB4-DBF3F3ACCAC4";
paths = (
{
closed = 1;
nodes = (
"281 437 OFFCURVE",
"228 392 OFFCURVE",
"200 322 CURVE",
"206 190 LINE",
"206 322 OFFCURVE",
"263 385 OFFCURVE",
"304 385 CURVE SMOOTH",
"341 385 OFFCURVE",
"345 357 OFFCURVE",
"345 300 CURVE SMOOTH",
"345 53 LINE SMOOTH",
"345 42 OFFCURVE",
"341 36 OFFCURVE",
"332 34 CURVE",
"296 36 LINE",
"296 0 LINE",
"536 0 LINE",
"536 36 LINE",
"504 34 LINE",
"495 34 OFFCURVE",
"491 40 OFFCURVE",
"491 53 CURVE SMOOTH",
"491 293 LINE SMOOTH",
"491 392 OFFCURVE",
"452 437 OFFCURVE",
"362 437 CURVE SMOOTH"
);
},
{
closed = 1;
nodes = (
"15 730 LINE",
"15 694 LINE",
"47 696 LINE",
"56 694 OFFCURVE",
"60 687 OFFCURVE",
"60 676 CURVE SMOOTH",
"60 53 LINE SMOOTH",
"60 42 OFFCURVE",
"56 36 OFFCURVE",
"47 34 CURVE",
"15 36 LINE",
"15 0 LINE",
"255 0 LINE",
"255 36 LINE",
"219 34 LINE",
"210 34 OFFCURVE",
"206 40 OFFCURVE",
"206 53 CURVE SMOOTH",
"206 219 LINE",
"206 320 LINE",
"206 730 LINE"
);
}
);
width = 544;
}
);
leftMetricsKey = "=n";
rightKerningGroup = n;
rightMetricsKey = "=n";
unicode = 0068;
},
{
color = 4;
glyphname = i;
layers = (
{
anchors = (
{
name = ogonek;
position = "{192, 13}";
}
);
background = {
paths = (
{
closed = 1;
nodes = (
"68 566 OFFCURVE",
"91 547 OFFCURVE",
"122 547 CURVE SMOOTH",
"153 547 OFFCURVE",
"176 566 OFFCURVE",
"176 595 CURVE SMOOTH",
"176 623 OFFCURVE",
"151 644 OFFCURVE",
"122 644 CURVE SMOOTH",
"91 644 OFFCURVE",
"68 623 OFFCURVE",
"68 595 CURVE SMOOTH"
);
}
);
};
layerId = UUID0;
paths = (
{
closed = 1;
nodes = (
"36 420 LINE",
"36 394 LINE",
"73 396 LINE",
"81 394 OFFCURVE",
"85 387 OFFCURVE",
"85 376 CURVE SMOOTH",
"85 43 LINE SMOOTH",
"85 30 OFFCURVE",
"81 24 OFFCURVE",
"72 24 CURVE SMOOTH",
"35 26 LINE",
"35 0 LINE",
"220 0 LINE",
"220 26 LINE",
"184 24 LINE SMOOTH",
"175 24 OFFCURVE",
"171 30 OFFCURVE",
"171 43 CURVE SMOOTH",
"171 420 LINE"
);
},
{
closed = 1;
nodes = (
"90 643 OFFCURVE",
"67 625 OFFCURVE",
"67 596 CURVE SMOOTH",
"67 565 OFFCURVE",
"90 548 OFFCURVE",
"121 548 CURVE SMOOTH",
"153 548 OFFCURVE",
"176 565 OFFCURVE",
"176 596 CURVE SMOOTH",
"176 625 OFFCURVE",
"153 643 OFFCURVE",
"121 643 CURVE SMOOTH"
);
}
);
width = 255;
},
{
anchors = (
{
name = ogonek;
position = "{220, 13}";
}
);
guideLines = (
{
position = "{14, 420}";
}
);
layerId = "F8700386-2E77-47FF-AAB4-DBF3F3ACCAC4";
paths = (
{
closed = 1;
nodes = (
"16 427 LINE",
"16 391 LINE",
"48 393 LINE",
"56 391 OFFCURVE",
"60 384 OFFCURVE",
"60 373 CURVE SMOOTH",
"60 53 LINE SMOOTH",
"60 40 OFFCURVE",
"56 33 OFFCURVE",
"47 34 CURVE",
"15 36 LINE",
"15 0 LINE",
"250 0 LINE",
"250 36 LINE",
"219 34 LINE",
"210 33 OFFCURVE",
"206 40 OFFCURVE",
"206 53 CURVE SMOOTH",
"206 427 LINE"
);
},
{
closed = 1;
nodes = (
"82 662 OFFCURVE",
"47 636 OFFCURVE",
"47 595 CURVE SMOOTH",
"47 552 OFFCURVE",
"82 527 OFFCURVE",
"131 527 CURVE SMOOTH",
"181 527 OFFCURVE",
"216 552 OFFCURVE",
"216 595 CURVE SMOOTH",
"216 636 OFFCURVE",
"181 662 OFFCURVE",
"131 662 CURVE SMOOTH"
);
}
);
width = 265;
}
);
leftMetricsKey = "=n";
rightMetricsKey = "=|n";
unicode = 0069;
},
{
color = 4;
glyphname = dotlessi;
layers = (
{
anchors = (
{
name = ogonek;
position = "{192, 13}";
},
{
name = top;
position = "{128, 420}";
}
);
layerId = UUID0;
paths = (
{
closed = 1;
nodes = (
"36 420 LINE",
"36 394 LINE",
"73 396 LINE",
"81 394 OFFCURVE",
"85 387 OFFCURVE",
"85 376 CURVE SMOOTH",
"85 43 LINE SMOOTH",
"85 30 OFFCURVE",
"81 24 OFFCURVE",
"72 24 CURVE SMOOTH",
"35 26 LINE",
"35 0 LINE",
"220 0 LINE",
"220 26 LINE",
"184 24 LINE SMOOTH",
"175 24 OFFCURVE",
"171 30 OFFCURVE",
"171 43 CURVE SMOOTH",
"171 420 LINE"
);
}
);
width = 255;
},
{
anchors = (
{
name = ogonek;
position = "{220, 13}";
},
{
name = top;
position = "{128, 427}";
}
);
layerId = "F8700386-2E77-47FF-AAB4-DBF3F3ACCAC4";
paths = (
{
closed = 1;
nodes = (
"16 427 LINE",
"16 391 LINE",
"48 393 LINE",
"56 391 OFFCURVE",
"60 384 OFFCURVE",
"60 373 CURVE SMOOTH",
"60 53 LINE SMOOTH",
"60 40 OFFCURVE",
"56 33 OFFCURVE",
"47 34 CURVE SMOOTH",
"15 36 LINE",
"15 0 LINE",
"250 0 LINE",
"250 36 LINE",
"219 34 LINE SMOOTH",
"210 33 OFFCURVE",
"206 40 OFFCURVE",
"206 53 CURVE SMOOTH",
"206 427 LINE"
);
}
);
width = 265;
}
);
leftKerningGroup = n;
unicode = 0131;
},
{
color = 4;
glyphname = j;
layers = (
{
annotations = (
{
angle = 62.7001;
position = "{-6, -120}";
type = Arrow;
},
{
position = "{-65, -38}";
text = "Ajustar la gota";
type = Text;
}
);
background = {
paths = (
{
closed = 1;
nodes = (
"69 566 OFFCURVE",
"92 547 OFFCURVE",
"123 547 CURVE SMOOTH",
"154 547 OFFCURVE",
"177 566 OFFCURVE",
"177 595 CURVE SMOOTH",
"177 623 OFFCURVE",
"152 644 OFFCURVE",
"123 644 CURVE SMOOTH",
"92 644 OFFCURVE",
"69 623 OFFCURVE",
"69 595 CURVE SMOOTH"
);
}
);
};
layerId = UUID0;
paths = (
{
closed = 1;
nodes = (
"31 420 LINE",
"31 394 LINE",
"72 396 LINE SMOOTH",
"81 396 OFFCURVE",
"85 387 OFFCURVE",
"85 376 CURVE SMOOTH",
"85 -59 LINE SMOOTH",
"85 -85 OFFCURVE",
"87 -128 OFFCURVE",
"87 -133 CURVE SMOOTH",
"87 -188 OFFCURVE",
"69 -216 OFFCURVE",
"34 -216 CURVE SMOOTH",
"15 -216 OFFCURVE",
"3 -207 OFFCURVE",
"3 -191 CURVE SMOOTH",
"3 -182 OFFCURVE",
"9 -170 OFFCURVE",
"9 -160 CURVE SMOOTH",
"9 -136 OFFCURVE",
"-16 -132 OFFCURVE",
"-26 -132 CURVE SMOOTH",
"-54 -132 OFFCURVE",
"-73 -149 OFFCURVE",
"-73 -176 CURVE SMOOTH",
"-73 -211 OFFCURVE",
"-36 -243 OFFCURVE",
"28 -243 CURVE SMOOTH",
"121 -243 OFFCURVE",
"171 -169 OFFCURVE",
"171 -4 CURVE SMOOTH",
"171 420 LINE"
);
},
{
closed = 1;
nodes = (
"91 643 OFFCURVE",
"69 625 OFFCURVE",
"69 596 CURVE SMOOTH",
"69 565 OFFCURVE",
"91 548 OFFCURVE",
"123 548 CURVE SMOOTH",
"154 548 OFFCURVE",
"178 565 OFFCURVE",
"178 596 CURVE SMOOTH",
"178 625 OFFCURVE",
"154 643 OFFCURVE",
"123 643 CURVE SMOOTH"
);
}
);
width = 251;
},
{
layerId = "F8700386-2E77-47FF-AAB4-DBF3F3ACCAC4";
paths = (
{
closed = 1;
nodes = (
"16 427 LINE",
"16 391 LINE",
"47 393 LINE SMOOTH",
"56 394 OFFCURVE",
"60 384 OFFCURVE",
"60 373 CURVE SMOOTH",
"60 -29 LINE SMOOTH",
"60 -113 OFFCURVE",
"72 -137 OFFCURVE",
"72 -168 CURVE SMOOTH",
"72 -184 OFFCURVE",
"64 -206 OFFCURVE",
"47 -206 CURVE SMOOTH",
"35 -206 OFFCURVE",
"28 -198 OFFCURVE",
"28 -181 CURVE SMOOTH",
"28 -172 OFFCURVE",
"34 -160 OFFCURVE",
"34 -150 CURVE SMOOTH",
"34 -106 OFFCURVE",
"-11 -100 OFFCURVE",
"-27 -100 CURVE SMOOTH",
"-68 -100 OFFCURVE",
"-95 -125 OFFCURVE",
"-95 -163 CURVE SMOOTH",
"-95 -211 OFFCURVE",
"-46 -243 OFFCURVE",
"43 -243 CURVE SMOOTH",
"150 -243 OFFCURVE",
"206 -172 OFFCURVE",
"206 -14 CURVE SMOOTH",
"206 427 LINE"
);
},
{
closed = 1;
nodes = (
"82 662 OFFCURVE",
"47 636 OFFCURVE",
"47 595 CURVE SMOOTH",
"47 552 OFFCURVE",
"82 527 OFFCURVE",
"131 527 CURVE SMOOTH",
"181 527 OFFCURVE",
"216 552 OFFCURVE",
"216 595 CURVE SMOOTH",
"216 636 OFFCURVE",
"181 662 OFFCURVE",
"131 662 CURVE SMOOTH"
);
}
);
width = 266;
}
);
unicode = 006A;
},
{
color = 4;
glyphname = dotlessj;
layers = (
{
anchors = (
{
name = top;
position = "{126, 420}";
}
);
layerId = UUID0;
paths = (
{
closed = 1;
nodes = (
"31 420 LINE",
"31 394 LINE",
"72 396 LINE SMOOTH",
"81 396 OFFCURVE",
"85 387 OFFCURVE",
"85 376 CURVE SMOOTH",
"85 -59 LINE SMOOTH",
"85 -85 OFFCURVE",
"87 -128 OFFCURVE",
"87 -133 CURVE SMOOTH",
"87 -188 OFFCURVE",
"69 -216 OFFCURVE",
"34 -216 CURVE SMOOTH",
"15 -216 OFFCURVE",
"3 -207 OFFCURVE",
"3 -191 CURVE SMOOTH",
"3 -182 OFFCURVE",
"9 -170 OFFCURVE",
"9 -160 CURVE SMOOTH",
"9 -136 OFFCURVE",
"-16 -132 OFFCURVE",
"-26 -132 CURVE SMOOTH",
"-54 -132 OFFCURVE",
"-73 -149 OFFCURVE",
"-73 -176 CURVE SMOOTH",
"-73 -211 OFFCURVE",
"-36 -243 OFFCURVE",
"28 -243 CURVE SMOOTH",
"121 -243 OFFCURVE",
"171 -169 OFFCURVE",
"171 -4 CURVE SMOOTH",
"171 420 LINE"
);
}
);
width = 251;
},
{
anchors = (
{
name = top;
position = "{126, 427}";
}
);
layerId = "F8700386-2E77-47FF-AAB4-DBF3F3ACCAC4";
paths = (
{
closed = 1;
nodes = (
"16 427 LINE",
"16 391 LINE",
"47 393 LINE SMOOTH",
"56 394 OFFCURVE",
"60 384 OFFCURVE",
"60 373 CURVE SMOOTH",
"60 -29 LINE SMOOTH",
"60 -113 OFFCURVE",
"72 -137 OFFCURVE",
"72 -168 CURVE SMOOTH",
"72 -184 OFFCURVE",
"64 -206 OFFCURVE",
"47 -206 CURVE SMOOTH",
"35 -206 OFFCURVE",
"28 -198 OFFCURVE",
"28 -181 CURVE SMOOTH",
"28 -172 OFFCURVE",
"34 -160 OFFCURVE",
"34 -150 CURVE SMOOTH",
"34 -106 OFFCURVE",
"-11 -100 OFFCURVE",
"-27 -100 CURVE SMOOTH",
"-68 -100 OFFCURVE",
"-95 -125 OFFCURVE",
"-95 -163 CURVE SMOOTH",
"-95 -211 OFFCURVE",
"-46 -243 OFFCURVE",
"43 -243 CURVE SMOOTH",
"150 -243 OFFCURVE",
"206 -172 OFFCURVE",
"206 -14 CURVE SMOOTH",
"206 427 LINE"
);
}
);
width = 266;
}
);
unicode = 0237;
},
{
color = 4;
glyphname = k;
layers = (
{
anchors = (
{
name = bottom;
position = "{256, 0}";
}
);
layerId = UUID0;
paths = (
{
closed = 1;
nodes = (
"36 730 LINE",
"36 705 LINE",
"73 707 LINE SMOOTH",
"81 707 OFFCURVE",
"85 700 OFFCURVE",
"85 686 CURVE SMOOTH",
"85 43 LINE SMOOTH",
"85 32 OFFCURVE",
"81 26 OFFCURVE",
"72 24 CURVE",
"35 26 LINE",
"35 0 LINE",
"230 0 LINE",
"230 26 LINE",
"184 24 LINE SMOOTH",
"175 24 OFFCURVE",
"171 30 OFFCURVE",
"171 43 CURVE",
"171 730 LINE"
);
},
{
closed = 1;
nodes = (
"198 239 LINE",
"343 38 LINE SMOOTH",
"348 31 OFFCURVE",
"346 23 OFFCURVE",
"334 24 CURVE SMOOTH",
"289 26 LINE",
"289 0 LINE",
"504 0 LINE",
"504 26 LINE",
"468 24 LINE SMOOTH",
"460 24 OFFCURVE",
"449 31 OFFCURVE",
"441 42 CURVE SMOOTH",
"260 292 LINE"
);
},
{
closed = 1;
nodes = (
"288 420 LINE",
"288 395 LINE",
"331 397 LINE SMOOTH",
"343 398 OFFCURVE",
"341 384 OFFCURVE",
"334 377 CURVE",
"164 231 LINE",
"164 196 LINE",
"383 383 LINE",
"393 392 OFFCURVE",
"403 397 OFFCURVE",
"414 397 CURVE SMOOTH",
"450 395 LINE",
"450 420 LINE"
);
}
);
width = 511;
},
{
anchors = (
{
name = bottom;
position = "{261, 0}";
}
);
layerId = "F8700386-2E77-47FF-AAB4-DBF3F3ACCAC4";
paths = (
{
closed = 1;
nodes = (
"16 730 LINE",
"16 695 LINE",
"48 697 LINE SMOOTH",
"56 697 OFFCURVE",
"60 690 OFFCURVE",
"60 676 CURVE SMOOTH",
"60 53 LINE SMOOTH",
"60 42 OFFCURVE",
"56 36 OFFCURVE",
"47 34 CURVE",
"15 36 LINE",
"15 0 LINE",
"250 0 LINE",
"250 36 LINE",
"219 34 LINE SMOOTH",
"210 33 OFFCURVE",
"206 40 OFFCURVE",
"206 53 CURVE",
"206 730 LINE"
);
},
{
closed = 1;
nodes = (
"219 221 LINE",
"311 48 LINE SMOOTH",
"315 41 OFFCURVE",
"314 33 OFFCURVE",
"302 34 CURVE SMOOTH",
"272 36 LINE",
"272 0 LINE",
"521 0 LINE",
"521 36 LINE",
"495 34 LINE SMOOTH",
"487 33 OFFCURVE",
"474 41 OFFCURVE",
"468 52 CURVE SMOOTH",
"331 309 LINE"
);
},
{
closed = 1;
nodes = (
"319 427 LINE",
"319 392 LINE",
"362 394 LINE SMOOTH",
"374 395 OFFCURVE",
"372 381 OFFCURVE",
"365 374 CURVE",
"195 228 LINE",
"195 184 LINE",
"424 380 LINE",
"434 389 OFFCURVE",
"444 394 OFFCURVE",
"455 394 CURVE SMOOTH",
"491 392 LINE",
"491 427 LINE"
);
}
);
width = 528;
}
);
leftMetricsKey = "=n";
unicode = 006B;
},
{
color = 4;
glyphname = l;
layers = (
{
anchors = (
{
name = bottom;
position = "{128, 0}";
},
{
name = top;
position = "{128, 650}";
},
{
name = topright;
position = "{235, 598}";
}
);
layerId = UUID0;
paths = (
{
closed = 1;
nodes = (
"220 0 LINE",
"220 26 LINE",
"184 24 LINE SMOOTH",
"175 24 OFFCURVE",
"171 30 OFFCURVE",
"171 43 CURVE SMOOTH",
"171 731 LINE",
"36 731 LINE",
"36 706 LINE",
"73 708 LINE",
"81 705 OFFCURVE",
"85 698 OFFCURVE",
"85 687 CURVE SMOOTH",
"85 43 LINE SMOOTH",
"85 32 OFFCURVE",
"81 26 OFFCURVE",
"72 24 CURVE",
"35 26 LINE",
"35 0 LINE"
);
}
);
width = 255;
},
{
anchors = (
{
name = bottom;
position = "{128, 0}";
},
{
name = top;
position = "{132, 650}";
},
{
name = topright;
position = "{239, 598}";
}
);
layerId = "F8700386-2E77-47FF-AAB4-DBF3F3ACCAC4";
paths = (
{
closed = 1;
nodes = (
"250 0 LINE",
"250 36 LINE",
"219 34 LINE SMOOTH",
"210 33 OFFCURVE",
"206 40 OFFCURVE",
"206 53 CURVE SMOOTH",
"206 731 LINE",
"16 731 LINE",
"16 696 LINE",
"48 698 LINE",
"56 695 OFFCURVE",
"60 688 OFFCURVE",
"60 677 CURVE SMOOTH",
"60 53 LINE SMOOTH",
"60 42 OFFCURVE",
"56 36 OFFCURVE",
"47 34 CURVE",
"15 36 LINE",
"15 0 LINE"
);
}
);
width = 265;
}
);
leftMetricsKey = "=n";
rightMetricsKey = "=|n";
unicode = 006C;
},
{
color = 4;
glyphname = lacute;
layers = (
{
components = (
{
name = l;
}
);
layerId = UUID0;
paths = (
{
closed = 1;
nodes = (
"261 855 OFFCURVE",
"231 878 OFFCURVE",
"213 878 CURVE SMOOTH",
"206 878 OFFCURVE",
"199 876 OFFCURVE",
"186 866 CURVE SMOOTH",
"72 783 LINE SMOOTH",
"63 777 OFFCURVE",
"59 771 OFFCURVE",
"59 767 CURVE SMOOTH",
"59 761 OFFCURVE",
"66 758 OFFCURVE",
"73 758 CURVE SMOOTH",
"80 758 OFFCURVE",
"85 760 OFFCURVE",
"90 762 CURVE SMOOTH",
"251 834 LINE SMOOTH",
"257 837 OFFCURVE",
"261 840 OFFCURVE",
"261 845 CURVE SMOOTH"
);
}
);
width = 255;
},
{
components = (
{
name = l;
}
);
layerId = "F8700386-2E77-47FF-AAB4-DBF3F3ACCAC4";
paths = (
{
closed = 1;
nodes = (
"280 853 OFFCURVE",
"228 885 OFFCURVE",
"210 885 CURVE SMOOTH",
"201 885 OFFCURVE",
"194 880 OFFCURVE",
"178 868 CURVE SMOOTH",
"65 786 LINE SMOOTH",
"49 774 OFFCURVE",
"43 769 OFFCURVE",
"43 760 CURVE SMOOTH",
"43 752 OFFCURVE",
"48 748 OFFCURVE",
"59 748 CURVE SMOOTH",
"65 748 OFFCURVE",
"73 750 OFFCURVE",
"78 752 CURVE SMOOTH",
"262 815 LINE SMOOTH",
"274 819 OFFCURVE",
"280 825 OFFCURVE",
"280 832 CURVE SMOOTH"
);
}
);
width = 265;
}
);
unicode = 013A;
},
{
color = 4;
glyphname = ldot;
layers = (
{
background = {
paths = (
{
closed = 1;
nodes = (
"200 304 OFFCURVE",
"224 282 OFFCURVE",
"255 282 CURVE SMOOTH",
"286 282 OFFCURVE",
"310 304 OFFCURVE",
"310 334 CURVE SMOOTH",
"310 365 OFFCURVE",
"286 387 OFFCURVE",
"255 387 CURVE SMOOTH",
"224 387 OFFCURVE",
"200 364 OFFCURVE",
"200 334 CURVE SMOOTH"
);
}
);
};
components = (
{
name = l;
},
{
alignment = -1;
name = dotaccent;
transform = "{1, 0, 0, 1, 167, -241}";
}
);
layerId = UUID0;
width = 255;
},
{
components = (
{
name = l;
},
{
alignment = -1;
name = dotaccent;
transform = "{0.8, 0, 0, 1, 185, -241}";
}
);
layerId = "F8700386-2E77-47FF-AAB4-DBF3F3ACCAC4";
width = 265;
}
);
unicode = 0140;
},
{
color = 4;
glyphname = lslash;
layers = (
{
components = (
{
name = l;
}
);
guideLines = (
{
angle = 90;
position = "{25, 136}";
},
{
angle = 90;
position = "{230, 136}";
}
);
layerId = UUID0;
paths = (
{
closed = 1;
nodes = (
"25 301 LINE",
"138 395 LINE",
"138 440 LINE",
"25 346 LINE"
);
},
{
closed = 1;
nodes = (
"231 511 LINE",
"138 433 LINE",
"138 388 LINE",
"231 465 LINE"
);
}
);
width = 255;
},
{
components = (
{
name = l;
}
);
layerId = "F8700386-2E77-47FF-AAB4-DBF3F3ACCAC4";
paths = (
{
closed = 1;
nodes = (
"5 274 LINE",
"118 368 LINE",
"118 423 LINE",
"5 329 LINE"
);
},
{
closed = 1;
nodes = (
"261 536 LINE",
"168 458 LINE",
"168 403 LINE",
"261 480 LINE"
);
}
);
width = 265;
}
);
unicode = 0142;
},
{
color = 4;
glyphname = m;
layers = (
{
background = {
paths = (
{
closed = 1;
nodes = (
"236 430 OFFCURVE",
"184 379 OFFCURVE",
"168 318 CURVE",
"171 195 LINE",
"167 311 OFFCURVE",
"217 397 OFFCURVE",
"294 397 CURVE SMOOTH",
"354 397 OFFCURVE",
"365 371 OFFCURVE",
"365 272 CURVE SMOOTH",
"365 43 LINE SMOOTH",
"365 32 OFFCURVE",
"361 26 OFFCURVE",
"352 24 CURVE",
"306 26 LINE",
"306 0 LINE",
"511 0 LINE",
"511 26 LINE",
"464 24 LINE SMOOTH",
"455 24 OFFCURVE",
"451 30 OFFCURVE",
"451 43 CURVE SMOOTH",
"451 219 LINE",
"447 302 LINE",
"447 395 OFFCURVE",
"397 430 OFFCURVE",
"317 430 CURVE SMOOTH"
);
},
{
closed = 1;
nodes = (
"35 420 LINE",
"35 394 LINE",
"72 396 LINE SMOOTH",
"80 396 OFFCURVE",
"85 387 OFFCURVE",
"85 376 CURVE SMOOTH",
"85 43 LINE SMOOTH",
"85 32 OFFCURVE",
"81 26 OFFCURVE",
"72 24 CURVE",
"35 26 LINE",
"35 0 LINE",
"230 0 LINE",
"230 26 LINE",
"184 24 LINE SMOOTH",
"175 24 OFFCURVE",
"171 30 OFFCURVE",
"171 43 CURVE SMOOTH",
"172 386 LINE SMOOTH",
"172 400 OFFCURVE",
"174 411 OFFCURVE",
"177 420 CURVE"
);
},
{
closed = 1;
nodes = (
"524 430 OFFCURVE",
"464 387 OFFCURVE",
"444 303 CURVE",
"451 193 LINE",
"446 316 OFFCURVE",
"501 398 OFFCURVE",
"578 398 CURVE SMOOTH",
"639 398 OFFCURVE",
"645 355 OFFCURVE",
"645 270 CURVE SMOOTH",
"645 43 LINE SMOOTH",
"645 32 OFFCURVE",
"641 26 OFFCURVE",
"632 24 CURVE",
"586 26 LINE",
"586 0 LINE",
"781 0 LINE",
"781 26 LINE",
"744 24 LINE SMOOTH",
"735 24 OFFCURVE",
"731 30 OFFCURVE",
"731 43 CURVE SMOOTH",
"731 288 LINE SMOOTH",
"731 388 OFFCURVE",
"692 430 OFFCURVE",
"597 430 CURVE SMOOTH"
);
}
);
};
layerId = UUID0;
paths = (
{
closed = 1;
nodes = (
"35 420 LINE",
"35 394 LINE",
"72 396 LINE SMOOTH",
"80 396 OFFCURVE",
"85 387 OFFCURVE",
"85 376 CURVE SMOOTH",
"85 43 LINE SMOOTH",
"85 32 OFFCURVE",
"81 26 OFFCURVE",
"72 24 CURVE",
"35 26 LINE",
"35 0 LINE",
"230 0 LINE",
"230 26 LINE",
"184 24 LINE SMOOTH",
"175 24 OFFCURVE",
"171 30 OFFCURVE",
"171 43 CURVE SMOOTH",
"172 386 LINE SMOOTH",
"172 400 OFFCURVE",
"174 411 OFFCURVE",
"177 420 CURVE"
);
},
{
closed = 1;
nodes = (
"236 430 OFFCURVE",
"184 379 OFFCURVE",
"168 318 CURVE",
"171 195 LINE",
"167 311 OFFCURVE",
"217 397 OFFCURVE",
"294 397 CURVE SMOOTH",
"354 397 OFFCURVE",
"365 371 OFFCURVE",
"365 272 CURVE SMOOTH",
"365 43 LINE SMOOTH",
"365 32 OFFCURVE",
"361 26 OFFCURVE",
"352 24 CURVE",
"306 26 LINE",
"306 0 LINE",
"511 0 LINE",
"511 26 LINE",
"464 24 LINE SMOOTH",
"455 24 OFFCURVE",
"451 30 OFFCURVE",
"451 43 CURVE SMOOTH",
"451 267 LINE",
"451 401 OFFCURVE",
"397 430 OFFCURVE",
"317 430 CURVE SMOOTH"
);
},
{
closed = 1;
nodes = (
"524 430 OFFCURVE",
"464 387 OFFCURVE",
"444 303 CURVE",
"451 193 LINE",
"446 316 OFFCURVE",
"501 398 OFFCURVE",
"578 398 CURVE SMOOTH",
"639 398 OFFCURVE",
"645 355 OFFCURVE",
"645 270 CURVE SMOOTH",
"645 43 LINE SMOOTH",
"645 32 OFFCURVE",
"641 26 OFFCURVE",
"632 24 CURVE",
"586 26 LINE",
"586 0 LINE",
"781 0 LINE",
"781 26 LINE",
"744 24 LINE SMOOTH",
"735 24 OFFCURVE",
"731 30 OFFCURVE",
"731 43 CURVE SMOOTH",
"731 288 LINE SMOOTH",
"731 388 OFFCURVE",
"692 430 OFFCURVE",
"597 430 CURVE SMOOTH"
);
}
);
width = 801;
},
{
layerId = "F8700386-2E77-47FF-AAB4-DBF3F3ACCAC4";
paths = (
{
closed = 1;
nodes = (
"15 427 LINE",
"15 391 LINE",
"47 393 LINE",
"56 391 OFFCURVE",
"60 384 OFFCURVE",
"60 373 CURVE SMOOTH",
"60 53 LINE SMOOTH",
"60 42 OFFCURVE",
"56 36 OFFCURVE",
"47 34 CURVE",
"15 36 LINE",
"15 0 LINE",
"251 0 LINE",
"251 36 LINE",
"219 34 LINE SMOOTH",
"210 33 OFFCURVE",
"206 40 OFFCURVE",
"206 53 CURVE SMOOTH",
"206 392 LINE SMOOTH",
"206 407 OFFCURVE",
"208 418 OFFCURVE",
"211 427 CURVE"
);
},
{
closed = 1;
nodes = (
"281 437 OFFCURVE",
"228 392 OFFCURVE",
"200 322 CURVE",
"206 190 LINE",
"206 322 OFFCURVE",
"274 385 OFFCURVE",
"305 385 CURVE SMOOTH",
"332 385 OFFCURVE",
"335 354 OFFCURVE",
"335 300 CURVE SMOOTH",
"335 53 LINE SMOOTH",
"335 42 OFFCURVE",
"331 36 OFFCURVE",
"322 34 CURVE",
"290 36 LINE",
"290 0 LINE",
"526 0 LINE",
"526 36 LINE",
"494 34 LINE",
"485 34 OFFCURVE",
"481 40 OFFCURVE",
"481 53 CURVE SMOOTH",
"481 293 LINE SMOOTH",
"481 392 OFFCURVE",
"445 437 OFFCURVE",
"362 437 CURVE SMOOTH"
);
},
{
closed = 1;
nodes = (
"556 437 OFFCURVE",
"503 392 OFFCURVE",
"475 322 CURVE",
"481 190 LINE",
"481 322 OFFCURVE",
"549 385 OFFCURVE",
"580 385 CURVE SMOOTH",
"607 385 OFFCURVE",
"610 354 OFFCURVE",
"610 300 CURVE SMOOTH",
"610 53 LINE SMOOTH",
"610 42 OFFCURVE",
"606 36 OFFCURVE",
"597 34 CURVE",
"565 36 LINE",
"565 0 LINE",
"801 0 LINE",
"801 36 LINE",
"769 34 LINE",
"760 34 OFFCURVE",
"756 40 OFFCURVE",
"756 53 CURVE SMOOTH",
"756 293 LINE SMOOTH",
"756 392 OFFCURVE",
"720 437 OFFCURVE",
"637 437 CURVE SMOOTH"
);
}
);
width = 809;
}
);
leftKerningGroup = n;
leftMetricsKey = "=n";
rightKerningGroup = n;
rightMetricsKey = "=n";
unicode = 006D;
},
{
color = 4;
glyphname = n;
layers = (
{
anchors = (
{
name = bottom;
position = "{263, 0}";
},
{
name = top;
position = "{263, 420}";
}
);
layerId = UUID0;
paths = (
{
closed = 1;
nodes = (
"248 430 OFFCURVE",
"192 387 OFFCURVE",
"167 320 CURVE",
"171 193 LINE",
"167 316 OFFCURVE",
"219 398 OFFCURVE",
"302 398 CURVE SMOOTH",
"363 398 OFFCURVE",
"369 355 OFFCURVE",
"369 270 CURVE SMOOTH",
"369 43 LINE SMOOTH",
"369 32 OFFCURVE",
"365 26 OFFCURVE",
"356 24 CURVE",
"310 26 LINE",
"310 0 LINE",
"505 0 LINE",
"505 26 LINE",
"468 24 LINE SMOOTH",
"459 24 OFFCURVE",
"455 30 OFFCURVE",
"455 43 CURVE SMOOTH",
"455 288 LINE SMOOTH",
"455 388 OFFCURVE",
"416 430 OFFCURVE",
"321 430 CURVE SMOOTH"
);
},
{
closed = 1;
nodes = (
"35 420 LINE",
"35 394 LINE",
"72 396 LINE",
"81 394 OFFCURVE",
"85 387 OFFCURVE",
"85 376 CURVE SMOOTH",
"85 43 LINE SMOOTH",
"85 32 OFFCURVE",
"81 26 OFFCURVE",
"72 24 CURVE",
"35 26 LINE",
"35 0 LINE",
"230 0 LINE",
"230 26 LINE",
"184 24 LINE SMOOTH",
"175 24 OFFCURVE",
"171 30 OFFCURVE",
"171 43 CURVE",
"171 385 LINE",
"171 400 OFFCURVE",
"173 411 OFFCURVE",
"176 420 CURVE"
);
}
);
width = 525;
},
{
anchors = (
{
name = bottom;
position = "{277, 0}";
},
{
name = top;
position = "{277, 427}";
}
);
background = {
paths = (
{
closed = 1;
nodes = (
"236 430 OFFCURVE",
"180 387 OFFCURVE",
"155 320 CURVE",
"159 193 LINE",
"155 316 OFFCURVE",
"207 398 OFFCURVE",
"290 398 CURVE SMOOTH",
"351 398 OFFCURVE",
"357 355 OFFCURVE",
"357 270 CURVE SMOOTH",
"357 43 LINE SMOOTH",
"357 32 OFFCURVE",
"353 26 OFFCURVE",
"344 24 CURVE",
"298 26 LINE",
"298 0 LINE",
"493 0 LINE",
"493 26 LINE",
"456 24 LINE SMOOTH",
"447 24 OFFCURVE",
"443 30 OFFCURVE",
"443 43 CURVE SMOOTH",
"443 288 LINE SMOOTH",
"443 388 OFFCURVE",
"404 430 OFFCURVE",
"309 430 CURVE SMOOTH"
);
},
{
closed = 1;
nodes = (
"23 420 LINE",
"23 394 LINE",
"60 396 LINE",
"69 394 OFFCURVE",
"73 387 OFFCURVE",
"73 376 CURVE SMOOTH",
"73 43 LINE SMOOTH",
"73 32 OFFCURVE",
"69 26 OFFCURVE",
"60 24 CURVE",
"23 26 LINE",
"23 0 LINE",
"218 0 LINE",
"218 26 LINE",
"172 24 LINE SMOOTH",
"163 24 OFFCURVE",
"159 30 OFFCURVE",
"159 43 CURVE SMOOTH",
"159 219 LINE",
"159 320 LINE",
"159 385 LINE SMOOTH",
"159 400 OFFCURVE",
"161 411 OFFCURVE",
"164 420 CURVE"
);
}
);
};
layerId = "F8700386-2E77-47FF-AAB4-DBF3F3ACCAC4";
paths = (
{
closed = 1;
nodes = (
"281 437 OFFCURVE",
"228 392 OFFCURVE",
"200 322 CURVE",
"206 190 LINE",
"206 322 OFFCURVE",
"263 385 OFFCURVE",
"304 385 CURVE SMOOTH",
"341 385 OFFCURVE",
"345 354 OFFCURVE",
"345 300 CURVE SMOOTH",
"345 53 LINE SMOOTH",
"345 42 OFFCURVE",
"341 36 OFFCURVE",
"332 34 CURVE",
"296 36 LINE",
"296 0 LINE",
"536 0 LINE",
"536 36 LINE",
"504 34 LINE",
"495 34 OFFCURVE",
"491 40 OFFCURVE",
"491 53 CURVE SMOOTH",
"491 293 LINE SMOOTH",
"491 392 OFFCURVE",
"452 437 OFFCURVE",
"362 437 CURVE SMOOTH"
);
},
{
closed = 1;
nodes = (
"15 427 LINE",
"15 391 LINE",
"47 393 LINE",
"56 391 OFFCURVE",
"60 384 OFFCURVE",
"60 373 CURVE SMOOTH",
"60 53 LINE SMOOTH",
"60 42 OFFCURVE",
"56 36 OFFCURVE",
"47 34 CURVE",
"15 36 LINE",
"15 0 LINE",
"255 0 LINE",
"255 36 LINE",
"219 34 LINE",
"210 34 OFFCURVE",
"206 40 OFFCURVE",
"206 53 CURVE",
"206 392 LINE",
"206 407 OFFCURVE",
"208 418 OFFCURVE",
"211 427 CURVE"
);
}
);
width = 544;
}
);
leftKerningGroup = n;
rightKerningGroup = n;
unicode = 006E;
},
{
color = 4;
glyphname = o;
layers = (
{
anchors = (
{
name = top;
position = "{236, 420}";
}
);
layerId = UUID0;
paths = (
{
closed = 1;
nodes = (
"35 76 OFFCURVE",
"101 -10 OFFCURVE",
"236 -10 CURVE SMOOTH",
"371 -10 OFFCURVE",
"437 76 OFFCURVE",
"437 211 CURVE SMOOTH",
"437 343 OFFCURVE",
"371 430 OFFCURVE",
"236 430 CURVE SMOOTH",
"101 430 OFFCURVE",
"35 343 OFFCURVE",
"35 211 CURVE SMOOTH"
);
},
{
closed = 1;
nodes = (
"126 344 OFFCURVE",
"156 403 OFFCURVE",
"236 403 CURVE SMOOTH",
"316 403 OFFCURVE",
"346 344 OFFCURVE",
"346 209 CURVE SMOOTH",
"346 76 OFFCURVE",
"316 17 OFFCURVE",
"236 17 CURVE SMOOTH",
"156 17 OFFCURVE",
"126 76 OFFCURVE",
"126 209 CURVE SMOOTH"
);
}
);
width = 472;
},
{
anchors = (
{
name = top;
position = "{246, 427}";
}
);
background = {
paths = (
{
closed = 1;
nodes = (
"45 76 OFFCURVE",
"111 -10 OFFCURVE",
"246 -10 CURVE SMOOTH",
"381 -10 OFFCURVE",
"447 76 OFFCURVE",
"447 211 CURVE SMOOTH",
"447 343 OFFCURVE",
"381 430 OFFCURVE",
"246 430 CURVE SMOOTH",
"111 430 OFFCURVE",
"45 343 OFFCURVE",
"45 211 CURVE SMOOTH"
);
},
{
closed = 1;
nodes = (
"136 344 OFFCURVE",
"166 403 OFFCURVE",
"246 403 CURVE SMOOTH",
"326 403 OFFCURVE",
"356 344 OFFCURVE",
"356 209 CURVE SMOOTH",
"356 76 OFFCURVE",
"326 17 OFFCURVE",
"246 17 CURVE SMOOTH",
"166 17 OFFCURVE",
"136 76 OFFCURVE",
"136 209 CURVE SMOOTH"
);
}
);
};
layerId = "F8700386-2E77-47FF-AAB4-DBF3F3ACCAC4";
paths = (
{
closed = 1;
nodes = (
"15 67 OFFCURVE",
"90 -10 OFFCURVE",
"246 -10 CURVE SMOOTH",
"405 -10 OFFCURVE",
"477 67 OFFCURVE",
"477 214 CURVE SMOOTH",
"477 359 OFFCURVE",
"405 437 OFFCURVE",
"246 437 CURVE SMOOTH",
"90 437 OFFCURVE",
"15 359 OFFCURVE",
"15 214 CURVE SMOOTH"
);
},
{
closed = 1;
nodes = (
"171 353 OFFCURVE",
"195 400 OFFCURVE",
"246 400 CURVE SMOOTH",
"300 400 OFFCURVE",
"321 353 OFFCURVE",
"321 212 CURVE SMOOTH",
"321 74 OFFCURVE",
"300 27 OFFCURVE",
"246 27 CURVE SMOOTH",
"195 27 OFFCURVE",
"171 74 OFFCURVE",
"171 212 CURVE SMOOTH"
);
}
);
width = 492;
}
);
leftKerningGroup = o;
rightKerningGroup = o;
unicode = 006F;
},
{
color = 4;
glyphname = oslash;
layers = (
{
anchors = (
{
name = top;
position = "{236, 420}";
}
);
components = (
{
name = o;
}
);
layerId = UUID0;
paths = (
{
closed = 1;
nodes = (
"422 483 LINE",
"388 504 LINE",
"68 -68 LINE",
"106 -85 LINE"
);
}
);
width = 472;
},
{
anchors = (
{
name = top;
position = "{250, 427}";
}
);
components = (
{
name = o;
}
);
layerId = "F8700386-2E77-47FF-AAB4-DBF3F3ACCAC4";
paths = (
{
closed = 1;
nodes = (
"427 479 LINE",
"383 508 LINE",
"63 -64 LINE",
"111 -89 LINE"
);
}
);
width = 492;
}
);
leftKerningGroup = o;
rightKerningGroup = o;
unicode = 00F8;
},
{
color = 4;
glyphname = oe;
layers = (
{
anchors = (
{
name = top;
position = "{392, 420}";
}
);
layerId = UUID0;
paths = (
{
closed = 1;
nodes = (
"467 430 OFFCURVE",
"426 407 OFFCURVE",
"391 356 CURVE",
"361 405 OFFCURVE",
"306 430 OFFCURVE",
"227 430 CURVE SMOOTH",
"88 430 OFFCURVE",
"35 326 OFFCURVE",
"35 202 CURVE SMOOTH",
"35 79 OFFCURVE",
"105 -10 OFFCURVE",
"228 -10 CURVE SMOOTH",
"314 -10 OFFCURVE",
"351 8 OFFCURVE",
"391 64 CURVE",
"434 11 OFFCURVE",
"485 -10 OFFCURVE",
"556 -10 CURVE SMOOTH",
"637 -10 OFFCURVE",
"700 33 OFFCURVE",
"723 93 CURVE",
"700 110 LINE",
"687 70 OFFCURVE",
"627 23 OFFCURVE",
"568 23 CURVE SMOOTH",
"480 23 OFFCURVE",
"432 94 OFFCURVE",
"432 217 CURVE",
"726 217 LINE",
"726 239 LINE SMOOTH",
"726 359 OFFCURVE",
"660 430 OFFCURVE",
"551 430 CURVE SMOOTH"
);
},
{
closed = 1;
nodes = (
"315 403 OFFCURVE",
"345 356 OFFCURVE",
"345 207 CURVE SMOOTH",
"345 86 OFFCURVE",
"327 17 OFFCURVE",
"228 17 CURVE SMOOTH",
"148 17 OFFCURVE",
"126 101 OFFCURVE",
"126 203 CURVE SMOOTH",
"126 340 OFFCURVE",
"156 403 OFFCURVE",
"227 403 CURVE SMOOTH"
);
},
{
closed = 1;
nodes = (
"614 403 OFFCURVE",
"641 361 OFFCURVE",
"641 257 CURVE SMOOTH",
"641 250 OFFCURVE",
"638 242 OFFCURVE",
"629 242 CURVE SMOOTH",
"432 242 LINE",
"432 358 OFFCURVE",
"475 403 OFFCURVE",
"546 403 CURVE SMOOTH"
);
}
);
width = 761;
},
{
anchors = (
{
name = top;
position = "{396.636, 420}";
}
);
layerId = "F8700386-2E77-47FF-AAB4-DBF3F3ACCAC4";
paths = (
{
closed = 1;
nodes = (
"483.789 437 OFFCURVE",
"433.523 423.144 OFFCURVE",
"395.532 393.119 CURVE",
"358.979 422.292 OFFCURVE",
"309.456 437 OFFCURVE",
"246 437 CURVE SMOOTH",
"90 437 OFFCURVE",
"15 359 OFFCURVE",
"15 214 CURVE SMOOTH",
"15 67 OFFCURVE",
"90 -10 OFFCURVE",
"246 -10 CURVE SMOOTH",
"308.877 -10 OFFCURVE",
"358.074 4.441 OFFCURVE",
"394.529 33.087 CURVE",
"432.249 3.919 OFFCURVE",
"483.185 -10 OFFCURVE",
"549 -10 CURVE SMOOTH",
"651 -10 OFFCURVE",
"719 28 OFFCURVE",
"751 93 CURVE",
"723 112 LINE",
"704 74 OFFCURVE",
"660 33 OFFCURVE",
"593 33 CURVE SMOOTH",
"509 34 OFFCURVE",
"467 95 OFFCURVE",
"467 207 CURVE",
"755 207 LINE",
"755 246 LINE SMOOTH",
"755 372 OFFCURVE",
"669 437 OFFCURVE",
"546 437 CURVE SMOOTH"
);
},
{
closed = 1;
nodes = (
"300 400 OFFCURVE",
"321 353 OFFCURVE",
"321 212 CURVE SMOOTH",
"321 74 OFFCURVE",
"300 27 OFFCURVE",
"246 27 CURVE SMOOTH",
"195 27 OFFCURVE",
"171 74 OFFCURVE",
"171 212 CURVE SMOOTH",
"171 353 OFFCURVE",
"195 400 OFFCURVE",
"246 400 CURVE SMOOTH"
);
},
{
closed = 1;
nodes = (
"588 400 OFFCURVE",
"605 358 OFFCURVE",
"605 275 CURVE SMOOTH",
"605 248 OFFCURVE",
"597 242 OFFCURVE",
"585 242 CURVE SMOOTH",
"468 242 LINE",
"468 328 OFFCURVE",
"488 400 OFFCURVE",
"542 400 CURVE SMOOTH"
);
}
);
width = 770;
}
);
leftKerningGroup = o;
leftMetricsKey = "=o";
rightMetricsKey = "=e";
unicode = 0153;
},
{
color = 4;
glyphname = p;
layers = (
{
layerId = UUID0;
paths = (
{
closed = 1;
nodes = (
"220 430 OFFCURVE",
"174 396 OFFCURVE",
"155 340 CURVE",
"155 369 LINE SMOOTH",
"155 382 OFFCURVE",
"156 401 OFFCURVE",
"159 420 CURVE",
"20 420 LINE",
"20 394 LINE",
"56 396 LINE SMOOTH",
"65 396 OFFCURVE",
"69 389 OFFCURVE",
"69 376 CURVE SMOOTH",
"69 -195 LINE SMOOTH",
"69 -208 OFFCURVE",
"65 -214 OFFCURVE",
"56 -215 CURVE",
"24 -213 LINE",
"24 -239 LINE",
"230 -239 LINE",
"230 -213 LINE",
"168 -215 LINE SMOOTH",
"159 -215 OFFCURVE",
"155 -208 OFFCURVE",
"155 -195 CURVE SMOOTH",
"155 43 LINE",
"174 8 OFFCURVE",
"214 -10 OFFCURVE",
"269 -10 CURVE SMOOTH",
"400 -10 OFFCURVE",
"459 64 OFFCURVE",
"459 209 CURVE SMOOTH",
"459 350 OFFCURVE",
"404 430 OFFCURVE",
"287 430 CURVE SMOOTH"
);
},
{
closed = 1;
nodes = (
"350 403 OFFCURVE",
"368 353 OFFCURVE",
"368 209 CURVE SMOOTH",
"368 62 OFFCURVE",
"345 17 OFFCURVE",
"269 17 CURVE SMOOTH",
"198 17 OFFCURVE",
"157 64 OFFCURVE",
"157 184 CURVE SMOOTH",
"157 226 LINE SMOOTH",
"157 330 OFFCURVE",
"199 403 OFFCURVE",
"276 403 CURVE SMOOTH"
);
}
);
width = 494;
},
{
background = {
paths = (
{
closed = 1;
nodes = (
"493 366 OFFCURVE",
"453 430 OFFCURVE",
"334 430 CURVE SMOOTH",
"268 430 OFFCURVE",
"234 400 OFFCURVE",
"218 353 CURVE",
"218 356 OFFCURVE",
"220 369 OFFCURVE",
"220 382 CURVE SMOOTH",
"220 404 LINE SMOOTH",
"220 411 OFFCURVE",
"221 416 OFFCURVE",
"222 420 CURVE",
"24 420 LINE",
"24 394 LINE",
"56 396 LINE",
"65 397 OFFCURVE",
"69 390 OFFCURVE",
"69 377 CURVE SMOOTH",
"69 -310 LINE",
"274 -310 LINE",
"274 -285 LINE",
"228 -287 LINE",
"219 -287 OFFCURVE",
"215 -278 OFFCURVE",
"215 -267 CURVE SMOOTH",
"215 72 LINE",
"229 27 OFFCURVE",
"268 -10 OFFCURVE",
"334 -10 CURVE SMOOTH",
"439 -10 OFFCURVE",
"493 56 OFFCURVE",
"493 211 CURVE SMOOTH"
);
},
{
closed = 1;
nodes = (
"337 112 OFFCURVE",
"326 42 OFFCURVE",
"282 42 CURVE SMOOTH",
"236 42 OFFCURVE",
"217 103 OFFCURVE",
"217 194 CURVE SMOOTH",
"217 236 LINE SMOOTH",
"217 330 OFFCURVE",
"233 378 OFFCURVE",
"281 378 CURVE SMOOTH",
"326 378 OFFCURVE",
"337 334 OFFCURVE",
"337 211 CURVE SMOOTH"
);
}
);
};
layerId = "F8700386-2E77-47FF-AAB4-DBF3F3ACCAC4";
paths = (
{
closed = 1;
nodes = (
"258 437 OFFCURVE",
"225 403 OFFCURVE",
"206 352 CURVE",
"206 376 LINE SMOOTH",
"206 389 OFFCURVE",
"207 408 OFFCURVE",
"210 427 CURVE",
"15 427 LINE",
"15 391 LINE",
"47 393 LINE",
"58 393 OFFCURVE",
"60 381 OFFCURVE",
"60 373 CURVE SMOOTH",
"60 -185 LINE SMOOTH",
"60 -198 OFFCURVE",
"56 -204 OFFCURVE",
"47 -205 CURVE",
"19 -203 LINE",
"19 -239 LINE",
"281 -239 LINE",
"281 -203 LINE",
"219 -205 LINE SMOOTH",
"207 -205 OFFCURVE",
"206 -192 OFFCURVE",
"206 -185 CURVE SMOOTH",
"206 38 LINE",
"225 8 OFFCURVE",
"265 -10 OFFCURVE",
"320 -10 CURVE SMOOTH",
"451 -10 OFFCURVE",
"510 65 OFFCURVE",
"510 212 CURVE SMOOTH",
"510 366 OFFCURVE",
"455 437 OFFCURVE",
"338 437 CURVE SMOOTH"
);
},
{
closed = 1;
nodes = (
"341 385 OFFCURVE",
"354 342 OFFCURVE",
"354 212 CURVE SMOOTH",
"354 84 OFFCURVE",
"338 42 OFFCURVE",
"285 42 CURVE SMOOTH",
"237 42 OFFCURVE",
"208 84 OFFCURVE",
"208 187 CURVE SMOOTH",
"208 230 LINE SMOOTH",
"208 323 OFFCURVE",
"238 385 OFFCURVE",
"290 385 CURVE SMOOTH"
);
}
);
width = 530;
}
);
leftKerningGroup = n;
rightKerningGroup = o;
unicode = 0070;
},
{
color = 4;
glyphname = thorn;
layers = (
{
layerId = UUID0;
paths = (
{
closed = 1;
nodes = (
"20 730 LINE",
"20 704 LINE",
"56 706 LINE SMOOTH",
"65 706 OFFCURVE",
"69 699 OFFCURVE",
"69 686 CURVE SMOOTH",
"69 -195 LINE SMOOTH",
"69 -208 OFFCURVE",
"65 -214 OFFCURVE",
"56 -215 CURVE",
"24 -213 LINE",
"24 -239 LINE",
"230 -239 LINE",
"230 -213 LINE",
"168 -215 LINE SMOOTH",
"159 -215 OFFCURVE",
"155 -208 OFFCURVE",
"155 -195 CURVE SMOOTH",
"155 43 LINE",
"174 8 OFFCURVE",
"214 -10 OFFCURVE",
"269 -10 CURVE SMOOTH",
"400 -10 OFFCURVE",
"459 64 OFFCURVE",
"459 209 CURVE SMOOTH",
"459 350 OFFCURVE",
"404 430 OFFCURVE",
"287 430 CURVE SMOOTH",
"220 430 OFFCURVE",
"174 396 OFFCURVE",
"155 340 CURVE",
"155 730 LINE"
);
},
{
closed = 1;
nodes = (
"350 403 OFFCURVE",
"368 353 OFFCURVE",
"368 209 CURVE SMOOTH",
"368 62 OFFCURVE",
"345 17 OFFCURVE",
"269 17 CURVE SMOOTH",
"198 17 OFFCURVE",
"157 64 OFFCURVE",
"157 184 CURVE SMOOTH",
"157 226 LINE SMOOTH",
"157 330 OFFCURVE",
"199 403 OFFCURVE",
"276 403 CURVE SMOOTH"
);
}
);
width = 494;
},
{
layerId = "F8700386-2E77-47FF-AAB4-DBF3F3ACCAC4";
paths = (
{
closed = 1;
nodes = (
"15 731 LINE",
"15 696 LINE",
"47 698 LINE",
"55 695 OFFCURVE",
"59 688 OFFCURVE",
"59 677 CURVE SMOOTH",
"59 -185 LINE SMOOTH",
"59 -198 OFFCURVE",
"55 -204 OFFCURVE",
"46 -205 CURVE",
"18 -203 LINE",
"18 -239 LINE",
"280 -239 LINE",
"280 -203 LINE",
"218 -205 LINE SMOOTH",
"206 -205 OFFCURVE",
"205 -192 OFFCURVE",
"205 -185 CURVE SMOOTH",
"205 38 LINE",
"224 8 OFFCURVE",
"264 -10 OFFCURVE",
"319 -10 CURVE SMOOTH",
"450 -10 OFFCURVE",
"509 64 OFFCURVE",
"509 209 CURVE SMOOTH",
"509 360 OFFCURVE",
"454 430 OFFCURVE",
"337 430 CURVE SMOOTH",
"257 430 OFFCURVE",
"224 396 OFFCURVE",
"205 345 CURVE",
"205 731 LINE"
);
},
{
closed = 1;
nodes = (
"340 378 OFFCURVE",
"353 336 OFFCURVE",
"353 209 CURVE SMOOTH",
"353 83 OFFCURVE",
"337 42 OFFCURVE",
"284 42 CURVE SMOOTH",
"236 42 OFFCURVE",
"207 83 OFFCURVE",
"207 184 CURVE SMOOTH",
"207 226 LINE SMOOTH",
"207 317 OFFCURVE",
"237 378 OFFCURVE",
"289 378 CURVE SMOOTH"
);
}
);
width = 529;
}
);
leftMetricsKey = "=p";
rightKerningGroup = o;
rightMetricsKey = "=p";
unicode = 00FE;
},
{
color = 4;
glyphname = q;
layers = (
{
layerId = UUID0;
paths = (
{
closed = 1;
nodes = (
"95 430 OFFCURVE",
"35 354 OFFCURVE",
"35 209 CURVE SMOOTH",
"35 37 OFFCURVE",
"103 -10 OFFCURVE",
"222 -10 CURVE SMOOTH",
"286 -10 OFFCURVE",
"326 25 OFFCURVE",
"339 62 CURVE",
"339 -195 LINE SMOOTH",
"339 -207 OFFCURVE",
"335 -213 OFFCURVE",
"326 -214 CURVE",
"270 -213 LINE",
"270 -239 LINE",
"470 -239 LINE",
"470 -213 LINE",
"438 -214 LINE",
"429 -215 OFFCURVE",
"425 -208 OFFCURVE",
"425 -195 CURVE SMOOTH",
"425 420 LINE",
"392 420 LINE",
"392 373 OFFCURVE",
"378 361 OFFCURVE",
"361 361 CURVE SMOOTH",
"350 361 OFFCURVE",
"344 371 OFFCURVE",
"341 375 CURVE SMOOTH",
"312 415 OFFCURVE",
"280 430 OFFCURVE",
"224 430 CURVE SMOOTH"
);
},
{
closed = 1;
nodes = (
"318 403 OFFCURVE",
"337 298 OFFCURVE",
"337 226 CURVE SMOOTH",
"337 185 LINE SMOOTH",
"337 124 OFFCURVE",
"310 17 OFFCURVE",
"227 17 CURVE SMOOTH",
"164 17 OFFCURVE",
"127 41 OFFCURVE",
"127 209 CURVE SMOOTH",
"127 350 OFFCURVE",
"158 403 OFFCURVE",
"231 403 CURVE SMOOTH"
);
}
);
width = 490;
},
{
layerId = "F8700386-2E77-47FF-AAB4-DBF3F3ACCAC4";
paths = (
{
closed = 1;
nodes = (
"83 437 OFFCURVE",
"20 358 OFFCURVE",
"20 213 CURVE SMOOTH",
"20 71 OFFCURVE",
"81 -10 OFFCURVE",
"191 -10 CURVE SMOOTH",
"270 -10 OFFCURVE",
"311 31 OFFCURVE",
"324 62 CURVE",
"324 -185 LINE SMOOTH",
"324 -197 OFFCURVE",
"320 -203 OFFCURVE",
"311 -204 CURVE",
"255 -204 LINE",
"255 -239 LINE",
"510 -239 LINE",
"510 -204 LINE",
"483 -204 LINE",
"474 -205 OFFCURVE",
"470 -198 OFFCURVE",
"470 -185 CURVE SMOOTH",
"470 427 LINE",
"387 427 LINE",
"387 381 OFFCURVE",
"369 368 OFFCURVE",
"350 368 CURVE SMOOTH",
"334 368 OFFCURVE",
"329 378 OFFCURVE",
"326 382 CURVE SMOOTH",
"297 421 OFFCURVE",
"255 437 OFFCURVE",
"201 437 CURVE SMOOTH"
);
},
{
closed = 1;
nodes = (
"307 385 OFFCURVE",
"322 310 OFFCURVE",
"322 233 CURVE SMOOTH",
"322 188 LINE SMOOTH",
"322 131 OFFCURVE",
"304 42 OFFCURVE",
"241 42 CURVE SMOOTH",
"196 42 OFFCURVE",
"176 87 OFFCURVE",
"176 222 CURVE SMOOTH",
"176 335 OFFCURVE",
"190 385 OFFCURVE",
"243 385 CURVE SMOOTH"
);
}
);
width = 520;
}
);
leftKerningGroup = o;
leftMetricsKey = "=d";
unicode = 0071;
},
{
color = 4;
glyphname = r;
layers = (
{
anchors = (
{
name = bottom;
position = "{137, 0}";
},
{
name = top;
position = "{142, 420}";
}
);
annotations = (
{
angle = 256.752;
position = "{311, 283}";
type = Arrow;
},
{
position = "{240.234, 203.477}";
text = "Ajustar la gota";
type = Text;
}
);
background = {
paths = (
{
closed = 1;
nodes = (
"22 96 OFFCURVE",
"97 14 OFFCURVE",
"223 14 CURVE SMOOTH",
"312 14 OFFCURVE",
"370 60 OFFCURVE",
"393 130 CURVE",
"369 148 LINE",
"352 77 OFFCURVE",
"291 41 OFFCURVE",
"228 41 CURVE SMOOTH",
"152 41 OFFCURVE",
"115 106 OFFCURVE",
"115 241 CURVE SMOOTH",
"115 385 OFFCURVE",
"157 427 OFFCURVE",
"221 427 CURVE SMOOTH",
"260 427 OFFCURVE",
"299 411 OFFCURVE",
"299 375 CURVE SMOOTH",
"299 357 OFFCURVE",
"290 348 OFFCURVE",
"290 332 CURVE SMOOTH",
"290 311 OFFCURVE",
"304 302 OFFCURVE",
"325 302 CURVE SMOOTH",
"361 302 OFFCURVE",
"373 328 OFFCURVE",
"373 352 CURVE SMOOTH",
"373 410 OFFCURVE",
"301 454 OFFCURVE",
"218 454 CURVE SMOOTH",
"101 454 OFFCURVE",
"22 367 OFFCURVE",
"22 230 CURVE SMOOTH"
);
}
);
};
layerId = UUID0;
paths = (
{
closed = 1;
nodes = (
"170 374 LINE SMOOTH",
"170 390 OFFCURVE",
"173 412 OFFCURVE",
"176 420 CURVE",
"35 420 LINE",
"35 394 LINE",
"71 396 LINE",
"80 396 OFFCURVE",
"84 389 OFFCURVE",
"84 376 CURVE SMOOTH",
"84 43 LINE SMOOTH",
"84 30 OFFCURVE",
"80 24 OFFCURVE",
"71 24 CURVE",
"39 26 LINE",
"39 0 LINE",
"244 0 LINE",
"244 26 LINE",
"183 24 LINE SMOOTH",
"174 24 OFFCURVE",
"170 30 OFFCURVE",
"170 43 CURVE SMOOTH"
);
},
{
closed = 1;
nodes = (
"170 198 LINE",
"167 270 OFFCURVE",
"203 402 OFFCURVE",
"275 402 CURVE SMOOTH",
"293 402 OFFCURVE",
"298 390 OFFCURVE",
"298 381 CURVE SMOOTH",
"298 364 OFFCURVE",
"290 354 OFFCURVE",
"290 336 CURVE SMOOTH",
"290 313 OFFCURVE",
"311 305 OFFCURVE",
"327 305 CURVE SMOOTH",
"351 305 OFFCURVE",
"369 320 OFFCURVE",
"369 352 CURVE SMOOTH",
"369 395 OFFCURVE",
"341 430 OFFCURVE",
"287 430 CURVE SMOOTH",
"237 430 OFFCURVE",
"197 398 OFFCURVE",
"164 310 CURVE"
);
}
);
width = 383;
},
{
associatedMasterId = UUID0;
layerId = "B579E737-50B8-4A00-9018-7F07312C2559";
name = "Regular Oct 8 13, 18:53";
paths = (
{
closed = 1;
nodes = (
"71 396 LINE SMOOTH",
"80 396 OFFCURVE",
"84 389 OFFCURVE",
"84 376 CURVE SMOOTH",
"84 43 LINE SMOOTH",
"84 30 OFFCURVE",
"80 24 OFFCURVE",
"71 24 CURVE SMOOTH",
"39 26 LINE",
"39 0 LINE",
"244 0 LINE",
"244 26 LINE",
"183 24 LINE SMOOTH",
"174 24 OFFCURVE",
"170 30 OFFCURVE",
"170 43 CURVE SMOOTH",
"170 208 LINE SMOOTH",
"170 277 OFFCURVE",
"203 392 OFFCURVE",
"265 392 CURVE SMOOTH",
"288 392 OFFCURVE",
"293 383 OFFCURVE",
"293 375 CURVE SMOOTH",
"293 364 OFFCURVE",
"289 359 OFFCURVE",
"289 350 CURVE SMOOTH",
"289 329 OFFCURVE",
"314 324 OFFCURVE",
"330 324 CURVE SMOOTH",
"356 324 OFFCURVE",
"369 339 OFFCURVE",
"369 370 CURVE SMOOTH",
"369 407 OFFCURVE",
"343 430 OFFCURVE",
"294 430 CURVE SMOOTH",
"247 430 OFFCURVE",
"201 402 OFFCURVE",
"170 326 CURVE",
"170 374 LINE SMOOTH",
"170 390 OFFCURVE",
"173 412 OFFCURVE",
"176 420 CURVE",
"35 420 LINE",
"35 394 LINE"
);
}
);
width = 383;
},
{
anchors = (
{
name = bottom;
position = "{144, 0}";
},
{
name = top;
position = "{141, 427}";
}
);
layerId = "F8700386-2E77-47FF-AAB4-DBF3F3ACCAC4";
paths = (
{
closed = 1;
nodes = (
"206 381 LINE SMOOTH",
"206 397 OFFCURVE",
"209 419 OFFCURVE",
"212 427 CURVE",
"16 427 LINE",
"16 391 LINE",
"47 393 LINE",
"56 393 OFFCURVE",
"60 386 OFFCURVE",
"60 373 CURVE SMOOTH",
"60 53 LINE SMOOTH",
"60 40 OFFCURVE",
"56 34 OFFCURVE",
"47 34 CURVE",
"20 36 LINE",
"20 0 LINE",
"290 0 LINE",
"290 36 LINE",
"219 34 LINE SMOOTH",
"210 34 OFFCURVE",
"206 40 OFFCURVE",
"206 53 CURVE SMOOTH"
);
},
{
closed = 1;
nodes = (
"206 193 LINE",
"206 271 OFFCURVE",
"237 384 OFFCURVE",
"291 384 CURVE SMOOTH",
"305 384 OFFCURVE",
"309 373 OFFCURVE",
"309 362 CURVE SMOOTH",
"309 348 OFFCURVE",
"302 336 OFFCURVE",
"302 322 CURVE SMOOTH",
"302 292 OFFCURVE",
"333 278 OFFCURVE",
"362 278 CURVE SMOOTH",
"395 278 OFFCURVE",
"427 297 OFFCURVE",
"427 343 CURVE SMOOTH",
"427 400 OFFCURVE",
"381 437 OFFCURVE",
"324 437 CURVE SMOOTH",
"269 437 OFFCURVE",
"223 403 OFFCURVE",
"200 317 CURVE"
);
}
);
width = 431;
}
);
leftKerningGroup = n;
rightKerningGroup = r;
unicode = 0072;
},
{
color = 4;
glyphname = s;
layers = (
{
anchors = (
{
name = bottom;
position = "{216, 0}";
},
{
name = top;
position = "{206, 420}";
}
);
layerId = UUID0;
paths = (
{
closed = 1;
nodes = (
"50 14 OFFCURVE",
"60 16 OFFCURVE",
"73 16 CURVE SMOOTH",
"80 16 OFFCURVE",
"89 15 OFFCURVE",
"100 12 CURVE SMOOTH",
"160 -5 OFFCURVE",
"183 -10 OFFCURVE",
"212 -10 CURVE SMOOTH",
"308 -10 OFFCURVE",
"378 37 OFFCURVE",
"378 126 CURVE SMOOTH",
"378 182 OFFCURVE",
"356 219 OFFCURVE",
"285 239 CURVE SMOOTH",
"189 266 LINE SMOOTH",
"148 277 OFFCURVE",
"127 299 OFFCURVE",
"127 332 CURVE SMOOTH",
"127 372 OFFCURVE",
"156 403 OFFCURVE",
"208 403 CURVE SMOOTH",
"284 403 OFFCURVE",
"325 352 OFFCURVE",
"325 302 CURVE",
"347 302 LINE",
"353 416 LINE",
"345 411 OFFCURVE",
"333 408 OFFCURVE",
"325 408 CURVE SMOOTH",
"292 408 OFFCURVE",
"258 430 OFFCURVE",
"205 430 CURVE SMOOTH",
"109 430 OFFCURVE",
"52 378 OFFCURVE",
"52 306 CURVE SMOOTH",
"52 249 OFFCURVE",
"86 210 OFFCURVE",
"138 195 CURVE SMOOTH",
"234 168 LINE SMOOTH",
"286 153 OFFCURVE",
"304 130 OFFCURVE",
"304 93 CURVE SMOOTH",
"304 46 OFFCURVE",
"273 17 OFFCURVE",
"220 17 CURVE SMOOTH",
"142 17 OFFCURVE",
"75 69 OFFCURVE",
"75 144 CURVE",
"49 142 LINE",
"44 10 LINE"
);
}
);
width = 411;
},
{
anchors = (
{
name = bottom;
position = "{221, 0}";
},
{
name = top;
position = "{223, 427}";
}
);
background = {
paths = (
{
closed = 1;
nodes = (
"50 14 OFFCURVE",
"60 16 OFFCURVE",
"73 16 CURVE SMOOTH",
"80 16 OFFCURVE",
"89 15 OFFCURVE",
"100 12 CURVE SMOOTH",
"160 -5 OFFCURVE",
"183 -10 OFFCURVE",
"212 -10 CURVE SMOOTH",
"308 -10 OFFCURVE",
"378 37 OFFCURVE",
"378 126 CURVE SMOOTH",
"378 182 OFFCURVE",
"356 219 OFFCURVE",
"285 239 CURVE SMOOTH",
"189 266 LINE SMOOTH",
"148 277 OFFCURVE",
"127 299 OFFCURVE",
"127 332 CURVE SMOOTH",
"127 372 OFFCURVE",
"156 403 OFFCURVE",
"208 403 CURVE SMOOTH",
"284 403 OFFCURVE",
"325 352 OFFCURVE",
"325 302 CURVE",
"347 302 LINE",
"353 416 LINE",
"345 411 OFFCURVE",
"333 408 OFFCURVE",
"325 408 CURVE SMOOTH",
"292 408 OFFCURVE",
"258 430 OFFCURVE",
"205 430 CURVE SMOOTH",
"109 430 OFFCURVE",
"52 378 OFFCURVE",
"52 306 CURVE SMOOTH",
"52 249 OFFCURVE",
"86 210 OFFCURVE",
"138 195 CURVE SMOOTH",
"234 168 LINE SMOOTH",
"286 153 OFFCURVE",
"304 130 OFFCURVE",
"304 93 CURVE SMOOTH",
"304 46 OFFCURVE",
"273 17 OFFCURVE",
"220 17 CURVE SMOOTH",
"142 17 OFFCURVE",
"75 69 OFFCURVE",
"75 144 CURVE",
"49 142 LINE",
"44 10 LINE"
);
}
);
};
layerId = "F8700386-2E77-47FF-AAB4-DBF3F3ACCAC4";
paths = (
{
closed = 1;
nodes = (
"38 14 OFFCURVE",
"49 16 OFFCURVE",
"63 16 CURVE SMOOTH",
"70 16 OFFCURVE",
"80 15 OFFCURVE",
"92 12 CURVE SMOOTH",
"157 -5 OFFCURVE",
"181 -10 OFFCURVE",
"214 -10 CURVE SMOOTH",
"319 -10 OFFCURVE",
"392 45 OFFCURVE",
"392 144 CURVE SMOOTH",
"392 209 OFFCURVE",
"371 262 OFFCURVE",
"263 288 CURVE SMOOTH",
"203 303 LINE SMOOTH",
"169 311 OFFCURVE",
"151 329 OFFCURVE",
"151 352 CURVE SMOOTH",
"151 379 OFFCURVE",
"176 400 OFFCURVE",
"215 400 CURVE SMOOTH",
"291 400 OFFCURVE",
"332 354 OFFCURVE",
"332 309 CURVE",
"364 309 LINE",
"370 423 LINE",
"361 418 OFFCURVE",
"349 415 OFFCURVE",
"340 415 CURVE SMOOTH",
"303 415 OFFCURVE",
"265 437 OFFCURVE",
"206 437 CURVE SMOOTH",
"97 437 OFFCURVE",
"38 376 OFFCURVE",
"38 292 CURVE SMOOTH",
"38 222 OFFCURVE",
"72 176 OFFCURVE",
"161 152 CURVE SMOOTH",
"224 135 LINE SMOOTH",
"271 124 OFFCURVE",
"286 108 OFFCURVE",
"286 81 CURVE SMOOTH",
"286 47 OFFCURVE",
"259 27 OFFCURVE",
"219 27 CURVE SMOOTH",
"140 27 OFFCURVE",
"73 75 OFFCURVE",
"73 144 CURVE",
"37 142 LINE",
"32 10 LINE"
);
}
);
width = 416;
}
);
leftKerningGroup = s;
rightKerningGroup = s;
unicode = 0073;
},
{
color = 4;
glyphname = germandbls;
layers = (
{
layerId = UUID0;
paths = (
{
closed = 1;
nodes = (
"144 737 OFFCURVE",
"84 669 OFFCURVE",
"84 512 CURVE SMOOTH",
"84 48 LINE SMOOTH",
"84 36 OFFCURVE",
"80 27 OFFCURVE",
"71 27 CURVE SMOOTH",
"35 29 LINE",
"35 0 LINE",
"230 0 LINE",
"230 29 LINE",
"184 27 LINE SMOOTH",
"175 27 OFFCURVE",
"170 37 OFFCURVE",
"170 48 CURVE SMOOTH",
"170 434 LINE SMOOTH",
"170 483 OFFCURVE",
"155 566 OFFCURVE",
"155 601 CURVE SMOOTH",
"155 670 OFFCURVE",
"197 712 OFFCURVE",
"258 712 CURVE SMOOTH",
"322 712 OFFCURVE",
"359 671 OFFCURVE",
"359 612 CURVE SMOOTH",
"359 559 OFFCURVE",
"335 540 OFFCURVE",
"291 506 CURVE SMOOTH",
"228 457 OFFCURVE",
"210 430 OFFCURVE",
"210 386 CURVE SMOOTH",
"210 347 OFFCURVE",
"244 314 OFFCURVE",
"289 281 CURVE SMOOTH",
"375 219 LINE SMOOTH",
"423 184 OFFCURVE",
"450 142 OFFCURVE",
"450 99 CURVE SMOOTH",
"450 43 OFFCURVE",
"417 21 OFFCURVE",
"370 21 CURVE SMOOTH",
"347 21 OFFCURVE",
"343 29 OFFCURVE",
"343 40 CURVE SMOOTH",
"343 48 OFFCURVE",
"345 58 OFFCURVE",
"345 67 CURVE SMOOTH",
"345 88 OFFCURVE",
"332 107 OFFCURVE",
"300 107 CURVE SMOOTH",
"271 107 OFFCURVE",
"252 87 OFFCURVE",
"252 57 CURVE SMOOTH",
"252 19 OFFCURVE",
"305 -8 OFFCURVE",
"374 -8 CURVE SMOOTH",
"451 -8 OFFCURVE",
"529 44 OFFCURVE",
"529 139 CURVE SMOOTH",
"529 195 OFFCURVE",
"496 238 OFFCURVE",
"440 277 CURVE",
"353 340 LINE",
"314 367 OFFCURVE",
"289 396 OFFCURVE",
"289 427 CURVE SMOOTH",
"289 470 OFFCURVE",
"309 487 OFFCURVE",
"344 509 CURVE SMOOTH",
"394 540 OFFCURVE",
"438 569 OFFCURVE",
"438 622 CURVE SMOOTH",
"438 693 OFFCURVE",
"366 737 OFFCURVE",
"257 737 CURVE SMOOTH"
);
}
);
width = 528;
},
{
layerId = "F8700386-2E77-47FF-AAB4-DBF3F3ACCAC4";
paths = (
{
closed = 1;
nodes = (
"137 737 OFFCURVE",
"59 672 OFFCURVE",
"59 512 CURVE SMOOTH",
"59 48 LINE SMOOTH",
"59 37 OFFCURVE",
"55 27 OFFCURVE",
"47 27 CURVE",
"15 29 LINE",
"15 0 LINE",
"250 0 LINE",
"250 29 LINE",
"219 27 LINE",
"210 27 OFFCURVE",
"205 37 OFFCURVE",
"205 48 CURVE SMOOTH",
"205 434 LINE SMOOTH",
"205 484 OFFCURVE",
"190 563 OFFCURVE",
"190 604 CURVE SMOOTH",
"190 660 OFFCURVE",
"217 702 OFFCURVE",
"266 702 CURVE SMOOTH",
"318 702 OFFCURVE",
"344 655 OFFCURVE",
"344 583 CURVE SMOOTH",
"344 541 OFFCURVE",
"335 506 OFFCURVE",
"321 481 CURVE SMOOTH",
"295 433 OFFCURVE",
"251 411 OFFCURVE",
"251 355 CURVE SMOOTH",
"251 316 OFFCURVE",
"273 285 OFFCURVE",
"314 250 CURVE SMOOTH",
"369 203 LINE SMOOTH",
"406 171 OFFCURVE",
"425 132 OFFCURVE",
"425 89 CURVE SMOOTH",
"425 44 OFFCURVE",
"404 21 OFFCURVE",
"379 21 CURVE SMOOTH",
"363 21 OFFCURVE",
"360 31 OFFCURVE",
"360 39 CURVE SMOOTH",
"360 52 OFFCURVE",
"367 66 OFFCURVE",
"367 83 CURVE SMOOTH",
"367 104 OFFCURVE",
"356 125 OFFCURVE",
"318 125 CURVE SMOOTH",
"279 125 OFFCURVE",
"255 103 OFFCURVE",
"255 67 CURVE SMOOTH",
"255 18 OFFCURVE",
"299 -8 OFFCURVE",
"379 -8 CURVE SMOOTH",
"488 -8 OFFCURVE",
"564 41 OFFCURVE",
"564 130 CURVE SMOOTH",
"564 174 OFFCURVE",
"545 214 OFFCURVE",
"507 249 CURVE SMOOTH",
"442 308 LINE SMOOTH",
"391 354 OFFCURVE",
"360 383 OFFCURVE",
"360 417 CURVE SMOOTH",
"360 437 OFFCURVE",
"370 456 OFFCURVE",
"384 471 CURVE SMOOTH",
"416 506 OFFCURVE",
"483 543 OFFCURVE",
"483 618 CURVE SMOOTH",
"483 695 OFFCURVE",
"412 737 OFFCURVE",
"289 737 CURVE SMOOTH"
);
}
);
width = 575;
}
);
leftMetricsKey = "=n";
unicode = 00DF;
},
{
color = 4;
glyphname = t;
layers = (
{
anchors = (
{
name = bottom;
position = "{157, 0}";
},
{
name = center;
position = "{157, 213}";
},
{
name = topright;
position = "{245, 598}";
}
);
layerId = UUID0;
paths = (
{
closed = 1;
nodes = (
"143 522 LINE",
"122 434 OFFCURVE",
"100 420 OFFCURVE",
"25 420 CURVE",
"25 395 LINE",
"85 395 LINE",
"85 96 LINE SMOOTH",
"85 24 OFFCURVE",
"111 -6 OFFCURVE",
"179 -6 CURVE SMOOTH",
"240 -6 OFFCURVE",
"272 14 OFFCURVE",
"285 50 CURVE",
"264 63 LINE",
"257 40 OFFCURVE",
"231 23 OFFCURVE",
"212 23 CURVE SMOOTH",
"181 23 OFFCURVE",
"171 37 OFFCURVE",
"171 88 CURVE SMOOTH",
"171 395 LINE",
"281 395 LINE",
"281 420 LINE",
"171 420 LINE",
"171 522 LINE"
);
}
);
width = 313;
},
{
anchors = (
{
name = bottom;
position = "{169, 0}";
},
{
name = center;
position = "{169, 213}";
},
{
name = topright;
position = "{257, 598}";
}
);
layerId = "F8700386-2E77-47FF-AAB4-DBF3F3ACCAC4";
paths = (
{
closed = 1;
nodes = (
"123 529 LINE",
"102 441 OFFCURVE",
"80 427 OFFCURVE",
"5 427 CURVE",
"5 392 LINE",
"65 392 LINE",
"65 87 LINE SMOOTH",
"65 15 OFFCURVE",
"129 -10 OFFCURVE",
"208 -10 CURVE SMOOTH",
"258 -10 OFFCURVE",
"300 5 OFFCURVE",
"320 52 CURVE",
"290 68 LINE",
"279 41 OFFCURVE",
"260 30 OFFCURVE",
"246 30 CURVE SMOOTH",
"226 30 OFFCURVE",
"211 38 OFFCURVE",
"211 87 CURVE SMOOTH",
"211 392 LINE",
"306 392 LINE",
"306 427 LINE",
"211 427 LINE",
"211 529 LINE"
);
}
);
width = 329;
}
);
leftKerningGroup = t;
unicode = 0074;
},
{
color = 4;
glyphname = u;
layers = (
{
anchors = (
{
name = ogonek;
position = "{442, 14}";
},
{
name = top;
position = "{262, 420}";
}
);
layerId = UUID0;
paths = (
{
closed = 1;
nodes = (
"20 420 LINE",
"20 394 LINE",
"56 396 LINE SMOOTH",
"65 396 OFFCURVE",
"69 389 OFFCURVE",
"69 376 CURVE SMOOTH",
"69 148 LINE SMOOTH",
"69 36 OFFCURVE",
"106 -10 OFFCURVE",
"195 -10 CURVE SMOOTH",
"274 -10 OFFCURVE",
"332 27 OFFCURVE",
"357 98 CURVE",
"353 226 LINE",
"358 100 OFFCURVE",
"300 23 OFFCURVE",
"216 23 CURVE SMOOTH",
"164 23 OFFCURVE",
"155 64 OFFCURVE",
"155 148 CURVE SMOOTH",
"155 420 LINE"
);
},
{
closed = 1;
nodes = (
"294 420 LINE",
"294 394 LINE",
"341 396 LINE SMOOTH",
"349 396 OFFCURVE",
"353 389 OFFCURVE",
"353 375 CURVE",
"352 72 LINE",
"352 20 OFFCURVE",
"350 7 OFFCURVE",
"347 0 CURVE",
"489 0 LINE",
"489 26 LINE",
"453 24 LINE SMOOTH",
"444 24 OFFCURVE",
"440 30 OFFCURVE",
"440 43 CURVE SMOOTH",
"440 420 LINE"
);
}
);
width = 524;
},
{
anchors = (
{
name = ogonek;
position = "{477, 10}";
},
{
name = top;
position = "{253, 427}";
}
);
layerId = "F8700386-2E77-47FF-AAB4-DBF3F3ACCAC4";
paths = (
{
closed = 1;
nodes = (
"8 427 LINE",
"8 391 LINE",
"40 393 LINE",
"49 393 OFFCURVE",
"53 387 OFFCURVE",
"53 374 CURVE SMOOTH",
"53 134 LINE SMOOTH",
"53 35 OFFCURVE",
"91 -10 OFFCURVE",
"178 -10 CURVE SMOOTH",
"256 -10 OFFCURVE",
"307 35 OFFCURVE",
"334 105 CURVE",
"328 237 LINE",
"328 105 OFFCURVE",
"275 42 OFFCURVE",
"237 42 CURVE SMOOTH",
"203 42 OFFCURVE",
"199 73 OFFCURVE",
"199 127 CURVE SMOOTH",
"199 427 LINE"
);
},
{
closed = 1;
nodes = (
"279 427 LINE",
"279 391 LINE",
"315 393 LINE SMOOTH",
"324 393 OFFCURVE",
"328 387 OFFCURVE",
"328 374 CURVE SMOOTH",
"328 35 LINE SMOOTH",
"328 20 OFFCURVE",
"326 9 OFFCURVE",
"323 0 CURVE",
"519 0 LINE",
"519 36 LINE",
"487 34 LINE",
"478 36 OFFCURVE",
"474 43 OFFCURVE",
"474 54 CURVE SMOOTH",
"474 427 LINE"
);
}
);
width = 534;
}
);
leftKerningGroup = u;
leftMetricsKey = "=|n";
rightMetricsKey = "=|n";
unicode = 0075;
},
{
color = 4;
glyphname = v;
layers = (
{
layerId = UUID0;
paths = (
{
closed = 1;
nodes = (
"244 102 LINE",
"131 376 LINE SMOOTH",
"127 387 OFFCURVE",
"137 396 OFFCURVE",
"146 396 CURVE SMOOTH",
"190 394 LINE",
"190 420 LINE",
"-13 420 LINE",
"-13 394 LINE",
"20 396 LINE SMOOTH",
"29 396 OFFCURVE",
"37 390 OFFCURVE",
"40 383 CURVE SMOOTH",
"194 -5 LINE",
"221 -5 LINE"
);
},
{
closed = 1;
nodes = (
"221 -5 LINE",
"379 381 LINE SMOOTH",
"383 392 OFFCURVE",
"391 396 OFFCURVE",
"402 396 CURVE SMOOTH",
"435 394 LINE",
"435 420 LINE",
"294 420 LINE",
"294 394 LINE",
"338 396 LINE SMOOTH",
"349 397 OFFCURVE",
"349 387 OFFCURVE",
"346 380 CURVE SMOOTH",
"196 2 LINE"
);
}
);
width = 444;
},
{
layerId = "F8700386-2E77-47FF-AAB4-DBF3F3ACCAC4";
paths = (
{
closed = 1;
nodes = (
"299 132 LINE",
"199 373 LINE SMOOTH",
"194 384 OFFCURVE",
"205 393 OFFCURVE",
"214 393 CURVE",
"254 391 LINE",
"254 427 LINE",
"-13 427 LINE",
"-13 391 LINE",
"19 393 LINE",
"28 394 OFFCURVE",
"36 387 OFFCURVE",
"39 380 CURVE SMOOTH",
"192 -5 LINE",
"265 -5 LINE"
);
},
{
closed = 1;
nodes = (
"265 -5 LINE",
"421 378 LINE",
"425 389 OFFCURVE",
"433 394 OFFCURVE",
"444 393 CURVE SMOOTH",
"476 391 LINE",
"476 427 LINE",
"330 427 LINE",
"330 391 LINE",
"370 393 LINE",
"381 394 OFFCURVE",
"381 384 OFFCURVE",
"378 377 CURVE SMOOTH",
"230 2 LINE"
);
}
);
width = 485;
}
);
leftKerningGroup = v;
rightKerningGroup = v;
unicode = 0076;
},
{
color = 4;
glyphname = w;
layers = (
{
anchors = (
{
name = top;
position = "{385, 420}";
}
);
layerId = UUID0;
paths = (
{
closed = 1;
nodes = (
"341 321 LINE",
"483 -10 LINE",
"505 -10 LINE",
"654 379 LINE SMOOTH",
"658 391 OFFCURVE",
"667 396 OFFCURVE",
"675 396 CURVE SMOOTH",
"716 394 LINE",
"716 420 LINE",
"557 420 LINE",
"557 394 LINE",
"610 396 LINE SMOOTH",
"625 397 OFFCURVE",
"624 387 OFFCURVE",
"621 379 CURVE SMOOTH",
"517 93 LINE",
"536 93 LINE",
"393 425 LINE",
"372 425 LINE",
"225 88 LINE",
"243 88 LINE",
"141 376 LINE SMOOTH",
"137 387 OFFCURVE",
"141 397 OFFCURVE",
"156 396 CURVE SMOOTH",
"200 394 LINE",
"200 420 LINE",
"-13 420 LINE",
"-13 394 LINE",
"33 396 LINE SMOOTH",
"41 396 OFFCURVE",
"47 390 OFFCURVE",
"50 383 CURVE SMOOTH",
"191 -10 LINE",
"211 -10 LINE",
"358 321 LINE"
);
}
);
width = 725;
},
{
anchors = (
{
name = top;
position = "{417, 427}";
}
);
layerId = "F8700386-2E77-47FF-AAB4-DBF3F3ACCAC4";
paths = (
{
closed = 1;
nodes = (
"352 289 LINE",
"479 -10 LINE",
"534 -10 LINE",
"682 376 LINE SMOOTH",
"687 388 OFFCURVE",
"695 393 OFFCURVE",
"703 393 CURVE SMOOTH",
"739 391 LINE",
"739 427 LINE",
"575 427 LINE",
"575 391 LINE",
"628 393 LINE SMOOTH",
"643 394 OFFCURVE",
"642 384 OFFCURVE",
"639 376 CURVE SMOOTH",
"547 124 LINE",
"577 124 LINE",
"447 432 LINE",
"391 432 LINE",
"260 124 LINE",
"284 124 LINE",
"196 373 LINE SMOOTH",
"192 384 OFFCURVE",
"196 394 OFFCURVE",
"211 393 CURVE SMOOTH",
"255 391 LINE",
"255 427 LINE",
"-13 427 LINE",
"-13 391 LINE",
"28 393 LINE SMOOTH",
"36 393 OFFCURVE",
"42 387 OFFCURVE",
"45 380 CURVE SMOOTH",
"185 -10 LINE",
"238 -10 LINE",
"370 289 LINE"
);
}
);
width = 748;
}
);
leftKerningGroup = v;
leftMetricsKey = "=v";
rightKerningGroup = v;
rightMetricsKey = "=v";
unicode = 0077;
},
{
color = 4;
glyphname = x;
layers = (
{
layerId = UUID0;
paths = (
{
closed = 1;
nodes = (
"199 213 LINE",
"69 37 LINE SMOOTH",
"62 28 OFFCURVE",
"55 24 OFFCURVE",
"48 24 CURVE SMOOTH",
"5 26 LINE",
"5 0 LINE",
"157 0 LINE",
"157 26 LINE",
"114 24 LINE SMOOTH",
"105 24 OFFCURVE",
"101 27 OFFCURVE",
"101 34 CURVE SMOOTH",
"101 35 OFFCURVE",
"102 37 OFFCURVE",
"103 38 CURVE SMOOTH",
"216 189 LINE"
);
},
{
closed = 1;
nodes = (
"270 232 LINE",
"379 381 LINE SMOOTH",
"386 390 OFFCURVE",
"397 396 OFFCURVE",
"404 396 CURVE SMOOTH",
"446 394 LINE",
"446 420 LINE",
"297 420 LINE",
"297 394 LINE",
"340 396 LINE SMOOTH",
"351 396 OFFCURVE",
"351 386 OFFCURVE",
"346 379 CURVE SMOOTH",
"253 255 LINE"
);
},
{
closed = 1;
nodes = (
"313 37 LINE",
"317 32 OFFCURVE",
"315 22 OFFCURVE",
"306 23 CURVE SMOOTH",
"257 26 LINE",
"257 0 LINE",
"478 0 LINE",
"478 26 LINE",
"434 24 LINE SMOOTH",
"427 24 OFFCURVE",
"421 28 OFFCURVE",
"415 37 CURVE",
"171 383 LINE",
"164 391 OFFCURVE",
"172 396 OFFCURVE",
"180 396 CURVE SMOOTH",
"226 394 LINE",
"226 420 LINE",
"11 420 LINE",
"11 394 LINE",
"50 396 LINE SMOOTH",
"57 396 OFFCURVE",
"64 392 OFFCURVE",
"69 383 CURVE"
);
}
);
width = 486;
},
{
layerId = "F8700386-2E77-47FF-AAB4-DBF3F3ACCAC4";
paths = (
{
closed = 1;
nodes = (
"191 223 LINE",
"66 47 LINE SMOOTH",
"60 38 OFFCURVE",
"52 34 OFFCURVE",
"45 34 CURVE SMOOTH",
"7 36 LINE",
"7 0 LINE",
"164 0 LINE",
"164 36 LINE",
"121 34 LINE SMOOTH",
"112 34 OFFCURVE",
"108 37 OFFCURVE",
"108 44 CURVE SMOOTH",
"108 45 OFFCURVE",
"109 47 OFFCURVE",
"110 48 CURVE SMOOTH",
"218 199 LINE"
);
},
{
closed = 1;
nodes = (
"333 204 LINE",
"468 378 LINE SMOOTH",
"475 387 OFFCURVE",
"486 393 OFFCURVE",
"493 393 CURVE SMOOTH",
"530 391 LINE",
"530 427 LINE",
"376 427 LINE",
"376 391 LINE",
"419 393 LINE SMOOTH",
"430 393 OFFCURVE",
"430 383 OFFCURVE",
"425 376 CURVE SMOOTH",
"306 227 LINE"
);
},
{
closed = 1;
nodes = (
"293 47 LINE",
"297 42 OFFCURVE",
"295 32 OFFCURVE",
"286 33 CURVE SMOOTH",
"237 36 LINE",
"237 0 LINE",
"523 0 LINE",
"523 36 LINE",
"484 34 LINE SMOOTH",
"477 34 OFFCURVE",
"471 38 OFFCURVE",
"465 47 CURVE",
"230 380 LINE",
"223 388 OFFCURVE",
"231 393 OFFCURVE",
"239 393 CURVE SMOOTH",
"285 391 LINE",
"285 427 LINE",
"5 427 LINE",
"5 391 LINE",
"39 393 LINE SMOOTH",
"46 393 OFFCURVE",
"53 389 OFFCURVE",
"58 380 CURVE"
);
}
);
width = 535;
}
);
unicode = 0078;
},
{
color = 4;
glyphname = y;
layers = (
{
anchors = (
{
name = top;
position = "{248, 420}";
}
);
layerId = UUID0;
paths = (
{
closed = 1;
nodes = (
"276 99 LINE",
"149 379 LINE SMOOTH",
"145 387 OFFCURVE",
"152 396 OFFCURVE",
"161 396 CURVE SMOOTH",
"206 394 LINE",
"206 420 LINE",
"-13 420 LINE",
"-13 394 LINE",
"36 396 LINE SMOOTH",
"44 396 OFFCURVE",
"48 391 OFFCURVE",
"52 383 CURVE SMOOTH",
"231 -9 LINE"
);
},
{
closed = 1;
nodes = (
"167 -135 LINE",
"154 -168 OFFCURVE",
"136 -181 OFFCURVE",
"121 -181 CURVE SMOOTH",
"93 -181 OFFCURVE",
"99 -139 OFFCURVE",
"58 -139 CURVE SMOOTH",
"39 -139 OFFCURVE",
"19 -155 OFFCURVE",
"19 -190 CURVE SMOOTH",
"22 -222 OFFCURVE",
"50 -239 OFFCURVE",
"85 -239 CURVE SMOOTH",
"138 -239 OFFCURVE",
"171 -211 OFFCURVE",
"203 -132 CURVE SMOOTH",
"414 377 LINE SMOOTH",
"420 390 OFFCURVE",
"428 396 OFFCURVE",
"439 396 CURVE SMOOTH",
"441 396 LINE",
"482 394 LINE",
"482 420 LINE",
"327 420 LINE",
"327 394 LINE",
"374 396 LINE SMOOTH",
"385 396 OFFCURVE",
"387 389 OFFCURVE",
"384 381 CURVE"
);
}
);
width = 485;
},
{
anchors = (
{
name = top;
position = "{280, 427}";
}
);
layerId = "F8700386-2E77-47FF-AAB4-DBF3F3ACCAC4";
paths = (
{
closed = 1;
nodes = (
"330 146 LINE",
"215 376 LINE SMOOTH",
"211 384 OFFCURVE",
"218 393 OFFCURVE",
"227 393 CURVE SMOOTH",
"272 391 LINE",
"272 427 LINE",
"2 427 LINE",
"2 391 LINE",
"37 393 LINE SMOOTH",
"45 393 OFFCURVE",
"49 388 OFFCURVE",
"53 380 CURVE SMOOTH",
"253 -35 LINE"
);
},
{
closed = 1;
nodes = (
"197 -113 LINE SMOOTH",
"181 -151 OFFCURVE",
"173 -163 OFFCURVE",
"154 -163 CURVE SMOOTH",
"122 -163 OFFCURVE",
"132 -99 OFFCURVE",
"67 -99 CURVE SMOOTH",
"38 -99 OFFCURVE",
"4 -121 OFFCURVE",
"4 -168 CURVE SMOOTH",
"7 -216 OFFCURVE",
"43 -239 OFFCURVE",
"94 -239 CURVE SMOOTH",
"156 -239 OFFCURVE",
"199 -212 OFFCURVE",
"241 -111 CURVE SMOOTH",
"443 374 LINE SMOOTH",
"448 387 OFFCURVE",
"457 393 OFFCURVE",
"468 393 CURVE SMOOTH",
"470 393 LINE",
"506 391 LINE",
"506 427 LINE",
"346 427 LINE",
"346 391 LINE",
"393 393 LINE SMOOTH",
"404 393 OFFCURVE",
"406 386 OFFCURVE",
"403 378 CURVE"
);
}
);
width = 506;
}
);
leftKerningGroup = y;
rightKerningGroup = v;
unicode = 0079;
},
{
color = 4;
glyphname = z;
layers = (
{
anchors = (
{
name = top;
position = "{221, 420}";
}
);
layerId = UUID0;
paths = (
{
closed = 1;
nodes = (
"296 415 LINE",
"34 18 LINE",
"34 -2 LINE",
"46 -2 OFFCURVE",
"87 0 OFFCURVE",
"138 0 CURVE SMOOTH",
"190 0 LINE",
"398 0 LINE",
"398 139 LINE",
"377 139 LINE",
"377 63 OFFCURVE",
"332 25 OFFCURVE",
"248 25 CURVE SMOOTH",
"123 25 LINE",
"131 8 LINE",
"388 401 LINE",
"388 420 LINE",
"201 420 LINE",
"150 420 LINE SMOOTH",
"99 420 OFFCURVE",
"58 422 OFFCURVE",
"54 422 CURVE",
"45 280 LINE",
"66 280 LINE",
"77 352 OFFCURVE",
"117 395 OFFCURVE",
"185 395 CURVE SMOOTH",
"306 395 LINE"
);
}
);
width = 441;
},
{
anchors = (
{
name = top;
position = "{221, 427}";
}
);
layerId = "F8700386-2E77-47FF-AAB4-DBF3F3ACCAC4";
paths = (
{
closed = 1;
nodes = (
"251 422 LINE",
"34 28 LINE",
"34 -2 LINE",
"46 -2 OFFCURVE",
"87 0 OFFCURVE",
"138 0 CURVE SMOOTH",
"190 0 LINE",
"408 0 LINE",
"408 139 LINE",
"377 139 LINE",
"377 70 OFFCURVE",
"332 35 OFFCURVE",
"248 35 CURVE SMOOTH",
"133 35 LINE",
"193 8 LINE",
"402 398 LINE",
"402 427 LINE",
"205 427 LINE",
"151 427 LINE SMOOTH",
"100 427 OFFCURVE",
"59 429 OFFCURVE",
"55 429 CURVE",
"46 287 LINE",
"77 287 LINE",
"87 353 OFFCURVE",
"124 392 OFFCURVE",
"186 392 CURVE SMOOTH",
"310 392 LINE"
);
}
);
width = 443;
}
);
leftKerningGroup = n;
unicode = 007A;
},
{
color = 4;
glyphname = f.ss01;
layers = (
{
background = {
components = (
{
name = f;
}
);
paths = (
{
closed = 1;
nodes = (
"250 0 LINE",
"250 26 LINE",
"184 24 LINE SMOOTH",
"175 24 OFFCURVE",
"171 30 OFFCURVE",
"171 43 CURVE SMOOTH",
"171 395 LINE",
"277 395 LINE",
"277 420 LINE",
"170 420 LINE",
"170 449 LINE SMOOTH",
"170 494 OFFCURVE",
"161 544 OFFCURVE",
"161 597 CURVE SMOOTH",
"161 688 OFFCURVE",
"198 711 OFFCURVE",
"232 711 CURVE SMOOTH",
"253 711 OFFCURVE",
"262 698 OFFCURVE",
"262 683 CURVE SMOOTH",
"262 674 OFFCURVE",
"255 670 OFFCURVE",
"255 650 CURVE SMOOTH",
"255 633 OFFCURVE",
"276 624 OFFCURVE",
"291 624 CURVE SMOOTH",
"310 624 OFFCURVE",
"331 635 OFFCURVE",
"331 668 CURVE SMOOTH",
"331 711 OFFCURVE",
"294 736 OFFCURVE",
"231 736 CURVE SMOOTH",
"109 736 OFFCURVE",
"85 623 OFFCURVE",
"85 486 CURVE SMOOTH",
"85 420 LINE",
"46 420 LINE",
"46 395 LINE",
"85 395 LINE",
"85 43 LINE SMOOTH",
"85 30 OFFCURVE",
"91 24 OFFCURVE",
"82 24 CURVE SMOOTH",
"35 26 LINE",
"35 0 LINE"
);
}
);
};
layerId = UUID0;
paths = (
{
closed = 1;
nodes = (
"250 0 LINE",
"250 26 LINE",
"184 24 LINE SMOOTH",
"175 24 OFFCURVE",
"171 30 OFFCURVE",
"171 43 CURVE SMOOTH",
"171 395 LINE",
"277 395 LINE",
"277 420 LINE",
"170 420 LINE",
"170 449 LINE SMOOTH",
"170 490 OFFCURVE",
"164 553 OFFCURVE",
"164 589 CURVE SMOOTH",
"164 690 OFFCURVE",
"197 709 OFFCURVE",
"227 709 CURVE SMOOTH",
"247 709 OFFCURVE",
"257 694 OFFCURVE",
"257 677 CURVE SMOOTH",
"257 658 OFFCURVE",
"248 649 OFFCURVE",
"248 633 CURVE SMOOTH",
"248 613 OFFCURVE",
"262 604 OFFCURVE",
"283 604 CURVE SMOOTH",
"317 604 OFFCURVE",
"331 627 OFFCURVE",
"331 653 CURVE SMOOTH",
"331 700 OFFCURVE",
"285 736 OFFCURVE",
"234 736 CURVE SMOOTH",
"108 736 OFFCURVE",
"85 597 OFFCURVE",
"85 486 CURVE SMOOTH",
"85 420 LINE",
"46 420 LINE",
"46 395 LINE",
"85 395 LINE",
"85 43 LINE SMOOTH",
"85 30 OFFCURVE",
"81 24 OFFCURVE",
"72 24 CURVE",
"35 26 LINE",
"35 0 LINE"
);
}
);
width = 296;
},
{
layerId = "F8700386-2E77-47FF-AAB4-DBF3F3ACCAC4";
paths = (
{
closed = 1;
nodes = (
"295 0 LINE",
"295 36 LINE",
"224 34 LINE SMOOTH",
"215 34 OFFCURVE",
"211 40 OFFCURVE",
"211 53 CURVE SMOOTH",
"211 385 LINE",
"295 385 LINE",
"295 420 LINE",
"210 420 LINE",
"210 470 LINE SMOOTH",
"210 562 OFFCURVE",
"173 583 OFFCURVE",
"173 637 CURVE SMOOTH",
"173 682 OFFCURVE",
"184 699 OFFCURVE",
"199 699 CURVE SMOOTH",
"214 699 OFFCURVE",
"218 684 OFFCURVE",
"218 675 CURVE SMOOTH",
"218 660 OFFCURVE",
"212 644 OFFCURVE",
"212 627 CURVE SMOOTH",
"212 601 OFFCURVE",
"242 586 OFFCURVE",
"267 586 CURVE SMOOTH",
"312 586 OFFCURVE",
"329 617 OFFCURVE",
"329 645 CURVE SMOOTH",
"329 705 OFFCURVE",
"276 736 OFFCURVE",
"207 736 CURVE SMOOTH",
"87 736 OFFCURVE",
"65 630 OFFCURVE",
"65 556 CURVE SMOOTH",
"65 420 LINE",
"26 420 LINE",
"26 385 LINE",
"65 385 LINE",
"65 53 LINE SMOOTH",
"65 40 OFFCURVE",
"61 34 OFFCURVE",
"52 34 CURVE",
"15 36 LINE",
"15 0 LINE"
);
}
);
width = 315;
}
);
},
{
color = 4;
glyphname = fl;
layers = (
{
components = (
{
name = f.ss01;
}
);
layerId = UUID0;
paths = (
{
closed = 1;
nodes = (
"516 0 LINE",
"516 26 LINE",
"480 24 LINE SMOOTH",
"471 24 OFFCURVE",
"467 30 OFFCURVE",
"467 43 CURVE SMOOTH",
"467 731 LINE",
"340 731 LINE",
"340 706 LINE",
"369 708 LINE",
"377 705 OFFCURVE",
"381 698 OFFCURVE",
"381 687 CURVE SMOOTH",
"381 43 LINE SMOOTH",
"381 32 OFFCURVE",
"377 26 OFFCURVE",
"368 24 CURVE",
"331 26 LINE",
"331 0 LINE"
);
}
);
width = 551;
},
{
components = (
{
name = f.ss01;
}
);
layerId = "F8700386-2E77-47FF-AAB4-DBF3F3ACCAC4";
paths = (
{
closed = 1;
nodes = (
"585 0 LINE",
"585 36 LINE",
"554 34 LINE SMOOTH",
"545 33 OFFCURVE",
"541 40 OFFCURVE",
"541 53 CURVE SMOOTH",
"541 731 LINE",
"349 731 LINE",
"349 696 LINE",
"383 698 LINE",
"391 695 OFFCURVE",
"395 688 OFFCURVE",
"395 677 CURVE SMOOTH",
"395 53 LINE SMOOTH",
"395 42 OFFCURVE",
"391 36 OFFCURVE",
"382 34 CURVE",
"330 36 LINE",
"330 0 LINE"
);
}
);
width = 600;
}
);
leftMetricsKey = f;
rightMetricsKey = l;
unicode = FB02;
},
{
color = 4;
glyphname = ordfeminine;
layers = (
{
layerId = UUID0;
paths = (
{
closed = 1;
nodes = (
"44 365 OFFCURVE",
"72 342 OFFCURVE",
"128 342 CURVE SMOOTH",
"171 342 OFFCURVE",
"199 360 OFFCURVE",
"214 397 CURVE",
"211 350 LINE",
"306 350 LINE",
"306 374 LINE",
"276 373 LINE SMOOTH",
"272 373 OFFCURVE",
"270 375 OFFCURVE",
"270 380 CURVE SMOOTH",
"270 527 LINE SMOOTH",
"270 588 OFFCURVE",
"235 615 OFFCURVE",
"158 615 CURVE SMOOTH",
"89 615 OFFCURVE",
"55 594 OFFCURVE",
"55 561 CURVE SMOOTH",
"55 540 OFFCURVE",
"66 529 OFFCURVE",
"87 529 CURVE SMOOTH",
"107 529 OFFCURVE",
"117 539 OFFCURVE",
"117 558 CURVE SMOOTH",
"117 585 OFFCURVE",
"119 592 OFFCURVE",
"158 592 CURVE SMOOTH",
"193 592 OFFCURVE",
"210 575 OFFCURVE",
"210 542 CURVE SMOOTH",
"210 505 LINE",
"94 505 OFFCURVE",
"44 475 OFFCURVE",
"44 411 CURVE SMOOTH"
);
},
{
closed = 1;
nodes = (
"107 461 OFFCURVE",
"138 482 OFFCURVE",
"210 482 CURVE",
"210 457 LINE SMOOTH",
"210 410 OFFCURVE",
"180 373 OFFCURVE",
"145 373 CURVE SMOOTH",
"122 373 OFFCURVE",
"107 387 OFFCURVE",
"107 416 CURVE SMOOTH"
);
}
);
width = 350;
},
{
layerId = "F8700386-2E77-47FF-AAB4-DBF3F3ACCAC4";
paths = (
{
closed = 1;
nodes = (
"12 365 OFFCURVE",
"40 342 OFFCURVE",
"96 342 CURVE SMOOTH",
"139 342 OFFCURVE",
"177 357 OFFCURVE",
"192 387 CURVE",
"189 350 LINE",
"329 350 LINE",
"329 384 LINE",
"304 383 LINE",
"300 383 OFFCURVE",
"298 385 OFFCURVE",
"298 390 CURVE SMOOTH",
"298 527 LINE SMOOTH",
"298 588 OFFCURVE",
"255 615 OFFCURVE",
"155 615 CURVE SMOOTH",
"65 615 OFFCURVE",
"23 592 OFFCURVE",
"23 555 CURVE SMOOTH",
"23 524 OFFCURVE",
"50 509 OFFCURVE",
"76 509 CURVE SMOOTH",
"106 509 OFFCURVE",
"130 522 OFFCURVE",
"130 548 CURVE SMOOTH",
"130 575 OFFCURVE",
"131 582 OFFCURVE",
"159 582 CURVE SMOOTH",
"180 582 OFFCURVE",
"188 567 OFFCURVE",
"188 538 CURVE SMOOTH",
"188 495 LINE",
"60 495 OFFCURVE",
"12 468 OFFCURVE",
"12 411 CURVE SMOOTH"
);
},
{
closed = 1;
nodes = (
"125 448 OFFCURVE",
"135 462 OFFCURVE",
"188 462 CURVE",
"188 449 LINE SMOOTH",
"188 415 OFFCURVE",
"173 388 OFFCURVE",
"150 388 CURVE SMOOTH",
"133 388 OFFCURVE",
"125 400 OFFCURVE",
"125 419 CURVE SMOOTH"
);
}
);
width = 341;
}
);
unicode = 00AA;
},
{
color = 4;
glyphname = ordmasculine;
layers = (
{
layerId = UUID0;
paths = (
{
closed = 1;
nodes = (
"44 404 OFFCURVE",
"86 344 OFFCURVE",
"175 344 CURVE SMOOTH",
"259 344 OFFCURVE",
"307 395 OFFCURVE",
"307 480 CURVE SMOOTH",
"307 569 OFFCURVE",
"255 618 OFFCURVE",
"175 618 CURVE SMOOTH",
"94 618 OFFCURVE",
"44 567 OFFCURVE",
"44 480 CURVE SMOOTH"
);
},
{
closed = 1;
nodes = (
"115 561 OFFCURVE",
"127 594 OFFCURVE",
"175 594 CURVE SMOOTH",
"223 594 OFFCURVE",
"236 565 OFFCURVE",
"236 480 CURVE SMOOTH",
"236 388 OFFCURVE",
"219 368 OFFCURVE",
"175 368 CURVE SMOOTH",
"124 368 OFFCURVE",
"115 401 OFFCURVE",
"115 480 CURVE SMOOTH"
);
}
);
width = 351;
},
{
layerId = "F8700386-2E77-47FF-AAB4-DBF3F3ACCAC4";
paths = (
{
closed = 1;
nodes = (
"14 404 OFFCURVE",
"65 344 OFFCURVE",
"175 344 CURVE SMOOTH",
"277 344 OFFCURVE",
"337 395 OFFCURVE",
"337 480 CURVE SMOOTH",
"337 569 OFFCURVE",
"273 618 OFFCURVE",
"175 618 CURVE SMOOTH",
"76 618 OFFCURVE",
"14 567 OFFCURVE",
"14 480 CURVE SMOOTH"
);
},
{
closed = 1;
nodes = (
"135 554 OFFCURVE",
"143 584 OFFCURVE",
"175 584 CURVE SMOOTH",
"207 584 OFFCURVE",
"216 558 OFFCURVE",
"216 480 CURVE SMOOTH",
"216 396 OFFCURVE",
"205 378 OFFCURVE",
"175 378 CURVE SMOOTH",
"141 378 OFFCURVE",
"135 408 OFFCURVE",
"135 480 CURVE SMOOTH"
);
}
);
width = 351;
}
);
unicode = 00BA;
},
{
color = 4;
glyphname = Delta;
layers = (
{
layerId = UUID0;
paths = (
{
closed = 1;
nodes = (
"562 0 LINE",
"308 607 LINE",
"282 607 LINE",
"27 0 LINE"
);
},
{
closed = 1;
nodes = (
"268 510 LINE",
"250 510 LINE",
"457 14 LINE",
"466 28 LINE",
"54 28 LINE",
"62 15 LINE"
);
}
);
width = 601;
},
{
layerId = "F8700386-2E77-47FF-AAB4-DBF3F3ACCAC4";
paths = (
{
closed = 1;
nodes = (
"582 0 LINE",
"328 607 LINE",
"272 607 LINE",
"17 0 LINE"
);
},
{
closed = 1;
nodes = (
"248 462 LINE",
"230 462 LINE",
"417 14 LINE",
"430 38 LINE",
"44 38 LINE",
"62 15 LINE"
);
}
);
width = 612;
}
);
unicode = 0394;
},
{
color = 4;
glyphname = Omega;
layers = (
{
layerId = UUID0;
paths = (
{
closed = 1;
nodes = (
"611 139 LINE",
"604 78 OFFCURVE",
"578 55 OFFCURVE",
"519 55 CURVE SMOOTH",
"441 55 LINE",
"441 34 LINE",
"536 137 OFFCURVE",
"609 197 OFFCURVE",
"609 349 CURVE SMOOTH",
"609 493 OFFCURVE",
"510 607 OFFCURVE",
"335 607 CURVE SMOOTH",
"160 607 OFFCURVE",
"61 493 OFFCURVE",
"61 349 CURVE SMOOTH",
"61 197 OFFCURVE",
"134 137 OFFCURVE",
"229 34 CURVE",
"229 55 LINE",
"151 55 LINE SMOOTH",
"92 55 OFFCURVE",
"66 78 OFFCURVE",
"59 139 CURVE",
"28 139 LINE",
"36 94 OFFCURVE",
"48 21 OFFCURVE",
"48 -3 CURVE",
"59 0 OFFCURVE",
"98 0 OFFCURVE",
"151 0 CURVE SMOOTH",
"272 0 LINE",
"274 5 LINE",
"211 86 OFFCURVE",
"157 171 OFFCURVE",
"157 349 CURVE SMOOTH",
"157 516 OFFCURVE",
"214 580 OFFCURVE",
"335 580 CURVE SMOOTH",
"456 580 OFFCURVE",
"513 516 OFFCURVE",
"513 349 CURVE SMOOTH",
"513 171 OFFCURVE",
"459 86 OFFCURVE",
"396 5 CURVE",
"398 0 LINE",
"519 0 LINE SMOOTH",
"572 0 OFFCURVE",
"611 0 OFFCURVE",
"622 -3 CURVE",
"622 21 OFFCURVE",
"634 94 OFFCURVE",
"642 139 CURVE"
);
}
);
width = 670;
},
{
layerId = "F8700386-2E77-47FF-AAB4-DBF3F3ACCAC4";
paths = (
{
closed = 1;
nodes = (
"611 169 LINE",
"605 123 OFFCURVE",
"582 105 OFFCURVE",
"529 105 CURVE SMOOTH",
"442 105 LINE",
"412 48 LINE",
"542 155 OFFCURVE",
"624 219 OFFCURVE",
"624 359 CURVE SMOOTH",
"624 497 OFFCURVE",
"517 607 OFFCURVE",
"335 607 CURVE SMOOTH",
"153 607 OFFCURVE",
"46 497 OFFCURVE",
"46 359 CURVE SMOOTH",
"46 219 OFFCURVE",
"128 155 OFFCURVE",
"258 48 CURVE",
"228 105 LINE",
"141 105 LINE SMOOTH",
"88 105 OFFCURVE",
"65 123 OFFCURVE",
"59 169 CURVE",
"23 169 LINE",
"31 115 OFFCURVE",
"43 27 OFFCURVE",
"43 -3 CURVE",
"53 0 OFFCURVE",
"88 0 OFFCURVE",
"136 0 CURVE SMOOTH",
"287 0 LINE",
"289 55 LINE",
"241 126 OFFCURVE",
"202 206 OFFCURVE",
"202 349 CURVE SMOOTH",
"202 519 OFFCURVE",
"247 570 OFFCURVE",
"335 570 CURVE SMOOTH",
"423 570 OFFCURVE",
"468 519 OFFCURVE",
"468 349 CURVE SMOOTH",
"468 206 OFFCURVE",
"429 126 OFFCURVE",
"381 55 CURVE",
"383 0 LINE",
"534 0 LINE SMOOTH",
"582 0 OFFCURVE",
"617 0 OFFCURVE",
"627 -3 CURVE",
"627 27 OFFCURVE",
"639 115 OFFCURVE",
"647 169 CURVE"
);
}
);
width = 670;
}
);
unicode = 03A9;
},
{
color = 4;
glyphname = pi;
layers = (
{
background = {
paths = (
{
closed = 1;
nodes = (
"129 98 LINE",
"121 78 OFFCURVE",
"109 63 OFFCURVE",
"92 63 CURVE SMOOTH",
"71 63 OFFCURVE",
"62 74 OFFCURVE",
"42 74 CURVE SMOOTH",
"23 74 OFFCURVE",
"14 59 OFFCURVE",
"14 37 CURVE SMOOTH",
"14 2 OFFCURVE",
"40 -10 OFFCURVE",
"64 -10 CURVE SMOOTH",
"104 -10 OFFCURVE",
"138 29 OFFCURVE",
"154 84 CURVE"
);
}
);
};
layerId = UUID0;
paths = (
{
closed = 1;
nodes = (
"567 463 LINE",
"557 433 OFFCURVE",
"549 420 OFFCURVE",
"513 420 CURVE SMOOTH",
"452 420 OFFCURVE",
"303 430 OFFCURVE",
"200 430 CURVE SMOOTH",
"141 430 OFFCURVE",
"80 407 OFFCURVE",
"40 322 CURVE",
"58 310 LINE",
"88 352 OFFCURVE",
"128 365 OFFCURVE",
"186 365 CURVE SMOOTH",
"290 365 OFFCURVE",
"418 355 OFFCURVE",
"501 355 CURVE SMOOTH",
"546 355 LINE SMOOTH",
"561 355 OFFCURVE",
"570 354 OFFCURVE",
"576 353 CURVE",
"576 372 LINE SMOOTH",
"576 388 OFFCURVE",
"578 413 OFFCURVE",
"593 458 CURVE"
);
},
{
closed = 1;
nodes = (
"393 365 LINE",
"386 305 OFFCURVE",
"370 195 OFFCURVE",
"370 113 CURVE SMOOTH",
"370 52 OFFCURVE",
"379 -6 OFFCURVE",
"472 -6 CURVE SMOOTH",
"520 -6 OFFCURVE",
"545 9 OFFCURVE",
"570 50 CURVE",
"553 63 LINE",
"538 40 OFFCURVE",
"517 23 OFFCURVE",
"495 23 CURVE SMOOTH",
"462 23 OFFCURVE",
"456 63 OFFCURVE",
"456 126 CURVE SMOOTH",
"456 188 OFFCURVE",
"462 279 OFFCURVE",
"467 365 CURVE"
);
},
{
closed = 1;
nodes = (
"208 378 LINE",
"202 322 OFFCURVE",
"189 225 OFFCURVE",
"174 153 CURVE SMOOTH",
"167 125 OFFCURVE",
"156 73 OFFCURVE",
"122 73 CURVE SMOOTH",
"101 73 OFFCURVE",
"92 84 OFFCURVE",
"72 84 CURVE SMOOTH",
"49 84 OFFCURVE",
"34 65 OFFCURVE",
"34 37 CURVE SMOOTH",
"34 2 OFFCURVE",
"60 -10 OFFCURVE",
"84 -10 CURVE SMOOTH",
"166 -10 OFFCURVE",
"194 88 OFFCURVE",
"207 144 CURVE SMOOTH",
"221 220 OFFCURVE",
"237 320 OFFCURVE",
"241 378 CURVE"
);
}
);
width = 608;
},
{
layerId = "F8700386-2E77-47FF-AAB4-DBF3F3ACCAC4";
paths = (
{
closed = 1;
nodes = (
"580 463 LINE",
"570 433 OFFCURVE",
"562 420 OFFCURVE",
"526 420 CURVE SMOOTH",
"461 420 OFFCURVE",
"299 430 OFFCURVE",
"190 430 CURVE SMOOTH",
"131 430 OFFCURVE",
"70 399 OFFCURVE",
"30 282 CURVE",
"58 270 LINE",
"86 312 OFFCURVE",
"123 325 OFFCURVE",
"176 325 CURVE SMOOTH",
"289 325 OFFCURVE",
"430 315 OFFCURVE",
"521 315 CURVE SMOOTH",
"566 315 LINE SMOOTH",
"581 315 OFFCURVE",
"590 314 OFFCURVE",
"596 313 CURVE",
"596 332 LINE SMOOTH",
"596 356 OFFCURVE",
"598 393 OFFCURVE",
"613 458 CURVE"
);
},
{
closed = 1;
nodes = (
"363 365 LINE",
"353 305 OFFCURVE",
"340 195 OFFCURVE",
"340 113 CURVE SMOOTH",
"340 52 OFFCURVE",
"367 -6 OFFCURVE",
"467 -6 CURVE SMOOTH",
"525 -6 OFFCURVE",
"559 9 OFFCURVE",
"590 50 CURVE",
"568 64 LINE",
"553 46 OFFCURVE",
"537 33 OFFCURVE",
"515 33 CURVE SMOOTH",
"482 33 OFFCURVE",
"476 69 OFFCURVE",
"476 126 CURVE SMOOTH",
"476 188 OFFCURVE",
"482 279 OFFCURVE",
"487 365 CURVE"
);
},
{
closed = 1;
nodes = (
"212 378 LINE",
"206 322 OFFCURVE",
"192 224 OFFCURVE",
"178 153 CURVE SMOOTH",
"171 117 OFFCURVE",
"168 97 OFFCURVE",
"139 97 CURVE SMOOTH",
"118 97 OFFCURVE",
"103 122 OFFCURVE",
"77 122 CURVE SMOOTH",
"46 122 OFFCURVE",
"23 93 OFFCURVE",
"23 55 CURVE SMOOTH",
"23 11 OFFCURVE",
"63 -10 OFFCURVE",
"88 -10 CURVE SMOOTH",
"186 -10 OFFCURVE",
"210 84 OFFCURVE",
"221 144 CURVE SMOOTH",
"235 219 OFFCURVE",
"251 320 OFFCURVE",
"255 378 CURVE"
);
}
);
width = 623;
}
);
unicode = 03C0;
},
{
color = 4;
glyphname = zero;
layers = (
{
background = {
paths = (
{
closed = 1;
nodes = (
"30 88 OFFCURVE",
"96 -9 OFFCURVE",
"231 -9 CURVE SMOOTH",
"364 -9 OFFCURVE",
"432 84 OFFCURVE",
"432 267 CURVE SMOOTH",
"432 451 OFFCURVE",
"362 545 OFFCURVE",
"231 545 CURVE SMOOTH",
"102 545 OFFCURVE",
"30 454 OFFCURVE",
"30 267 CURVE SMOOTH"
);
},
{
closed = 1;
nodes = (
"118 459 OFFCURVE",
"148 522 OFFCURVE",
"231 522 CURVE SMOOTH",
"315 522 OFFCURVE",
"345 465 OFFCURVE",
"345 268 CURVE SMOOTH",
"345 75 OFFCURVE",
"315 17 OFFCURVE",
"231 17 CURVE SMOOTH",
"148 17 OFFCURVE",
"118 71 OFFCURVE",
"118 268 CURVE SMOOTH"
);
}
);
};
layerId = UUID0;
paths = (
{
closed = 1;
nodes = (
"30 96 OFFCURVE",
"124 -10 OFFCURVE",
"268 -10 CURVE SMOOTH",
"411 -10 OFFCURVE",
"508 92 OFFCURVE",
"508 297 CURVE SMOOTH",
"508 504 OFFCURVE",
"409 607 OFFCURVE",
"268 607 CURVE SMOOTH",
"130 607 OFFCURVE",
"30 508 OFFCURVE",
"30 297 CURVE SMOOTH"
);
},
{
closed = 1;
nodes = (
"119 512 OFFCURVE",
"173 580 OFFCURVE",
"268 580 CURVE SMOOTH",
"365 580 OFFCURVE",
"421 519 OFFCURVE",
"421 298 CURVE SMOOTH",
"421 83 OFFCURVE",
"365 20 OFFCURVE",
"268 20 CURVE SMOOTH",
"173 20 OFFCURVE",
"119 78 OFFCURVE",
"119 298 CURVE SMOOTH"
);
}
);
width = 538;
},
{
background = {
paths = (
{
closed = 1;
nodes = (
"15 98 OFFCURVE",
"90 -9 OFFCURVE",
"246 -9 CURVE SMOOTH",
"400 -9 OFFCURVE",
"477 94 OFFCURVE",
"477 267 CURVE SMOOTH",
"477 441 OFFCURVE",
"398 545 OFFCURVE",
"246 545 CURVE SMOOTH",
"99 545 OFFCURVE",
"15 444 OFFCURVE",
"15 267 CURVE SMOOTH"
);
},
{
closed = 1;
nodes = (
"163 456 OFFCURVE",
"184 512 OFFCURVE",
"246 512 CURVE SMOOTH",
"309 512 OFFCURVE",
"330 462 OFFCURVE",
"330 268 CURVE SMOOTH",
"330 78 OFFCURVE",
"309 27 OFFCURVE",
"246 27 CURVE SMOOTH",
"184 27 OFFCURVE",
"163 74 OFFCURVE",
"163 268 CURVE SMOOTH"
);
}
);
};
layerId = "F8700386-2E77-47FF-AAB4-DBF3F3ACCAC4";
paths = (
{
closed = 1;
nodes = (
"15 106 OFFCURVE",
"119 -10 OFFCURVE",
"270 -10 CURVE SMOOTH",
"418 -10 OFFCURVE",
"525 102 OFFCURVE",
"525 297 CURVE SMOOTH",
"525 494 OFFCURVE",
"416 607 OFFCURVE",
"270 607 CURVE SMOOTH",
"126 607 OFFCURVE",
"15 497 OFFCURVE",
"15 297 CURVE SMOOTH"
);
},
{
closed = 1;
nodes = (
"164 509 OFFCURVE",
"191 573 OFFCURVE",
"270 573 CURVE SMOOTH",
"350 573 OFFCURVE",
"377 516 OFFCURVE",
"377 298 CURVE SMOOTH",
"377 86 OFFCURVE",
"350 27 OFFCURVE",
"270 27 CURVE SMOOTH",
"191 27 OFFCURVE",
"164 81 OFFCURVE",
"164 298 CURVE SMOOTH"
);
}
);
width = 540;
}
);
unicode = 0030;
},
{
color = 4;
glyphname = one;
layers = (
{
background = {
paths = (
{
closed = 1;
nodes = (
"69 431 LINE",
"124 458 LINE SMOOTH",
"133 463 OFFCURVE",
"140 455 OFFCURVE",
"140 444 CURVE SMOOTH",
"140 40 LINE SMOOTH",
"140 28 OFFCURVE",
"135 22 OFFCURVE",
"124 22 CURVE SMOOTH",
"75 23 LINE",
"75 0 LINE",
"282 0 LINE",
"282 23 LINE",
"234 22 LINE SMOOTH",
"224 22 OFFCURVE",
"219 28 OFFCURVE",
"219 40 CURVE SMOOTH",
"219 555 LINE",
"204 555 LINE",
"192 542 OFFCURVE",
"179 530 OFFCURVE",
"164 518 CURVE SMOOTH",
"139 498 OFFCURVE",
"104 474 OFFCURVE",
"61 461 CURVE"
);
}
);
};
layerId = UUID0;
paths = (
{
closed = 1;
nodes = (
"70 479 LINE",
"144 512 LINE SMOOTH",
"156 518 OFFCURVE",
"165 509 OFFCURVE",
"165 497 CURVE SMOOTH",
"165 43 LINE SMOOTH",
"165 30 OFFCURVE",
"158 23 OFFCURVE",
"144 23 CURVE SMOOTH",
"78 24 LINE",
"78 0 LINE",
"326 0 LINE",
"326 24 LINE",
"261 23 LINE SMOOTH",
"248 23 OFFCURVE",
"242 30 OFFCURVE",
"242 43 CURVE SMOOTH",
"242 617 LINE",
"225 617 LINE",
"211 603 OFFCURVE",
"196 589 OFFCURVE",
"179 576 CURVE SMOOTH",
"151 554 OFFCURVE",
"111 527 OFFCURVE",
"62 513 CURVE"
);
}
);
width = 387;
},
{
background = {
paths = (
{
closed = 1;
nodes = (
"44 425 LINE",
"94 439 LINE",
"103 443 OFFCURVE",
"110 436 OFFCURVE",
"110 425 CURVE SMOOTH",
"110 50 LINE SMOOTH",
"110 38 OFFCURVE",
"105 32 OFFCURVE",
"94 32 CURVE SMOOTH",
"50 33 LINE",
"50 0 LINE",
"307 0 LINE",
"307 33 LINE",
"264 32 LINE SMOOTH",
"254 32 OFFCURVE",
"249 38 OFFCURVE",
"249 50 CURVE SMOOTH",
"249 555 LINE",
"228 555 LINE",
"212 542 OFFCURVE",
"194 530 OFFCURVE",
"173 518 CURVE SMOOTH",
"139 498 OFFCURVE",
"90 474 OFFCURVE",
"31 461 CURVE"
);
}
);
};
layerId = "F8700386-2E77-47FF-AAB4-DBF3F3ACCAC4";
paths = (
{
closed = 1;
nodes = (
"44 475 LINE",
"107 494 LINE SMOOTH",
"118 499 OFFCURVE",
"126 491 OFFCURVE",
"126 479 CURVE SMOOTH",
"126 53 LINE SMOOTH",
"126 40 OFFCURVE",
"120 33 OFFCURVE",
"107 33 CURVE SMOOTH",
"51 34 LINE",
"51 0 LINE",
"337 0 LINE",
"337 34 LINE",
"282 33 LINE SMOOTH",
"270 33 OFFCURVE",
"264 40 OFFCURVE",
"264 53 CURVE SMOOTH",
"264 618 LINE",
"242 618 LINE",
"224 604 OFFCURVE",
"205 590 OFFCURVE",
"183 577 CURVE SMOOTH",
"146 555 OFFCURVE",
"94 528 OFFCURVE",
"31 514 CURVE"
);
}
);
width = 358;
}
);
unicode = 0031;
},
{
color = 4;
glyphname = two;
layers = (
{
background = {
paths = (
{
closed = 1;
nodes = (
"65 0 LINE",
"344 0 LINE SMOOTH",
"359 0 OFFCURVE",
"386 -1 OFFCURVE",
"391 -3 CURVE",
"392 19 OFFCURVE",
"397 63 OFFCURVE",
"411 149 CURVE",
"380 149 LINE",
"373 83 OFFCURVE",
"344 65 OFFCURVE",
"283 65 CURVE SMOOTH",
"101 65 LINE",
"101 38 LINE",
"232 157 LINE SMOOTH",
"359 272 OFFCURVE",
"393 334 OFFCURVE",
"393 411 CURVE SMOOTH",
"393 501 OFFCURVE",
"318 547 OFFCURVE",
"226 547 CURVE SMOOTH",
"130 547 OFFCURVE",
"65 496 OFFCURVE",
"65 437 CURVE SMOOTH",
"65 405 OFFCURVE",
"84 385 OFFCURVE",
"112 385 CURVE SMOOTH",
"130 385 OFFCURVE",
"148 394 OFFCURVE",
"148 413 CURVE SMOOTH",
"148 426 OFFCURVE",
"139 451 OFFCURVE",
"139 468 CURVE SMOOTH",
"139 499 OFFCURVE",
"172 520 OFFCURVE",
"215 520 CURVE SMOOTH",
"267 520 OFFCURVE",
"306 489 OFFCURVE",
"306 420 CURVE SMOOTH",
"306 323 OFFCURVE",
"232 227 OFFCURVE",
"158 149 CURVE SMOOTH",
"63 47 LINE"
);
}
);
};
layerId = UUID0;
paths = (
{
closed = 1;
nodes = (
"110 607 OFFCURVE",
"52 535 OFFCURVE",
"52 469 CURVE SMOOTH",
"52 433 OFFCURVE",
"71 412 OFFCURVE",
"102 412 CURVE SMOOTH",
"119 412 OFFCURVE",
"148 419 OFFCURVE",
"148 449 CURVE SMOOTH",
"148 468 OFFCURVE",
"137 480 OFFCURVE",
"137 503 CURVE SMOOTH",
"137 552 OFFCURVE",
"179 580 OFFCURVE",
"238 580 CURVE SMOOTH",
"298 580 OFFCURVE",
"338 535 OFFCURVE",
"338 449 CURVE SMOOTH",
"338 333 OFFCURVE",
"263 251 OFFCURVE",
"164 156 CURVE SMOOTH",
"47 45 LINE",
"49 0 LINE",
"376 0 LINE SMOOTH",
"393 0 OFFCURVE",
"424 -1 OFFCURVE",
"430 -3 CURVE",
"431 21 OFFCURVE",
"437 64 OFFCURVE",
"455 165 CURVE",
"419 165 LINE",
"411 87 OFFCURVE",
"375 66 OFFCURVE",
"303 66 CURVE SMOOTH",
"92 66 LINE",
"92 36 LINE",
"242 168 LINE SMOOTH",
"393 303 OFFCURVE",
"428 368 OFFCURVE",
"428 445 CURVE SMOOTH",
"428 570 OFFCURVE",
"340 607 OFFCURVE",
"246 607 CURVE SMOOTH"
);
}
);
width = 506;
},
{
associatedMasterId = UUID0;
layerId = "BAD526A7-2F52-439A-BCDA-7657EAF48622";
name = "Regular Oct 8 13, 16:20";
paths = (
{
closed = 1;
nodes = (
"319 0 LINE",
"364 0 LINE SMOOTH",
"376 0 OFFCURVE",
"386 -1 OFFCURVE",
"394 -2 CURVE",
"393 22 OFFCURVE",
"393 65 OFFCURVE",
"401 153 CURVE",
"375 153 LINE",
"375 94 OFFCURVE",
"344 65 OFFCURVE",
"283 65 CURVE SMOOTH",
"115 65 LINE",
"142 108 OFFCURVE",
"182 146 OFFCURVE",
"223 182 CURVE SMOOTH",
"284 236 LINE",
"345 287 OFFCURVE",
"393 344 OFFCURVE",
"393 408 CURVE SMOOTH",
"393 501 OFFCURVE",
"323 547 OFFCURVE",
"212 547 CURVE SMOOTH",
"112 547 OFFCURVE",
"63 486 OFFCURVE",
"63 436 CURVE SMOOTH",
"63 401 OFFCURVE",
"85 382 OFFCURVE",
"110 382 CURVE SMOOTH",
"131 382 OFFCURVE",
"152 399 OFFCURVE",
"152 422 CURVE SMOOTH",
"152 435 OFFCURVE",
"141 449 OFFCURVE",
"141 466 CURVE SMOOTH",
"141 499 OFFCURVE",
"169 524 OFFCURVE",
"212 524 CURVE SMOOTH",
"267 524 OFFCURVE",
"306 484 OFFCURVE",
"306 408 CURVE SMOOTH",
"306 270 OFFCURVE",
"84 148 OFFCURVE",
"52 0 CURVE"
);
}
);
width = 460;
},
{
background = {
paths = (
{
closed = 1;
nodes = (
"44 0 LINE",
"354 0 LINE SMOOTH",
"372 0 OFFCURVE",
"405 -1 OFFCURVE",
"411 -3 CURVE",
"412 20 OFFCURVE",
"417 102 OFFCURVE",
"429 154 CURVE",
"392 154 LINE",
"385 117 OFFCURVE",
"356 105 OFFCURVE",
"293 105 CURVE SMOOTH",
"78 105 LINE",
"78 80 LINE",
"243 186 LINE SMOOTH",
"364 264 OFFCURVE",
"428 319 OFFCURVE",
"428 404 CURVE SMOOTH",
"428 501 OFFCURVE",
"337 547 OFFCURVE",
"225 547 CURVE SMOOTH",
"102 547 OFFCURVE",
"35 492 OFFCURVE",
"35 428 CURVE SMOOTH",
"35 391 OFFCURVE",
"57 355 OFFCURVE",
"111 355 CURVE SMOOTH",
"149 355 OFFCURVE",
"183 373 OFFCURVE",
"183 410 CURVE SMOOTH",
"183 429 OFFCURVE",
"174 448 OFFCURVE",
"174 466 CURVE SMOOTH",
"174 494 OFFCURVE",
"194 510 OFFCURVE",
"220 510 CURVE SMOOTH",
"252 510 OFFCURVE",
"276 488 OFFCURVE",
"276 418 CURVE SMOOTH",
"276 310 OFFCURVE",
"224 250 OFFCURVE",
"160 195 CURVE SMOOTH",
"40 93 LINE"
);
}
);
};
layerId = "F8700386-2E77-47FF-AAB4-DBF3F3ACCAC4";
paths = (
{
closed = 1;
nodes = (
"116 607 OFFCURVE",
"35 548 OFFCURVE",
"35 478 CURVE SMOOTH",
"35 438 OFFCURVE",
"60 403 OFFCURVE",
"110 403 CURVE SMOOTH",
"147 403 OFFCURVE",
"176 420 OFFCURVE",
"176 456 CURVE SMOOTH",
"176 476 OFFCURVE",
"167 498 OFFCURVE",
"167 518 CURVE SMOOTH",
"167 550 OFFCURVE",
"193 570 OFFCURVE",
"226 570 CURVE SMOOTH",
"270 570 OFFCURVE",
"305 542 OFFCURVE",
"305 465 CURVE SMOOTH",
"305 348 OFFCURVE",
"233 271 OFFCURVE",
"162 205 CURVE SMOOTH",
"39 91 LINE",
"42 0 LINE",
"382 0 LINE SMOOTH",
"402 0 OFFCURVE",
"437 -1 OFFCURVE",
"443 -3 CURVE",
"444 21 OFFCURVE",
"450 103 OFFCURVE",
"464 170 CURVE",
"424 170 LINE",
"416 121 OFFCURVE",
"384 106 OFFCURVE",
"314 106 CURVE SMOOTH",
"81 106 LINE",
"81 78 LINE",
"255 199 LINE SMOOTH",
"392 295 OFFCURVE",
"454 359 OFFCURVE",
"454 451 CURVE SMOOTH",
"454 557 OFFCURVE",
"358 607 OFFCURVE",
"235 607 CURVE SMOOTH"
);
}
);
width = 497;
}
);
unicode = 0032;
},
{
color = 4;
glyphname = three;
layers = (
{
background = {
paths = (
{
closed = 1;
nodes = (
"202 290 LINE",
"294 303 OFFCURVE",
"373 359 OFFCURVE",
"373 435 CURVE SMOOTH",
"373 511 OFFCURVE",
"299 549 OFFCURVE",
"208 549 CURVE SMOOTH",
"130 549 OFFCURVE",
"47 513 OFFCURVE",
"47 448 CURVE SMOOTH",
"47 423 OFFCURVE",
"59 397 OFFCURVE",
"94 397 CURVE SMOOTH",
"111 397 OFFCURVE",
"130 403 OFFCURVE",
"130 426 CURVE SMOOTH",
"130 442 OFFCURVE",
"121 453 OFFCURVE",
"121 470 CURVE SMOOTH",
"121 503 OFFCURVE",
"156 522 OFFCURVE",
"199 522 CURVE SMOOTH",
"258 522 OFFCURVE",
"286 487 OFFCURVE",
"286 438 CURVE SMOOTH",
"286 358 OFFCURVE",
"213 296 OFFCURVE",
"138 296 CURVE",
"138 273 LINE",
"262 261 OFFCURVE",
"318 222 OFFCURVE",
"318 146 CURVE SMOOTH",
"318 78 OFFCURVE",
"272 18 OFFCURVE",
"190 18 CURVE SMOOTH",
"148 18 OFFCURVE",
"109 34 OFFCURVE",
"109 69 CURVE SMOOTH",
"109 86 OFFCURVE",
"118 99 OFFCURVE",
"118 115 CURVE SMOOTH",
"118 135 OFFCURVE",
"104 145 OFFCURVE",
"83 145 CURVE SMOOTH",
"51 145 OFFCURVE",
"35 123 OFFCURVE",
"35 93 CURVE SMOOTH",
"35 31 OFFCURVE",
"105 -9 OFFCURVE",
"197 -9 CURVE SMOOTH",
"315 -9 OFFCURVE",
"404 57 OFFCURVE",
"404 151 CURVE SMOOTH",
"404 236 OFFCURVE",
"334 285 OFFCURVE",
"202 288 CURVE"
);
}
);
};
layerId = UUID0;
paths = (
{
closed = 1;
nodes = (
"326 335 OFFCURVE",
"424 395 OFFCURVE",
"424 485 CURVE SMOOTH",
"424 569 OFFCURVE",
"337 607 OFFCURVE",
"245 607 CURVE SMOOTH",
"142 607 OFFCURVE",
"48 557 OFFCURVE",
"48 484 CURVE SMOOTH",
"48 456 OFFCURVE",
"62 432 OFFCURVE",
"97 432 CURVE SMOOTH",
"120 432 OFFCURVE",
"145 443 OFFCURVE",
"145 471 CURVE SMOOTH",
"145 490 OFFCURVE",
"134 501 OFFCURVE",
"134 519 CURVE SMOOTH",
"134 556 OFFCURVE",
"178 580 OFFCURVE",
"232 580 CURVE SMOOTH",
"304 580 OFFCURVE",
"335 540 OFFCURVE",
"335 486 CURVE SMOOTH",
"335 398 OFFCURVE",
"251 340 OFFCURVE",
"160 327 CURVE",
"160 299 LINE",
"312 294 OFFCURVE",
"373 243 OFFCURVE",
"373 159 CURVE SMOOTH",
"373 88 OFFCURVE",
"328 17 OFFCURVE",
"225 17 CURVE SMOOTH",
"170 17 OFFCURVE",
"121 38 OFFCURVE",
"121 77 CURVE SMOOTH",
"121 96 OFFCURVE",
"131 107 OFFCURVE",
"131 126 CURVE SMOOTH",
"131 149 OFFCURVE",
"113 165 OFFCURVE",
"84 165 CURVE SMOOTH",
"52 165 OFFCURVE",
"35 145 OFFCURVE",
"35 115 CURVE SMOOTH",
"35 48 OFFCURVE",
"114 -10 OFFCURVE",
"233 -10 CURVE SMOOTH",
"355 -10 OFFCURVE",
"462 48 OFFCURVE",
"462 162 CURVE SMOOTH",
"462 260 OFFCURVE",
"383 314 OFFCURVE",
"218 318 CURVE",
"218 320 LINE"
);
}
);
width = 498;
},
{
associatedMasterId = UUID0;
background = {
paths = (
{
closed = 1;
nodes = (
"398 460 OFFCURVE",
"319 549 OFFCURVE",
"202 549 CURVE SMOOTH",
"118 549 OFFCURVE",
"47 505 OFFCURVE",
"47 446 CURVE SMOOTH",
"47 417 OFFCURVE",
"67 397 OFFCURVE",
"90 397 CURVE SMOOTH",
"117 397 OFFCURVE",
"130 406 OFFCURVE",
"130 425 CURVE SMOOTH",
"130 446 OFFCURVE",
"121 448 OFFCURVE",
"121 472 CURVE SMOOTH",
"121 505 OFFCURVE",
"159 522 OFFCURVE",
"202 522 CURVE SMOOTH",
"274 522 OFFCURVE",
"305 465 OFFCURVE",
"305 325 CURVE SMOOTH",
"305 201 OFFCURVE",
"266 136 OFFCURVE",
"189 136 CURVE SMOOTH",
"129 136 OFFCURVE",
"69 182 OFFCURVE",
"53 243 CURVE",
"28 226 LINE",
"51 151 OFFCURVE",
"108 109 OFFCURVE",
"195 109 CURVE SMOOTH",
"323 109 OFFCURVE",
"398 188 OFFCURVE",
"398 328 CURVE SMOOTH"
);
}
);
};
layerId = "0A47A779-D986-4B32-AD85-EE00B9CD8983";
name = "Regular Oct 8 13, 16:25";
paths = (
{
closed = 1;
nodes = (
"30 32 OFFCURVE",
"90 -9 OFFCURVE",
"211 -9 CURVE SMOOTH",
"315 -9 OFFCURVE",
"404 58 OFFCURVE",
"404 146 CURVE SMOOTH",
"404 239 OFFCURVE",
"329 286 OFFCURVE",
"188 286 CURVE",
"284 294 OFFCURVE",
"373 360 OFFCURVE",
"373 437 CURVE SMOOTH",
"373 501 OFFCURVE",
"301 549 OFFCURVE",
"209 549 CURVE SMOOTH",
"112 549 OFFCURVE",
"41 514 OFFCURVE",
"41 450 CURVE SMOOTH",
"41 419 OFFCURVE",
"59 398 OFFCURVE",
"86 398 CURVE SMOOTH",
"106 398 OFFCURVE",
"129 412 OFFCURVE",
"129 435 CURVE SMOOTH",
"129 442 OFFCURVE",
"127 454 OFFCURVE",
"127 458 CURVE SMOOTH",
"127 498 OFFCURVE",
"153 525 OFFCURVE",
"209 525 CURVE SMOOTH",
"253 525 OFFCURVE",
"286 490 OFFCURVE",
"286 437 CURVE SMOOTH",
"286 358 OFFCURVE",
"213 296 OFFCURVE",
"138 296 CURVE",
"138 273 LINE",
"262 261 OFFCURVE",
"318 222 OFFCURVE",
"318 146 CURVE SMOOTH",
"318 77 OFFCURVE",
"270 17 OFFCURVE",
"211 17 CURVE SMOOTH",
"152 17 OFFCURVE",
"115 45 OFFCURVE",
"115 85 CURVE SMOOTH",
"115 94 OFFCURVE",
"119 101 OFFCURVE",
"119 112 CURVE SMOOTH",
"119 135 OFFCURVE",
"99 149 OFFCURVE",
"75 149 CURVE SMOOTH",
"48 149 OFFCURVE",
"30 122 OFFCURVE",
"30 93 CURVE SMOOTH"
);
}
);
width = 440;
},
{
background = {
paths = (
{
closed = 1;
nodes = (
"238 294 LINE",
"333 307 OFFCURVE",
"409 353 OFFCURVE",
"409 432 CURVE SMOOTH",
"409 511 OFFCURVE",
"319 549 OFFCURVE",
"217 549 CURVE SMOOTH",
"115 549 OFFCURVE",
"20 511 OFFCURVE",
"20 439 CURVE SMOOTH",
"20 405 OFFCURVE",
"41 370 OFFCURVE",
"93 370 CURVE SMOOTH",
"127 370 OFFCURVE",
"165 385 OFFCURVE",
"165 426 CURVE SMOOTH",
"165 443 OFFCURVE",
"158 454 OFFCURVE",
"158 470 CURVE SMOOTH",
"158 497 OFFCURVE",
"180 512 OFFCURVE",
"204 512 CURVE SMOOTH",
"241 512 OFFCURVE",
"257 477 OFFCURVE",
"257 435 CURVE SMOOTH",
"257 345 OFFCURVE",
"182 301 OFFCURVE",
"109 301 CURVE",
"109 268 LINE",
"246 254 OFFCURVE",
"289 227 OFFCURVE",
"289 146 CURVE SMOOTH",
"289 77 OFFCURVE",
"257 28 OFFCURVE",
"204 28 CURVE SMOOTH",
"179 28 OFFCURVE",
"148 39 OFFCURVE",
"148 71 CURVE SMOOTH",
"148 83 OFFCURVE",
"152 102 OFFCURVE",
"152 114 CURVE SMOOTH",
"152 148 OFFCURVE",
"123 170 OFFCURVE",
"82 170 CURVE SMOOTH",
"34 170 OFFCURVE",
"8 139 OFFCURVE",
"8 102 CURVE SMOOTH",
"8 34 OFFCURVE",
"94 -9 OFFCURVE",
"205 -9 CURVE SMOOTH",
"340 -9 OFFCURVE",
"440 55 OFFCURVE",
"440 154 CURVE SMOOTH",
"440 246 OFFCURVE",
"364 290 OFFCURVE",
"238 292 CURVE"
);
}
);
};
layerId = "F8700386-2E77-47FF-AAB4-DBF3F3ACCAC4";
paths = (
{
closed = 1;
nodes = (
"361 339 OFFCURVE",
"451 392 OFFCURVE",
"451 479 CURVE SMOOTH",
"451 566 OFFCURVE",
"353 607 OFFCURVE",
"235 607 CURVE SMOOTH",
"130 607 OFFCURVE",
"24 566 OFFCURVE",
"24 488 CURVE SMOOTH",
"24 453 OFFCURVE",
"43 417 OFFCURVE",
"99 417 CURVE SMOOTH",
"128 417 OFFCURVE",
"163 431 OFFCURVE",
"163 471 CURVE SMOOTH",
"163 490 OFFCURVE",
"154 503 OFFCURVE",
"154 521 CURVE SMOOTH",
"154 552 OFFCURVE",
"185 570 OFFCURVE",
"222 570 CURVE SMOOTH",
"276 570 OFFCURVE",
"301 531 OFFCURVE",
"301 483 CURVE SMOOTH",
"301 385 OFFCURVE",
"213 332 OFFCURVE",
"127 332 CURVE",
"127 298 LINE",
"280 283 OFFCURVE",
"338 250 OFFCURVE",
"338 161 CURVE SMOOTH",
"338 85 OFFCURVE",
"292 28 OFFCURVE",
"216 28 CURVE SMOOTH",
"181 28 OFFCURVE",
"141 42 OFFCURVE",
"141 78 CURVE SMOOTH",
"141 93 OFFCURVE",
"149 112 OFFCURVE",
"149 126 CURVE SMOOTH",
"149 160 OFFCURVE",
"122 181 OFFCURVE",
"85 181 CURVE SMOOTH",
"36 181 OFFCURVE",
"9 150 OFFCURVE",
"9 110 CURVE SMOOTH",
"9 37 OFFCURVE",
"103 -10 OFFCURVE",
"221 -10 CURVE SMOOTH",
"376 -10 OFFCURVE",
"487 61 OFFCURVE",
"487 169 CURVE SMOOTH",
"487 270 OFFCURVE",
"400 320 OFFCURVE",
"252 322 CURVE",
"252 325 LINE"
);
}
);
width = 499;
}
);
unicode = 0033;
},
{
color = 4;
glyphname = four;
layers = (
{
background = {
paths = (
{
closed = 1;
nodes = (
"249 138 LINE",
"249 40 LINE SMOOTH",
"249 28 OFFCURVE",
"244 22 OFFCURVE",
"233 22 CURVE SMOOTH",
"175 23 LINE",
"175 0 LINE",
"382 0 LINE",
"382 23 LINE",
"344 22 LINE SMOOTH",
"333 22 OFFCURVE",
"328 28 OFFCURVE",
"328 40 CURVE SMOOTH",
"328 138 LINE",
"395 138 LINE",
"395 202 LINE",
"328 202 LINE",
"328 544 LINE",
"298 544 LINE",
"280 519 LINE",
"266 499 LINE",
"64 249 LINE",
"39 221 LINE SMOOTH",
"30 210 OFFCURVE",
"21 201 OFFCURVE",
"13 194 CURVE",
"13 138 LINE"
);
},
{
closed = 1;
nodes = (
"249 435 LINE",
"249 202 LINE",
"62 202 LINE"
);
}
);
};
layerId = UUID0;
paths = (
{
closed = 1;
nodes = (
"339 604 LINE",
"318 576 LINE",
"302 554 LINE",
"76 276 LINE",
"47 245 LINE",
"37 233 OFFCURVE",
"26 223 OFFCURVE",
"17 215 CURVE",
"17 155 LINE",
"286 155 LINE",
"286 43 LINE SMOOTH",
"286 30 OFFCURVE",
"281 23 OFFCURVE",
"268 23 CURVE SMOOTH",
"201 24 LINE",
"201 0 LINE",
"429 0 LINE",
"429 24 LINE",
"383 23 LINE SMOOTH",
"371 23 OFFCURVE",
"364 30 OFFCURVE",
"364 43 CURVE SMOOTH",
"364 155 LINE",
"444 155 LINE",
"444 224 LINE",
"364 224 LINE",
"364 604 LINE"
);
},
{
closed = 1;
nodes = (
"286 224 LINE",
"72 224 LINE",
"286 488 LINE"
);
}
);
width = 470;
},
{
background = {
paths = (
{
closed = 1;
nodes = (
"298 544 LINE",
"280 519 LINE",
"266 499 LINE",
"64 249 LINE",
"39 221 LINE SMOOTH",
"30 210 OFFCURVE",
"21 201 OFFCURVE",
"13 194 CURVE",
"13 128 LINE",
"229 128 LINE",
"229 50 LINE SMOOTH",
"229 38 OFFCURVE",
"224 32 OFFCURVE",
"213 32 CURVE SMOOTH",
"155 33 LINE",
"155 0 LINE",
"417 0 LINE",
"417 33 LINE",
"384 32 LINE SMOOTH",
"373 32 OFFCURVE",
"368 38 OFFCURVE",
"368 50 CURVE SMOOTH",
"368 128 LINE",
"430 128 LINE",
"430 202 LINE",
"368 202 LINE",
"368 544 LINE"
);
},
{
closed = 1;
nodes = (
"229 202 LINE",
"71 202 LINE",
"229 402 LINE"
);
}
);
};
layerId = "F8700386-2E77-47FF-AAB4-DBF3F3ACCAC4";
paths = (
{
closed = 1;
nodes = (
"342 604 LINE",
"321 576 LINE",
"303 554 LINE",
"68 276 LINE",
"38 245 LINE SMOOTH",
"27 233 OFFCURVE",
"17 223 OFFCURVE",
"7 215 CURVE",
"7 144 LINE",
"269 144 LINE",
"269 53 LINE SMOOTH",
"269 40 OFFCURVE",
"263 33 OFFCURVE",
"249 33 CURVE SMOOTH",
"179 34 LINE",
"179 0 LINE",
"468 0 LINE",
"468 34 LINE",
"426 33 LINE SMOOTH",
"413 33 OFFCURVE",
"406 40 OFFCURVE",
"406 53 CURVE SMOOTH",
"406 144 LINE",
"485 144 LINE",
"485 224 LINE",
"406 224 LINE",
"406 604 LINE"
);
},
{
closed = 1;
nodes = (
"269 224 LINE",
"73 224 LINE",
"269 455 LINE"
);
}
);
width = 491;
}
);
unicode = 0034;
},
{
color = 4;
glyphname = five;
layers = (
{
background = {
paths = (
{
closed = 1;
nodes = (
"366 539 OFFCURVE",
"351 537 OFFCURVE",
"308 537 CURVE SMOOTH",
"84 537 LINE",
"65 260 LINE",
"86 260 LINE",
"103 288 OFFCURVE",
"150 310 OFFCURVE",
"189 310 CURVE SMOOTH",
"269 310 OFFCURVE",
"309 257 OFFCURVE",
"309 169 CURVE SMOOTH",
"309 76 OFFCURVE",
"284 16 OFFCURVE",
"203 16 CURVE SMOOTH",
"164 16 OFFCURVE",
"121 34 OFFCURVE",
"121 77 CURVE SMOOTH",
"121 88 OFFCURVE",
"129 93 OFFCURVE",
"129 112 CURVE SMOOTH",
"129 136 OFFCURVE",
"110 147 OFFCURVE",
"87 147 CURVE SMOOTH",
"63 147 OFFCURVE",
"42 128 OFFCURVE",
"42 93 CURVE SMOOTH",
"42 10 OFFCURVE",
"135 -9 OFFCURVE",
"203 -9 CURVE SMOOTH",
"308 -9 OFFCURVE",
"395 57 OFFCURVE",
"395 169 CURVE SMOOTH",
"395 284 OFFCURVE",
"323 343 OFFCURVE",
"220 343 CURVE SMOOTH",
"167 343 OFFCURVE",
"104 316 OFFCURVE",
"78 284 CURVE",
"93 284 LINE",
"115 517 LINE",
"89 472 LINE",
"365 472 LINE",
"367 493 OFFCURVE",
"371 524 OFFCURVE",
"377 540 CURVE"
);
}
);
};
layerId = UUID0;
paths = (
{
closed = 1;
nodes = (
"418 599 OFFCURVE",
"400 597 OFFCURVE",
"349 597 CURVE SMOOTH",
"91 597 LINE",
"70 288 LINE",
"97 288 LINE",
"121 318 OFFCURVE",
"170 341 OFFCURVE",
"223 341 CURVE SMOOTH",
"308 341 OFFCURVE",
"362 281 OFFCURVE",
"362 191 CURVE SMOOTH",
"362 84 OFFCURVE",
"313 17 OFFCURVE",
"235 17 CURVE SMOOTH",
"183 17 OFFCURVE",
"123 37 OFFCURVE",
"123 88 CURVE SMOOTH",
"123 106 OFFCURVE",
"134 115 OFFCURVE",
"134 136 CURVE SMOOTH",
"134 163 OFFCURVE",
"111 175 OFFCURVE",
"89 175 CURVE SMOOTH",
"59 175 OFFCURVE",
"38 160 OFFCURVE",
"38 123 CURVE SMOOTH",
"38 31 OFFCURVE",
"143 -10 OFFCURVE",
"234 -10 CURVE SMOOTH",
"350 -10 OFFCURVE",
"452 63 OFFCURVE",
"452 187 CURVE SMOOTH",
"452 317 OFFCURVE",
"369 382 OFFCURVE",
"251 382 CURVE SMOOTH",
"192 382 OFFCURVE",
"117 352 OFFCURVE",
"86 313 CURVE",
"104 317 LINE",
"126 575 LINE",
"96 531 LINE",
"418 531 LINE",
"420 553 OFFCURVE",
"424 584 OFFCURVE",
"432 600 CURVE"
);
}
);
width = 492;
},
{
background = {
paths = (
{
closed = 1;
nodes = (
"385 539 OFFCURVE",
"370 537 OFFCURVE",
"324 537 CURVE SMOOTH",
"74 537 LINE",
"50 240 LINE",
"81 240 LINE",
"93 260 OFFCURVE",
"131 280 OFFCURVE",
"172 280 CURVE SMOOTH",
"237 280 OFFCURVE",
"271 245 OFFCURVE",
"271 146 CURVE SMOOTH",
"271 77 OFFCURVE",
"257 26 OFFCURVE",
"196 26 CURVE SMOOTH",
"172 26 OFFCURVE",
"153 38 OFFCURVE",
"153 63 CURVE SMOOTH",
"153 77 OFFCURVE",
"161 96 OFFCURVE",
"161 114 CURVE SMOOTH",
"161 145 OFFCURVE",
"137 170 OFFCURVE",
"96 170 CURVE SMOOTH",
"54 170 OFFCURVE",
"22 143 OFFCURVE",
"22 96 CURVE SMOOTH",
"22 10 OFFCURVE",
"130 -9 OFFCURVE",
"197 -9 CURVE SMOOTH",
"323 -9 OFFCURVE",
"418 57 OFFCURVE",
"418 170 CURVE SMOOTH",
"418 274 OFFCURVE",
"333 333 OFFCURVE",
"227 333 CURVE SMOOTH",
"156 333 OFFCURVE",
"90 305 OFFCURVE",
"63 274 CURVE",
"89 274 LINE",
"115 517 LINE",
"86 432 LINE",
"380 432 LINE",
"382 465 OFFCURVE",
"390 513 OFFCURVE",
"396 540 CURVE"
);
}
);
};
layerId = "F8700386-2E77-47FF-AAB4-DBF3F3ACCAC4";
paths = (
{
closed = 1;
nodes = (
"422 599 OFFCURVE",
"405 597 OFFCURVE",
"353 597 CURVE SMOOTH",
"77 597 LINE",
"50 272 LINE",
"81 272 LINE",
"96 296 OFFCURVE",
"146 319 OFFCURVE",
"191 319 CURVE SMOOTH",
"272 319 OFFCURVE",
"313 275 OFFCURVE",
"313 168 CURVE SMOOTH",
"313 85 OFFCURVE",
"297 26 OFFCURVE",
"215 26 CURVE SMOOTH",
"182 26 OFFCURVE",
"152 41 OFFCURVE",
"152 74 CURVE SMOOTH",
"152 88 OFFCURVE",
"162 106 OFFCURVE",
"162 126 CURVE SMOOTH",
"162 159 OFFCURVE",
"135 183 OFFCURVE",
"95 183 CURVE SMOOTH",
"56 183 OFFCURVE",
"22 155 OFFCURVE",
"22 106 CURVE SMOOTH",
"22 11 OFFCURVE",
"141 -10 OFFCURVE",
"216 -10 CURVE SMOOTH",
"353 -10 OFFCURVE",
"458 64 OFFCURVE",
"458 189 CURVE SMOOTH",
"458 307 OFFCURVE",
"366 372 OFFCURVE",
"246 372 CURVE SMOOTH",
"170 372 OFFCURVE",
"96 341 OFFCURVE",
"65 307 CURVE",
"91 307 LINE",
"119 574 LINE",
"87 491 LINE",
"418 491 LINE",
"420 524 OFFCURVE",
"428 573 OFFCURVE",
"434 600 CURVE"
);
}
);
width = 483;
}
);
unicode = 0035;
},
